<svg width="54" height="27" viewBox="0 0 54 27" fill="none" xmlns="http://www.w3.org/2000/svg">
<path d="M45.3536 14.3536C45.5488 14.1583 45.5488 13.8417 45.3536 13.6465L42.1716 10.4645C41.9763 10.2692 41.6597 10.2692 41.4645 10.4645C41.2692 10.6597 41.2692 10.9763 41.4645 11.1716L44.2929 14L41.4645 16.8284C41.2692 17.0237 41.2692 17.3403 41.4645 17.5355C41.6597 17.7308 41.9763 17.7308 42.1716 17.5355L45.3536 14.3536ZM-4.37114e-08 14.5L45 14.5L45 13.5L4.37114e-08 13.5L-4.37114e-08 14.5Z" fill="#EEEEEE"/>
<path d="M28.834 9C30.6405 4.31994 35.1823 1 40.4995 1C47.4031 1 52.9995 6.59644 52.9995 13.5C52.9995 20.4036 47.4031 26 40.4995 26C35.1823 26 30.6405 22.6801 28.834 18" stroke="#F66D46"/>
</svg>
