<svg width="19" height="23" viewBox="0 0 19 23" fill="none" xmlns="http://www.w3.org/2000/svg">
<path d="M9.02698 0C4.04948 0 0 3.7367 0 8.32969C0 14.0297 8.07826 22.3978 8.4222 22.7512C8.74525 23.0832 9.30929 23.0826 9.63176 22.7512C9.97569 22.3978 18.054 14.0297 18.054 8.32969C18.0539 3.7367 14.0044 0 9.02698 0ZM9.02698 12.5206C6.52267 12.5206 4.48533 10.6406 4.48533 8.32969C4.48533 6.01882 6.52272 4.13884 9.02698 4.13884C11.5312 4.13884 13.5686 6.01886 13.5686 8.32974C13.5686 10.6406 11.5312 12.5206 9.02698 12.5206Z" fill="#F66D46"/>
</svg>
