<svg width="1337" height="346" viewBox="0 0 1337 346" fill="none" xmlns="http://www.w3.org/2000/svg">
<path d="M588.063 68.1295H548.045L536.721 160.93H511.701L525.397 49.6306H590.435L588.063 68.1295ZM633.703 104.669C637.273 104.669 640.257 104.159 642.655 103.14C645.103 102.07 647.067 100.592 648.547 98.7062C650.077 96.7695 651.174 94.4762 651.837 91.8265C652.5 89.1768 652.831 86.272 652.831 83.1121C652.831 80.921 652.525 78.9078 651.913 77.0732C651.352 75.2386 650.459 73.6588 649.235 72.3338C648.011 71.0088 646.455 69.9896 644.568 69.2761C642.731 68.5117 640.538 68.1295 637.987 68.1295H626.204L621.69 104.669H633.703ZM640.436 49.5541C647.067 49.5541 652.729 50.3695 657.422 52.0003C662.166 53.58 666.043 55.7969 669.053 58.6507C672.113 61.4536 674.358 64.7916 675.786 68.6646C677.214 72.4867 677.928 76.6145 677.928 81.0482C677.928 87.1128 676.984 92.7438 675.097 97.9418C673.261 103.089 670.43 107.548 666.604 111.319C662.778 115.091 657.932 118.046 652.066 120.186C646.2 122.327 639.262 123.397 631.254 123.397H619.394L614.727 160.93H589.936L603.556 49.5541H640.436ZM718.042 68.741L714.752 95.6486H746.276L743.828 114.148H712.457L709.014 141.743H750.561L748.113 160.93H681.545L695.317 49.5541H761.732L759.284 68.741H718.042ZM855.567 49.6306L841.867 160.93H816.851L822.054 118.581C816.287 120.008 810.826 121.027 805.68 121.639C800.576 122.25 795.882 122.377 791.598 122.021C787.313 121.613 783.513 120.671 780.197 119.193C776.881 117.664 774.152 115.498 772.01 112.695C769.918 109.841 768.464 106.274 767.648 101.993C766.832 97.6618 766.807 92.5145 767.572 86.552L772.086 49.6306H797.183L792.592 86.6284C792.133 90.3483 792.133 93.5589 792.592 96.2601C793.102 98.9098 794.454 100.923 796.648 102.299C798.841 103.675 802.131 104.337 806.517 104.287C810.907 104.236 816.77 103.319 824.116 101.535L830.543 49.6306H855.567ZM936.593 93.5846C935.167 95.5721 933.508 97.2281 931.623 98.5534C929.787 99.8786 927.798 100.949 925.655 101.764C928.812 102.681 931.39 104.159 933.379 106.198C935.425 108.236 937.205 111.09 938.735 114.759L955.19 160.93H932.388C930.141 160.93 928.329 160.344 926.952 159.172C925.631 157.999 924.479 156.267 923.513 153.974L911.802 118.658C910.94 116.467 909.869 115.014 908.588 114.3C907.316 113.536 905.584 113.154 903.385 113.154H892.907L887.011 160.93H862.148L875.84 49.5541H900.711L895.122 95.037H903.772C905.503 95.037 907.034 94.6806 908.363 93.9669C909.74 93.2531 911.061 91.9536 912.342 90.0683L934.144 55.8988C935.522 54.0642 937.076 52.5609 938.816 51.3887C940.596 50.1657 942.641 49.5541 944.937 49.5541H966.361L936.593 93.5846ZM1070.57 98.0947C1070.57 104.108 1069.85 109.867 1068.42 115.371C1067.05 120.874 1065.06 125.996 1062.46 130.735C1059.9 135.475 1056.79 139.781 1053.12 143.654C1049.5 147.527 1045.41 150.84 1040.88 153.591C1036.34 156.293 1031.42 158.407 1026.11 159.936C1020.8 161.414 1015.22 162.153 1009.35 162.153C1002.01 162.153 995.397 160.879 989.533 158.331C983.718 155.732 978.773 152.216 974.689 147.782C970.606 143.298 967.473 138.048 965.282 132.035C963.139 125.97 962.068 119.448 962.068 112.466C962.068 106.453 962.753 100.694 964.13 95.1899C965.556 89.6354 967.545 84.4881 970.098 79.7487C972.7 75.0093 975.841 70.703 979.514 66.83C983.186 62.957 987.286 59.67 991.829 56.969C996.371 54.2171 1001.29 52.1022 1006.6 50.6243C1011.9 49.0955 1017.51 48.3311 1023.43 48.3311C1030.72 48.3311 1037.28 49.6306 1043.09 52.2296C1048.96 54.7777 1053.91 58.294 1057.94 62.7786C1062.02 67.2631 1065.13 72.5376 1067.27 78.602C1069.46 84.6667 1070.57 91.1643 1070.57 98.0947ZM1045.01 98.7062C1045.01 94.1197 1044.45 89.9661 1043.33 86.2462C1042.26 82.4748 1040.65 79.2645 1038.5 76.6145C1036.41 73.9136 1033.84 71.8496 1030.78 70.4228C1027.72 68.9449 1024.25 68.2059 1020.37 68.2059C1015.27 68.2059 1010.7 69.2761 1006.67 71.4165C1002.65 73.5059 999.198 76.4617 996.347 80.2838C993.536 84.1059 991.37 88.7181 989.839 94.1197C988.357 99.4707 987.624 105.407 987.624 111.931C987.624 116.517 988.156 120.671 989.227 124.391C990.298 128.111 991.853 131.296 993.899 133.946C995.985 136.596 998.562 138.66 1001.62 140.138C1004.68 141.564 1008.18 142.278 1012.11 142.278C1017.21 142.278 1021.77 141.234 1025.8 139.144C1029.88 137.054 1033.32 134.099 1036.13 130.277C1038.99 126.455 1041.18 121.868 1042.72 116.517C1044.25 111.166 1045.01 105.23 1045.01 98.7062Z" fill="#F66D46"/>
<path d="M578.152 233.409H555.801L546.861 305.767H527.289L536.109 233.409H513.638L515.571 217.839H580.206L578.152 233.409ZM611.542 261.35C614.361 261.35 616.717 260.948 618.61 260.143C620.543 259.298 622.093 258.132 623.261 256.643C624.469 255.114 625.335 253.304 625.859 251.212C626.382 249.119 626.644 246.826 626.644 244.332C626.644 242.602 626.402 241.013 625.919 239.564C625.476 238.116 624.771 236.869 623.805 235.823C622.838 234.777 621.61 233.972 620.12 233.409C618.67 232.805 616.939 232.503 614.925 232.503H605.622L602.058 261.35H611.542ZM616.858 217.839C622.093 217.839 626.563 218.482 630.268 219.77C634.013 221.017 637.074 222.767 639.45 225.02C641.866 227.233 643.638 229.868 644.766 232.926C645.893 235.943 646.457 239.202 646.457 242.702C646.457 247.49 645.712 251.936 644.222 256.039C642.772 260.103 640.537 263.623 637.517 266.601C634.497 269.578 630.671 271.911 626.04 273.601C621.409 275.291 615.932 276.136 609.609 276.136H600.246L596.561 305.767H576.99L587.742 217.839H616.858ZM688.771 272.273L684.482 247.168C684.16 245.599 683.797 243.748 683.395 241.616C683.032 239.444 682.67 237.11 682.307 234.616C681.341 237.15 680.374 239.504 679.408 241.676C678.482 243.809 677.676 245.68 676.992 247.289L666.662 272.273H688.771ZM714.927 305.767H699.704C698.013 305.767 696.684 305.385 695.718 304.62C694.791 303.816 694.147 302.77 693.785 301.482L691.066 285.671H661.165L654.641 301.482C654.077 302.568 653.171 303.554 651.923 304.439C650.715 305.324 649.325 305.767 647.755 305.767H632.291L674.334 217.839H694.51L714.927 305.767ZM801.79 217.839L790.917 305.767H771.104L775.755 268.351H743.981L739.33 305.767H719.516L730.389 217.839H750.203L745.612 254.953H777.386L781.977 217.839H801.79ZM842.946 290.559C845.161 290.559 847.07 290.398 848.681 290.076C850.332 289.714 851.742 289.272 852.909 288.749C854.077 288.225 855.068 287.662 855.873 287.059C856.679 286.415 857.404 285.832 858.048 285.309C858.692 284.786 859.296 284.363 859.86 284.041C860.424 283.679 861.028 283.498 861.672 283.498C862.317 283.498 862.84 283.619 863.243 283.86C863.686 284.061 864.008 284.303 864.21 284.584L871.096 292.852C867.27 297.399 862.719 300.859 857.444 303.232C852.209 305.566 846.249 306.732 839.564 306.732C834.006 306.732 829.069 305.767 824.76 303.836C820.491 301.864 816.891 299.169 813.951 295.749C811.011 292.329 808.772 288.286 807.242 283.619C805.752 278.912 805.008 273.842 805.008 268.411C805.008 263.382 805.575 258.614 806.702 254.108C807.83 249.602 809.417 245.438 811.47 241.616C813.524 237.794 815.981 234.354 818.84 231.296C821.74 228.239 824.945 225.644 828.449 223.511C831.952 221.379 835.714 219.75 839.741 218.623C843.768 217.456 847.98 216.873 852.37 216.873C855.672 216.873 858.668 217.195 861.366 217.839C864.105 218.442 866.561 219.307 868.736 220.434C870.951 221.52 872.924 222.827 874.656 224.356C876.387 225.885 877.902 227.575 879.19 229.426L872.304 237.392C871.821 237.955 871.257 238.458 870.613 238.9C869.968 239.343 869.123 239.564 868.076 239.564C867.391 239.564 866.763 239.403 866.199 239.081C865.635 238.76 865.055 238.377 864.451 237.935C863.887 237.452 863.243 236.929 862.518 236.366C861.793 235.802 860.923 235.3 859.917 234.857C858.91 234.374 857.702 233.972 856.292 233.65C854.923 233.328 853.296 233.167 851.403 233.167C847.698 233.167 844.235 233.952 841.013 235.521C837.832 237.09 835.053 239.343 832.677 242.28C830.342 245.177 828.505 248.717 827.176 252.901C825.847 257.045 825.187 261.692 825.187 266.842C825.187 270.584 825.63 273.923 826.516 276.86C827.442 279.797 828.69 282.291 830.261 284.343C831.832 286.355 833.7 287.904 835.875 288.99C838.049 290.036 840.409 290.559 842.946 290.559ZM937.454 290.559C939.669 290.559 941.578 290.398 943.189 290.076C944.84 289.714 946.25 289.272 947.418 288.749C948.585 288.225 949.576 287.662 950.382 287.059C951.187 286.415 951.912 285.832 952.556 285.309C953.201 284.786 953.805 284.363 954.368 284.041C954.932 283.679 955.536 283.498 956.181 283.498C956.825 283.498 957.348 283.619 957.751 283.86C958.194 284.061 958.516 284.303 958.718 284.584L965.604 292.852C961.778 297.399 957.228 300.859 951.952 303.232C946.717 305.566 940.757 306.732 934.072 306.732C928.514 306.732 923.577 305.767 919.268 303.836C914.999 301.864 911.399 299.169 908.459 295.749C905.52 292.329 903.28 288.286 901.75 283.619C900.26 278.912 899.519 273.842 899.519 268.411C899.519 263.382 900.083 258.614 901.211 254.108C902.338 249.602 903.925 245.438 905.979 241.616C908.032 237.794 910.489 234.354 913.348 231.296C916.248 228.239 919.453 225.644 922.957 223.511C926.461 221.379 930.222 219.75 934.249 218.623C938.276 217.456 942.488 216.873 946.878 216.873C950.18 216.873 953.176 217.195 955.875 217.839C958.613 218.442 961.069 219.307 963.244 220.434C965.459 221.52 967.432 222.827 969.164 224.356C970.896 225.885 972.41 227.575 973.698 229.426L966.812 237.392C966.329 237.955 965.765 238.458 965.121 238.9C964.476 239.343 963.631 239.564 962.584 239.564C961.899 239.564 961.271 239.403 960.707 239.081C960.143 238.76 959.563 238.377 958.959 237.935C958.396 237.452 957.751 236.929 957.026 236.366C956.301 235.802 955.432 235.3 954.425 234.857C953.418 234.374 952.21 233.972 950.8 233.65C949.431 233.328 947.804 233.167 945.911 233.167C942.207 233.167 938.743 233.952 935.522 235.521C932.34 237.09 929.561 239.343 927.185 242.28C924.85 245.177 923.013 248.717 921.684 252.901C920.355 257.045 919.695 261.692 919.695 266.842C919.695 270.584 920.138 273.923 921.024 276.86C921.95 279.797 923.199 282.291 924.769 284.343C926.34 286.355 928.208 287.904 930.383 288.99C932.558 290.036 934.917 290.559 937.454 290.559ZM999.995 232.986L997.394 254.229H1022.28L1020.35 268.833H995.582L992.868 290.619H1025.66L1023.73 305.767H971.178L982.051 217.839H1034.48L1032.55 232.986H999.995ZM1067.97 261.35C1070.79 261.35 1073.14 260.948 1075.04 260.143C1076.97 259.298 1078.52 258.132 1079.69 256.643C1080.9 255.114 1081.76 253.304 1082.29 251.212C1082.81 249.119 1083.07 246.826 1083.07 244.332C1083.07 242.602 1082.83 241.013 1082.35 239.564C1081.91 238.116 1081.2 236.869 1080.23 235.823C1079.27 234.777 1078.04 233.972 1076.55 233.409C1075.1 232.805 1073.37 232.503 1071.36 232.503H1062.05L1058.49 261.35H1067.97ZM1073.29 217.839C1078.52 217.839 1082.99 218.482 1086.7 219.77C1090.44 221.017 1093.51 222.767 1095.88 225.02C1098.3 227.233 1100.07 229.868 1101.2 232.926C1102.32 235.943 1102.89 239.202 1102.89 242.702C1102.89 247.49 1102.14 251.936 1100.65 256.039C1099.2 260.103 1096.97 263.623 1093.95 266.601C1090.93 269.578 1087.1 271.911 1082.47 273.601C1077.84 275.291 1072.36 276.136 1066.04 276.136H1056.67L1052.99 305.767H1033.42L1044.17 217.839H1073.29ZM1137.75 290.981C1140.17 290.981 1142.21 290.639 1143.86 289.956C1145.51 289.231 1146.84 288.246 1147.85 286.998C1148.89 285.711 1149.63 284.222 1150.08 282.533C1150.56 280.843 1150.8 278.992 1150.8 276.981C1150.8 275.653 1150.63 274.446 1150.26 273.36C1149.94 272.273 1149.35 271.368 1148.51 270.644C1147.7 269.879 1146.61 269.296 1145.25 268.894C1143.92 268.451 1142.27 268.23 1140.29 268.23H1127.61L1124.83 290.981H1137.75ZM1131.96 232.503L1129.18 255.195H1138.6C1140.82 255.195 1142.81 254.973 1144.58 254.531C1146.36 254.088 1147.86 253.344 1149.11 252.298C1150.4 251.212 1151.39 249.783 1152.08 248.013C1152.76 246.243 1153.1 244.05 1153.1 241.435C1153.1 238.176 1152.24 235.883 1150.5 234.555C1148.81 233.187 1146.17 232.503 1142.59 232.503H1131.96ZM1144.4 217.839C1149.51 217.839 1153.89 218.321 1157.51 219.287C1161.18 220.253 1164.16 221.641 1166.45 223.451C1168.79 225.221 1170.48 227.374 1171.53 229.908C1172.61 232.403 1173.15 235.179 1173.15 238.237C1173.15 240.65 1172.83 242.984 1172.19 245.237C1171.58 247.45 1170.6 249.502 1169.23 251.393C1167.9 253.284 1166.17 254.993 1164.04 256.522C1161.94 258.051 1159.38 259.359 1156.36 260.445C1161.11 261.732 1164.62 263.744 1166.87 266.48C1169.13 269.175 1170.25 272.595 1170.25 276.739C1170.25 280.803 1169.47 284.605 1167.9 288.145C1166.37 291.645 1164.13 294.703 1161.19 297.318C1158.25 299.933 1154.67 302.005 1150.44 303.534C1146.25 305.023 1141.5 305.767 1136.18 305.767H1103.32L1114.2 217.839H1144.4ZM1258.51 217.839L1247.69 305.767H1227.95L1233.74 257.065C1234.07 254.853 1234.45 252.519 1234.89 250.065C1235.33 247.57 1235.92 244.935 1236.64 242.159C1235.44 244.613 1234.16 246.907 1232.83 249.039C1231.55 251.131 1230.32 252.982 1229.15 254.591L1200.58 299.853C1200.05 300.537 1199.45 301.241 1198.77 301.965C1198.08 302.649 1197.34 303.272 1196.53 303.836C1195.73 304.399 1194.86 304.862 1193.93 305.224C1193.05 305.586 1192.14 305.767 1191.22 305.767H1176.36L1187.17 217.839H1206.92L1201.13 266.48C1200.8 268.733 1200.42 271.127 1199.97 273.661C1199.53 276.156 1198.95 278.791 1198.23 281.567C1199.39 279.073 1200.64 276.759 1201.97 274.627C1203.3 272.454 1204.55 270.584 1205.72 269.014L1234.28 223.692C1234.81 223.009 1235.41 222.325 1236.1 221.641C1236.78 220.916 1237.53 220.273 1238.34 219.709C1239.14 219.146 1239.99 218.704 1240.87 218.382C1241.8 218.02 1242.73 217.839 1243.65 217.839H1258.51ZM1299.73 290.559C1301.94 290.559 1303.86 290.398 1305.47 290.076C1307.12 289.714 1308.53 289.272 1309.7 288.749C1310.86 288.225 1311.85 287.662 1312.65 287.059C1313.46 286.415 1314.18 285.832 1314.83 285.309C1315.47 284.786 1316.08 284.363 1316.64 284.041C1317.2 283.679 1317.81 283.498 1318.45 283.498C1319.1 283.498 1319.62 283.619 1320.02 283.86C1320.46 284.061 1320.79 284.303 1320.99 284.584L1327.87 292.852C1324.05 297.399 1319.5 300.859 1314.22 303.232C1308.99 305.566 1303.03 306.732 1296.34 306.732C1290.78 306.732 1285.86 305.767 1281.55 303.836C1277.28 301.864 1273.67 299.169 1270.73 295.749C1267.79 292.329 1265.56 288.286 1264.03 283.619C1262.54 278.912 1261.79 273.842 1261.79 268.411C1261.79 263.382 1262.35 258.614 1263.48 254.108C1264.61 249.602 1266.2 245.438 1268.26 241.616C1270.31 237.794 1272.77 234.354 1275.63 231.296C1278.53 228.239 1281.72 225.644 1285.23 223.511C1288.73 221.379 1292.5 219.75 1296.53 218.623C1300.55 217.456 1304.76 216.873 1309.15 216.873C1312.45 216.873 1315.46 217.195 1318.15 217.839C1320.89 218.442 1323.35 219.307 1325.52 220.434C1327.74 221.52 1329.71 222.827 1331.44 224.356C1333.17 225.885 1334.68 227.575 1335.97 229.426L1329.08 237.392C1328.6 237.955 1328.04 238.458 1327.39 238.9C1326.75 239.343 1325.9 239.564 1324.85 239.564C1324.17 239.564 1323.55 239.403 1322.99 239.081C1322.42 238.76 1321.83 238.377 1321.23 237.935C1320.67 237.452 1320.02 236.929 1319.3 236.366C1318.57 235.802 1317.71 235.3 1316.7 234.857C1315.7 234.374 1314.49 233.972 1313.08 233.65C1311.71 233.328 1310.07 233.167 1308.18 233.167C1304.48 233.167 1301.01 233.952 1297.79 235.521C1294.61 237.09 1291.83 239.343 1289.46 242.28C1287.12 245.177 1285.29 248.717 1283.96 252.901C1282.63 257.045 1281.97 261.692 1281.97 266.842C1281.97 270.584 1282.41 273.923 1283.29 276.86C1284.22 279.797 1285.47 282.291 1287.04 284.343C1288.61 286.355 1290.49 287.904 1292.66 288.99C1294.84 290.036 1297.19 290.559 1299.73 290.559Z" fill="#1F2E49"/>
<path d="M88.9292 53.553C88.3187 53.7747 87.7082 53.9964 87.154 54.2181C83.1027 55.8807 79.2745 57.5432 75.6678 59.2058L69.2869 48.2329C74.5581 44.3536 79.9958 40.8068 85.6551 37.5371L88.9292 53.553Z" fill="#EA5F23"/>
<path d="M104.685 49.8439C99.9689 50.6752 95.7517 51.562 92.2006 52.5595L86.8735 36.9315C92.3673 33.7726 98.0818 31.0017 103.964 28.5078L104.685 49.8439Z" fill="#EA5F23"/>
<path d="M434.944 217.781C435.004 217.72 435.066 217.599 435.066 217.539C435.066 217.72 435.004 217.781 434.944 217.781Z" fill="#E6E7ED"/>
<path d="M397.215 233.168C396.992 234.055 396.771 234.941 396.493 235.828C396.715 234.443 396.937 233.556 397.104 233.279C397.104 233.223 397.159 233.223 397.215 233.168Z" fill="#E6E7ED"/>
<path d="M435.055 217.486C434.999 217.32 434.945 216.766 434.833 215.99C435.166 216.544 435.222 217.043 435.055 217.486Z" fill="#E6E7ED"/>
<path d="M130.987 59.0974C205.784 54.8301 261.16 128.038 255.389 176.474L130.987 59.0974Z" fill="#EA5F23"/>
<path d="M255.388 176.475C233.749 179.523 163.724 230.952 163.724 230.952C163.724 230.952 95.9741 276.562 42.485 272.793C13.1324 259.271 2.53439 204.517 2.75634 186.617C3.58863 124.659 48.9769 63.9758 133.151 59.1543" fill="#EA5F23"/>
<path d="M303.273 229.233C303.107 229.842 302.94 230.508 302.773 231.117C292.564 266.973 260.159 292.576 220.431 299.06C215.548 299.891 210.832 300.667 206.227 301.443C205.949 301.499 205.672 301.554 205.394 301.554C204.95 301.609 204.617 301.664 204.395 301.72C172.545 307.096 147.354 311.585 126.935 311.862C79.8269 312.526 44.3707 275.784 49.198 278.056C74.1672 297.619 141.085 275.784 177.429 253.063C193.298 243.143 209.112 233.556 224.315 225.187C224.37 225.132 224.426 225.076 224.481 225.076C255.054 208.174 283.242 195.871 305.27 194.264C306.935 206.677 306.103 218.426 303.273 229.233Z" fill="#202347"/>
<path d="M417.02 308.534H430.281C430.392 308.534 430.448 308.534 430.559 308.534C430.559 307.869 430.559 307.204 430.503 306.539L347.994 307.814C343.722 308.035 339.782 306.151 338.062 299.667H338.229C338.118 299.556 338.062 299.446 338.062 299.279V261.539C338.062 261.206 338.34 260.929 338.673 260.929H340.559C340.892 260.929 341.169 261.206 341.169 261.539V299.058C342.39 304.045 344.61 303.546 350.602 304.323C350.991 304.377 351.379 304.433 351.657 304.488H430.503C430.115 296.453 428.95 287.752 428.95 279.827C428.95 262.647 428.173 245.079 422.458 231.724C421.07 228.454 428.062 226.293 426.065 223.522C422.68 218.867 417.464 216.816 411.139 214.932C400.374 211.662 388.777 200.135 377.902 195.48C361.644 188.497 343.888 183.066 324.579 183.066C297.557 183.066 258.716 204.292 224.536 225.073C224.481 225.129 224.425 225.184 224.37 225.184C186.805 248.183 175.319 306.594 204.45 301.773C204.727 301.718 205.06 301.662 205.449 301.607C205.726 301.551 205.948 301.496 206.281 301.496C211.774 300.665 225.313 298.947 232.693 299.833C259.715 303.103 267.316 306.705 276.971 315.905C284.406 323.054 293.894 340.899 303.494 343.891C312.483 346.717 316.2 346.053 326.466 345.554C339.45 344.944 333.068 336.521 343.5 336.521C356.706 336.521 364.252 336.853 374.85 336.521C379.677 336.41 382.508 343.281 386.835 343.392C392.606 343.558 396.324 344.001 399.708 342.506C403.87 340.621 404.757 336.521 407.476 335.024C411.915 332.53 416.021 335.412 420.35 333.306C421.57 332.696 422.846 331.809 424.122 330.48H417.242C416.409 330.48 415.689 329.815 415.689 328.928V324.993C415.689 324.162 416.355 323.442 417.242 323.442H424.233C425.066 323.442 425.787 324.106 425.787 324.993V328.485C426.509 327.542 427.174 326.49 427.84 325.27C428.562 323.995 429.117 322.611 429.449 321.114L428.839 322.112L410.639 322.333C410.639 322.389 410.695 322.5 410.695 322.555V324.329C410.695 324.716 410.417 324.938 410.084 324.938H394.715C394.326 324.938 394.104 324.661 394.104 324.329V322.555C394.104 322.555 394.104 322.555 394.104 322.5H392.107C392.107 322.555 392.107 322.611 392.107 322.665V324.218C392.107 324.661 391.774 324.993 391.329 324.993H376.237C375.794 324.993 375.46 324.661 375.46 324.218V322.776L338.561 323.22H337.174C334.067 323.275 328.352 323.22 327.076 322.998C321.916 321.89 320.084 318.454 319.863 316.016V315.35L319.64 307.204L317.366 295.843C317.088 295.455 316.811 295.012 316.533 294.402C315.423 291.908 312.371 289.415 308.876 289.525C306.435 289.581 303.716 289.803 302.551 289.137C302.44 289.082 302.384 289.027 302.273 288.916C302.218 288.86 302.162 288.805 302.106 288.749C298.555 283.707 301.33 240.702 302.884 231.169C303.05 230.56 303.272 229.895 303.383 229.286C303.66 228.952 304.104 228.898 304.548 228.952C309.764 226.958 323.691 219.919 324.745 219.144C325.3 218.7 326.022 217.703 325.911 217.204C325.023 216.207 323.469 212.438 323.358 209.889C323.247 208.282 323.358 207.118 323.358 205.012C323.358 202.685 323.358 200.689 324.912 198.861C327.076 196.256 330.96 195.535 334.234 194.926C338.506 194.15 342.002 194.372 342.779 194.427C349.715 194.871 360.979 195.314 375.794 195.923C377.292 197.808 377.403 200.634 376.071 200.412C366.194 199.027 343.167 195.646 331.238 198.861C328.352 199.637 326.41 206.232 328.019 209.723C328.63 211.053 329.295 215.32 329.628 217.37C329.739 217.925 329.74 218.313 329.794 218.424C329.794 218.479 329.74 218.534 329.684 218.589C329.628 218.7 329.517 218.811 329.406 218.922C327.409 220.585 308.432 229.396 306.99 230.505C306.767 230.671 306.546 230.726 306.379 230.726C305.713 238.817 303.993 274.507 305.048 286.089C305.048 286.2 305.048 286.256 305.048 286.367C305.103 286.367 305.158 286.422 305.214 286.422C306.934 287.309 311.317 286.699 312.705 286.588C318.808 286.2 322.914 291.632 323.247 294.292L324.357 304.267L326.632 314.464V314.519C326.798 314.797 326.965 315.129 327.132 315.517C328.075 318.066 330.738 320.227 334.178 320.283C335.288 320.283 336.231 320.338 337.119 320.394L429.56 320.56C429.782 319.839 429.949 319.008 430.06 318.233H417.131C416.299 318.233 415.577 317.567 415.577 316.68V310.085C415.522 309.254 416.188 308.534 417.02 308.534ZM393.937 327.321C393.937 326.878 394.271 326.545 394.715 326.545H409.807C410.25 326.545 410.584 326.878 410.584 327.321V328.872C410.584 329.316 410.25 329.648 409.807 329.648H394.715C394.271 329.648 393.937 329.316 393.937 328.872V327.321ZM375.35 327.321C375.35 326.878 375.682 326.545 376.126 326.545H391.163C391.607 326.545 391.94 326.878 391.94 327.321V328.872C391.94 329.316 391.607 329.648 391.163 329.648H376.071C375.627 329.648 375.294 329.316 375.294 328.872V327.321H375.35ZM354.874 324.993C354.874 324.162 355.54 323.442 356.428 323.442H363.42C364.252 323.442 364.974 324.106 364.974 324.993V328.928C364.974 329.759 364.307 330.48 363.42 330.48H356.428C355.596 330.48 354.874 329.815 354.874 328.928V324.993ZM312.483 311.471C315.868 311.471 318.586 317.179 318.586 324.162C318.586 331.2 315.868 336.853 312.483 336.853C309.098 336.853 306.379 331.145 306.379 324.162C306.324 317.179 309.098 311.471 312.483 311.471ZM318.198 259.156C318.198 259.766 317.81 260.265 317.31 260.486L313.093 262.038C312.039 262.426 310.929 261.649 310.929 260.541V235.492C310.929 234.938 311.262 234.384 311.817 234.217L316.256 232.334C317.199 231.946 318.198 232.61 318.198 233.608V259.156ZM340.171 256.219L341.503 226.238C341.503 224.021 346.441 226.791 348.661 226.791L386.946 229.286C387.778 229.396 399.597 231.336 397.544 233.608L396.213 255.776C396.213 257.992 395.214 260.154 392.994 260.154L344.776 259.211C344.11 259.267 340.171 256.883 340.171 256.219ZM427.507 298.448C427.507 299.279 426.841 299.999 425.954 299.999H347.883C347.051 299.999 346.33 299.335 346.33 298.448V294.624C346.33 293.793 346.996 293.072 347.883 293.072H425.954C426.786 293.072 427.507 293.737 427.507 294.624V298.448ZM427.507 289.747C427.507 290.578 426.841 291.298 425.954 291.298H347.883C347.051 291.298 346.33 290.634 346.33 289.747V285.923C346.33 285.092 346.996 284.371 347.883 284.371H425.954C426.786 284.371 427.507 285.037 427.507 285.923V289.747ZM425.954 270.794C426.786 270.794 427.507 271.459 427.507 272.346V280.935C427.507 281.767 426.841 282.488 425.954 282.488H347.883C347.051 282.488 346.33 281.822 346.33 280.935V272.346C346.33 271.514 346.996 270.794 347.883 270.794H425.954ZM399.486 255.664V237.986C399.486 237.432 399.93 236.988 400.485 236.988H400.985C401.539 236.988 401.983 237.432 401.983 237.986V255.664C401.983 256.219 401.539 256.662 400.985 256.662H400.485C399.93 256.662 399.486 256.219 399.486 255.664ZM407.976 257.77V236.046C407.976 235.492 408.42 235.049 408.975 235.049H411.305C411.86 235.049 412.303 235.492 412.303 236.046V257.77C412.303 258.325 411.86 258.768 411.305 258.768H408.975C408.42 258.768 407.976 258.325 407.976 257.77ZM336.176 254.39C336.176 255 335.788 255.553 335.177 255.72L323.026 258.768C322.193 258.99 321.472 258.325 321.472 257.438V231.447C321.472 230.892 321.749 230.449 322.193 230.172L334.344 224.132C335.177 223.688 336.176 224.409 336.176 225.406V254.39ZM331.57 206.065C331.57 206.065 331.626 206.065 331.57 206.065H331.626C332.957 206.785 340.115 208.892 340.115 208.892C342.667 210 348.438 209.335 365.085 210.72C381.064 211.994 387.557 209.833 400.707 212.881C402.593 213.325 412.359 216.373 412.359 216.428C404.591 215.541 354.874 212.383 338.229 212.604C335.51 212.66 330.683 207.228 331.57 206.065ZM364.918 316.68C364.918 317.512 364.252 318.233 363.364 318.233H350.103C349.27 318.233 348.549 317.567 348.549 316.68V310.085C348.549 309.254 349.215 308.534 350.103 308.534H363.42C364.252 308.534 364.974 309.199 364.974 310.085V316.68H364.918ZM410.528 316.68C410.528 317.512 409.862 318.233 408.975 318.233H376.792C375.96 318.233 375.239 317.567 375.239 316.68V314.907C375.239 314.076 375.904 313.356 376.792 313.356H408.975C409.807 313.356 410.528 314.02 410.528 314.907V316.68ZM338.173 299.611C338.284 299.722 338.45 299.778 338.617 299.778H340.504C340.837 299.778 341.114 299.501 341.114 299.223V299.002L338.173 299.611ZM338.173 299.611C338.284 299.722 338.45 299.778 338.617 299.778H340.504C340.837 299.778 341.114 299.501 341.114 299.223V299.002L338.173 299.611ZM338.173 299.611C338.284 299.722 338.45 299.778 338.617 299.778H340.504C340.837 299.778 341.114 299.501 341.114 299.223V299.002L338.173 299.611ZM338.173 299.611C338.284 299.722 338.45 299.778 338.617 299.778H340.504C340.837 299.778 341.114 299.501 341.114 299.223V299.002L338.173 299.611ZM338.173 299.611C338.284 299.722 338.45 299.778 338.617 299.778H340.504C340.837 299.778 341.114 299.501 341.114 299.223V299.002L338.173 299.611ZM338.173 299.611C338.284 299.722 338.45 299.778 338.617 299.778H340.504C340.837 299.778 341.114 299.501 341.114 299.223V299.002L338.173 299.611ZM338.173 299.611C338.284 299.722 338.45 299.778 338.617 299.778H340.504C340.837 299.778 341.114 299.501 341.114 299.223V299.002L338.173 299.611ZM338.173 299.611C338.284 299.722 338.45 299.778 338.617 299.778H340.504C340.837 299.778 341.114 299.501 341.114 299.223V299.002L338.173 299.611ZM338.173 299.611C338.284 299.722 338.45 299.778 338.617 299.778H340.504C340.837 299.778 341.114 299.501 341.114 299.223V299.002L338.173 299.611ZM338.173 299.611C338.284 299.722 338.45 299.778 338.617 299.778H340.504C340.837 299.778 341.114 299.501 341.114 299.223V299.002L338.173 299.611ZM338.173 299.611C338.284 299.722 338.45 299.778 338.617 299.778H340.504C340.837 299.778 341.114 299.501 341.114 299.223V299.002L338.173 299.611ZM338.173 299.611C338.284 299.722 338.45 299.778 338.617 299.778H340.504C340.837 299.778 341.114 299.501 341.114 299.223V299.002L338.173 299.611ZM338.173 299.611C338.284 299.722 338.45 299.778 338.617 299.778H340.504C340.837 299.778 341.114 299.501 341.114 299.223V299.002L338.173 299.611ZM338.173 299.611C338.284 299.722 338.45 299.778 338.617 299.778H340.504C340.837 299.778 341.114 299.501 341.114 299.223V299.002L338.173 299.611ZM338.173 299.611C338.284 299.722 338.45 299.778 338.617 299.778H340.504C340.837 299.778 341.114 299.501 341.114 299.223V299.002L338.173 299.611ZM338.173 299.611C338.284 299.722 338.45 299.778 338.617 299.778H340.504C340.837 299.778 341.114 299.501 341.114 299.223V299.002L338.173 299.611ZM338.173 299.611C338.284 299.722 338.45 299.778 338.617 299.778H340.504C340.837 299.778 341.114 299.501 341.114 299.223V299.002L338.173 299.611ZM338.173 299.611C338.284 299.722 338.45 299.778 338.617 299.778H340.504C340.837 299.778 341.114 299.501 341.114 299.223V299.002L338.173 299.611ZM338.173 299.611C338.284 299.722 338.45 299.778 338.617 299.778H340.504C340.837 299.778 341.114 299.501 341.114 299.223V299.002L338.173 299.611ZM338.173 299.611C338.284 299.722 338.45 299.778 338.617 299.778H340.504C340.837 299.778 341.114 299.501 341.114 299.223V299.002L338.173 299.611ZM338.173 299.611C338.284 299.722 338.45 299.778 338.617 299.778H340.504C340.837 299.778 341.114 299.501 341.114 299.223V299.002L338.173 299.611ZM338.173 299.611C338.284 299.722 338.45 299.778 338.617 299.778H340.504C340.837 299.778 341.114 299.501 341.114 299.223V299.002L338.173 299.611ZM338.173 299.611C338.284 299.722 338.45 299.778 338.617 299.778H340.504C340.837 299.778 341.114 299.501 341.114 299.223V299.002L338.173 299.611ZM338.173 299.611C338.284 299.722 338.45 299.778 338.617 299.778H340.504C340.837 299.778 341.114 299.501 341.114 299.223V299.002L338.173 299.611ZM338.173 299.611C338.284 299.722 338.45 299.778 338.617 299.778H340.504C340.837 299.778 341.114 299.501 341.114 299.223V299.002L338.173 299.611ZM338.173 299.611C338.284 299.722 338.45 299.778 338.617 299.778H340.504C340.837 299.778 341.114 299.501 341.114 299.223V299.002L338.173 299.611ZM338.173 299.611C338.284 299.722 338.45 299.778 338.617 299.778H340.504C340.837 299.778 341.114 299.501 341.114 299.223V299.002L338.173 299.611ZM338.173 299.611C338.284 299.722 338.45 299.778 338.617 299.778H340.504C340.837 299.778 341.114 299.501 341.114 299.223V299.002L338.173 299.611ZM338.173 299.611C338.284 299.722 338.45 299.778 338.617 299.778H340.504C340.837 299.778 341.114 299.501 341.114 299.223V299.002L338.173 299.611ZM338.173 299.611C338.284 299.722 338.45 299.778 338.617 299.778H340.504C340.837 299.778 341.114 299.501 341.114 299.223V299.002L338.173 299.611ZM338.173 299.611C338.284 299.722 338.45 299.778 338.617 299.778H340.504C340.837 299.778 341.114 299.501 341.114 299.223V299.002L338.173 299.611ZM338.173 299.611C338.284 299.722 338.45 299.778 338.617 299.778H340.504C340.837 299.778 341.114 299.501 341.114 299.223V299.002L338.173 299.611ZM338.173 299.611C338.284 299.722 338.45 299.778 338.617 299.778H340.504C340.837 299.778 341.114 299.501 341.114 299.223V299.002L338.173 299.611ZM338.173 299.611C338.284 299.722 338.45 299.778 338.617 299.778H340.504C340.837 299.778 341.114 299.501 341.114 299.223V299.002L338.173 299.611ZM338.173 299.611C338.284 299.722 338.45 299.778 338.617 299.778H340.504C340.837 299.778 341.114 299.501 341.114 299.223V299.002L338.173 299.611ZM338.173 299.611C338.284 299.722 338.45 299.778 338.617 299.778H340.504C340.837 299.778 341.114 299.501 341.114 299.223V299.002L338.173 299.611ZM338.173 299.611C338.284 299.722 338.45 299.778 338.617 299.778H340.504C340.837 299.778 341.114 299.501 341.114 299.223V299.002L338.173 299.611ZM338.173 299.611C338.284 299.722 338.45 299.778 338.617 299.778H340.504C340.837 299.778 341.114 299.501 341.114 299.223V299.002L338.173 299.611ZM338.173 299.611C338.284 299.722 338.45 299.778 338.617 299.778H340.504C340.837 299.778 341.114 299.501 341.114 299.223V299.002L338.173 299.611ZM338.173 299.611C338.284 299.722 338.45 299.778 338.617 299.778H340.504C340.837 299.778 341.114 299.501 341.114 299.223V299.002L338.173 299.611ZM338.173 299.611C338.284 299.722 338.45 299.778 338.617 299.778H340.504C340.837 299.778 341.114 299.501 341.114 299.223V299.002L338.173 299.611ZM338.173 299.611C338.284 299.722 338.45 299.778 338.617 299.778H340.504C340.837 299.778 341.114 299.501 341.114 299.223V299.002L338.173 299.611ZM338.173 299.611C338.284 299.722 338.45 299.778 338.617 299.778H340.504C340.837 299.778 341.114 299.501 341.114 299.223V299.002L338.173 299.611ZM338.173 299.611C338.284 299.722 338.45 299.778 338.617 299.778H340.504C340.837 299.778 341.114 299.501 341.114 299.223V299.002L338.173 299.611ZM338.173 299.611C338.284 299.722 338.45 299.778 338.617 299.778H340.504C340.837 299.778 341.114 299.501 341.114 299.223V299.002L338.173 299.611Z" fill="#202347"/>
<path d="M38.2132 76.3867L41.0431 79.7673C25.6732 91.7929 20.513 101.491 19.5142 103.764C19.5697 103.542 19.6806 103.209 19.7916 102.877C21.9556 95.4508 27.1714 89.2438 32.1097 83.3698C34.1073 80.9864 36.1603 78.6589 38.2132 76.3867Z" fill="#EA5F23"/>
<path d="M56.3006 69.4063C50.8629 72.676 46.202 75.8902 42.2069 78.9383L39.0442 75.5578C43.2056 70.9581 47.6446 66.5245 52.1946 62.3682L56.3006 69.4063Z" fill="#EA5F23"/>
<path d="M72.9457 60.4241C67.5635 63.0288 62.7361 65.578 58.3526 68.1273L53.4143 61.2C58.0752 56.9327 62.9026 52.9426 67.9518 49.2295L72.9457 60.4241Z" fill="#EA5F23"/>
<path d="M331.736 159.904C331.736 159.904 304.104 160.403 271.256 170.489C270.812 170.599 270.09 166.665 268.371 160.071L326.299 141.893L265.208 149.263C264.93 148.432 264.653 147.545 264.376 146.659L319.585 122.884L260.658 136.24C260.38 135.631 260.158 134.965 259.881 134.301L312.483 104.264L255.497 124.104C255.109 123.272 254.665 122.386 254.276 121.554L301.607 87.5273L249.338 112.078C248.895 111.357 248.506 110.637 248.062 109.861L288.623 72.8969L242.791 101.326C242.402 100.717 242.014 100.163 241.626 99.6083C240.904 98.5003 240.072 97.447 239.184 96.339L275.14 59.6518L232.97 89.2452C231.916 88.1372 230.806 87.0839 229.696 85.9759L259.271 49.3439L223.26 80.1012C221.817 78.8267 220.374 77.6075 218.931 76.3883L241.903 39.3686L212.828 71.3451C210.997 69.9042 208.833 68.408 206.558 66.9671L224.813 31.5545L200.122 63.3095C197.791 62.0903 195.349 60.871 192.797 59.7072L207.057 25.5694L186.471 56.9917C183.642 55.8279 180.757 54.7196 177.871 53.7774L187.803 19.4733L171.601 51.7269C168.66 50.8403 165.72 50.009 162.835 49.2885L164.888 18.1987L157.73 48.1802C155.122 47.6259 152.624 47.238 150.239 46.961C148.629 46.7947 146.743 46.6284 144.801 46.573L144.634 18.1433L139.973 46.573C136.034 46.573 131.65 46.7947 127.156 47.1272L124.382 22.2997L122.939 47.4597C118.278 47.903 113.618 48.4572 109.123 49.1223L104.851 28.1186C123.272 20.4154 143.359 16.0928 164.998 16.0928C249.116 16.0928 321.749 78.5496 331.736 159.904Z" fill="#EA5F23"/>
<path d="M329.519 218.554C329.58 218.493 329.58 218.432 329.641 218.372C329.641 218.493 329.58 218.554 329.519 218.554Z" fill="#E6E7ED"/>
<path d="M331.962 205.843C331.962 205.899 331.795 205.954 331.629 206.009C331.296 205.843 331.351 205.788 331.962 205.843Z" fill="#BCBDC0"/>
<path d="M303.272 229.231C303.105 229.841 302.939 230.506 302.772 231.116C302.939 230.118 303.05 229.508 303.216 229.342C303.216 229.287 303.272 229.287 303.272 229.231Z" fill="#E6E7ED"/>
<path d="M329.63 218.372C329.63 218.261 329.575 217.873 329.464 217.318C329.686 217.706 329.741 218.039 329.63 218.372Z" fill="#E6E7ED"/>
<path d="M326.986 239.151C327.042 239.207 327.153 239.262 327.264 239.262H328.484C328.706 239.262 328.873 239.096 328.873 238.875V238.708L326.986 239.151Z" fill="#E6E7ED"/>
<path d="M396.9 271.853L396.678 272.185C396.734 272.074 396.734 271.963 396.789 271.853H396.9Z" fill="#BABBC0"/>
<path d="M295.91 239.039C295.965 239.095 296.021 239.151 296.132 239.151H297.075C297.242 239.151 297.353 239.039 297.353 238.873V238.763L295.91 239.039Z" fill="#E6E7ED"/>
<path d="M295.91 239.039C295.965 239.095 296.021 239.151 296.132 239.151H297.075C297.242 239.151 297.353 239.039 297.353 238.873V238.763L295.91 239.039Z" fill="#E6E7ED"/>
</svg>
