<svg width="460" height="352" viewBox="0 0 460 352" fill="none" xmlns="http://www.w3.org/2000/svg">
<path d="M91.6766 39.9033C91.0273 40.1394 90.378 40.3755 89.7877 40.6117C85.4785 42.3826 81.4055 44.1534 77.5686 45.9243L70.7802 34.2365C76.388 30.1044 82.1729 26.3265 88.1939 22.8438L91.6766 39.9033Z" fill="white"/>
<path d="M108.441 35.9491C103.423 36.8345 98.9372 37.779 95.1593 38.8415L89.4924 22.1952C95.3364 18.8305 101.416 15.879 107.674 13.2227L108.441 35.9491Z" fill="white"/>
<path d="M459.785 214.808C459.844 214.749 459.903 214.631 459.903 214.572C459.903 214.749 459.844 214.808 459.785 214.808Z" fill="white"/>
<path d="M419.645 231.219C419.409 232.163 419.173 233.108 418.878 234.052C419.114 232.576 419.35 231.632 419.527 231.337C419.527 231.278 419.586 231.278 419.645 231.219Z" fill="white"/>
<path d="M459.903 214.513C459.844 214.336 459.785 213.745 459.667 212.919C460.021 213.509 460.08 214.04 459.903 214.513Z" fill="white"/>
<path d="M136.421 45.8063C215.993 41.261 274.904 119.239 268.765 170.831L136.421 45.8063Z" fill="white"/>
<path d="M268.765 170.831C245.744 174.078 171.249 228.857 171.249 228.857C171.249 228.857 99.1734 277.438 42.2688 273.424C11.0422 259.021 -0.232495 200.7 0.00362354 181.633C0.889068 115.638 49.1753 51.0008 138.723 45.8652" fill="white"/>
<path d="M319.708 227.027C319.531 227.676 319.354 228.385 319.177 229.034C308.315 267.226 273.842 294.498 231.577 301.404C226.382 302.29 221.365 303.116 216.465 303.943C216.17 304.002 215.875 304.061 215.58 304.061C215.108 304.12 214.753 304.179 214.517 304.238C180.634 309.964 153.835 314.745 132.112 315.04C81.9958 315.748 44.2759 276.612 49.4115 279.032C75.9748 299.87 147.164 276.612 185.829 252.41C202.711 241.843 219.535 231.631 235.709 222.718C235.768 222.659 235.827 222.6 235.886 222.6C268.411 204.596 298.398 191.491 321.833 189.779C323.604 203.002 322.719 215.516 319.708 227.027Z" fill="white"/>
<path d="M440.718 311.499H454.827C454.945 311.499 455.004 311.499 455.122 311.499C455.122 310.79 455.122 310.082 455.063 309.373L367.286 310.731C362.74 310.967 358.549 308.96 356.719 302.054H356.896C356.778 301.936 356.719 301.818 356.719 301.641V261.441C356.719 261.087 357.014 260.792 357.369 260.792H359.376C359.73 260.792 360.025 261.087 360.025 261.441V301.404C361.324 306.717 363.685 306.186 370.06 307.012C370.473 307.071 370.886 307.13 371.182 307.189H455.063C454.649 298.63 453.41 289.362 453.41 280.921C453.41 262.622 452.583 243.91 446.503 229.683C445.028 226.201 452.465 223.899 450.34 220.947C446.74 215.989 441.191 213.805 434.461 211.797C423.01 208.315 410.672 196.037 399.103 191.078C381.807 183.64 362.917 177.855 342.375 177.855C313.628 177.855 272.307 200.464 235.945 222.6C235.886 222.659 235.827 222.718 235.768 222.718C195.805 247.215 183.586 309.432 214.576 304.297C214.871 304.238 215.225 304.179 215.639 304.12C215.934 304.061 216.17 304.002 216.524 304.002C222.368 303.116 236.771 301.286 244.622 302.231C273.37 305.714 281.457 309.551 291.728 319.349C299.638 326.964 309.732 345.972 319.944 349.159C329.507 352.17 333.462 351.462 344.382 350.93C358.195 350.281 351.407 341.308 362.504 341.308C376.553 341.308 384.581 341.663 395.856 341.308C400.992 341.19 404.002 348.51 408.606 348.628C414.745 348.805 418.7 349.277 422.301 347.684C426.728 345.677 427.673 341.308 430.565 339.715C435.288 337.058 439.656 340.128 444.26 337.885C445.559 337.235 446.917 336.291 448.274 334.874H440.955C440.069 334.874 439.302 334.166 439.302 333.221V329.03C439.302 328.145 440.01 327.377 440.955 327.377H448.392C449.278 327.377 450.045 328.086 450.045 329.03V332.749C450.813 331.746 451.521 330.624 452.229 329.325C452.997 327.968 453.587 326.492 453.941 324.898L453.292 325.961L433.93 326.197C433.93 326.256 433.989 326.374 433.989 326.433V328.322C433.989 328.735 433.694 328.971 433.34 328.971H416.989C416.575 328.971 416.339 328.676 416.339 328.322V326.433C416.339 326.433 416.339 326.433 416.339 326.374H414.214C414.214 326.433 414.214 326.492 414.214 326.551V328.204C414.214 328.676 413.86 329.03 413.388 329.03H397.332C396.859 329.03 396.505 328.676 396.505 328.204V326.669L357.251 327.141H355.775C352.469 327.2 346.389 327.141 345.031 326.905C339.542 325.725 337.594 322.065 337.358 319.468V318.759L337.122 310.082L334.701 297.981C334.406 297.568 334.111 297.095 333.816 296.446C332.635 293.79 329.389 291.133 325.67 291.251C323.072 291.31 320.18 291.547 318.94 290.838C318.822 290.779 318.763 290.72 318.645 290.602C318.586 290.543 318.527 290.484 318.468 290.425C314.69 285.053 317.642 239.246 319.295 229.093C319.472 228.444 319.708 227.736 319.826 227.086C320.121 226.732 320.593 226.673 321.065 226.732C326.614 224.607 341.431 217.11 342.552 216.284C343.143 215.812 343.91 214.749 343.792 214.218C342.847 213.155 341.195 209.141 341.076 206.426C340.958 204.714 341.076 203.474 341.076 201.231C341.076 198.752 341.076 196.627 342.729 194.679C345.031 191.905 349.164 191.137 352.646 190.488C357.192 189.661 360.91 189.898 361.737 189.957C369.116 190.429 381.099 190.901 396.859 191.55C398.453 193.557 398.571 196.568 397.155 196.332C386.647 194.856 362.15 191.255 349.459 194.679C346.389 195.505 344.323 202.53 346.035 206.249C346.684 207.665 347.393 212.211 347.747 214.395C347.865 214.985 347.865 215.398 347.924 215.516C347.924 215.575 347.865 215.634 347.806 215.693C347.747 215.812 347.629 215.93 347.511 216.048C345.386 217.819 325.198 227.204 323.663 228.385C323.427 228.562 323.191 228.621 323.013 228.621C322.305 237.239 320.475 275.254 321.597 287.592C321.597 287.71 321.597 287.769 321.597 287.887C321.656 287.887 321.715 287.946 321.774 287.946C323.604 288.89 328.267 288.241 329.743 288.123C336.236 287.71 340.604 293.494 340.958 296.328L342.139 306.953L344.559 317.815V317.874C344.736 318.169 344.913 318.523 345.09 318.936C346.094 321.652 348.927 323.954 352.587 324.013C353.768 324.013 354.771 324.072 355.716 324.131L454.059 324.308C454.295 323.541 454.472 322.655 454.59 321.829H440.837C439.951 321.829 439.184 321.12 439.184 320.176V313.151C439.125 312.266 439.833 311.499 440.718 311.499ZM416.162 331.51C416.162 331.037 416.516 330.683 416.989 330.683H433.045C433.517 330.683 433.871 331.037 433.871 331.51V333.162C433.871 333.635 433.517 333.989 433.045 333.989H416.989C416.516 333.989 416.162 333.635 416.162 333.162V331.51ZM396.387 331.51C396.387 331.037 396.741 330.683 397.214 330.683H413.211C413.683 330.683 414.037 331.037 414.037 331.51V333.162C414.037 333.635 413.683 333.989 413.211 333.989H397.155C396.682 333.989 396.328 333.635 396.328 333.162V331.51H396.387ZM374.605 329.03C374.605 328.145 375.314 327.377 376.258 327.377H383.696C384.581 327.377 385.349 328.086 385.349 329.03V333.221C385.349 334.107 384.64 334.874 383.696 334.874H376.258C375.373 334.874 374.605 334.166 374.605 333.221V329.03ZM329.507 314.627C333.108 314.627 336 320.707 336 328.145C336 335.642 333.108 341.663 329.507 341.663C325.906 341.663 323.013 335.583 323.013 328.145C322.954 320.707 325.906 314.627 329.507 314.627ZM335.587 258.903C335.587 259.552 335.174 260.084 334.642 260.32L330.156 261.973C329.034 262.386 327.854 261.559 327.854 260.379V233.697C327.854 233.107 328.208 232.517 328.798 232.34L333.521 230.333C334.524 229.92 335.587 230.628 335.587 231.69V258.903ZM358.962 255.775L360.379 223.84C360.379 221.478 365.633 224.43 367.994 224.43L408.724 227.086C409.61 227.204 422.183 229.27 419.999 231.69L418.582 255.302C418.582 257.664 417.52 259.966 415.159 259.966L363.862 258.962C363.154 259.021 358.962 256.483 358.962 255.775ZM451.875 300.755C451.875 301.641 451.167 302.408 450.222 302.408H367.168C366.282 302.408 365.515 301.7 365.515 300.755V296.682C365.515 295.797 366.223 295.029 367.168 295.029H450.222C451.108 295.029 451.875 295.738 451.875 296.682V300.755ZM451.875 291.487C451.875 292.373 451.167 293.14 450.222 293.14H367.168C366.282 293.14 365.515 292.432 365.515 291.487V287.414C365.515 286.529 366.223 285.762 367.168 285.762H450.222C451.108 285.762 451.875 286.47 451.875 287.414V291.487ZM450.222 271.299C451.108 271.299 451.875 272.008 451.875 272.952V282.102C451.875 282.987 451.167 283.755 450.222 283.755H367.168C366.282 283.755 365.515 283.046 365.515 282.102V272.952C365.515 272.067 366.223 271.299 367.168 271.299H450.222ZM422.065 255.184V236.354C422.065 235.764 422.537 235.291 423.128 235.291H423.659C424.249 235.291 424.721 235.764 424.721 236.354V255.184C424.721 255.775 424.249 256.247 423.659 256.247H423.128C422.537 256.247 422.065 255.775 422.065 255.184ZM431.097 257.427V234.288C431.097 233.697 431.569 233.225 432.159 233.225H434.638C435.229 233.225 435.701 233.697 435.701 234.288V257.427C435.701 258.018 435.229 258.49 434.638 258.49H432.159C431.569 258.49 431.097 258.018 431.097 257.427ZM354.712 253.827C354.712 254.476 354.299 255.066 353.65 255.243L340.722 258.49C339.837 258.726 339.07 258.018 339.07 257.073V229.388C339.07 228.798 339.365 228.326 339.837 228.031L352.764 221.596C353.65 221.124 354.712 221.892 354.712 222.954V253.827ZM349.813 202.353C349.813 202.353 349.872 202.353 349.813 202.353H349.872C351.289 203.12 358.903 205.363 358.903 205.363C361.619 206.544 367.758 205.836 385.467 207.311C402.467 208.669 409.374 206.367 423.364 209.613C425.371 210.086 435.76 213.332 435.76 213.391C427.496 212.447 374.605 209.082 356.896 209.318C354.004 209.377 348.868 203.592 349.813 202.353ZM385.29 320.176C385.29 321.061 384.581 321.829 383.637 321.829H369.529C368.643 321.829 367.876 321.12 367.876 320.176V313.151C367.876 312.266 368.584 311.499 369.529 311.499H383.696C384.581 311.499 385.349 312.207 385.349 313.151V320.176H385.29ZM433.812 320.176C433.812 321.061 433.104 321.829 432.159 321.829H397.922C397.037 321.829 396.269 321.12 396.269 320.176V318.287C396.269 317.401 396.978 316.634 397.922 316.634H432.159C433.045 316.634 433.812 317.342 433.812 318.287V320.176ZM356.837 301.995C356.955 302.113 357.133 302.172 357.31 302.172H359.317C359.671 302.172 359.966 301.877 359.966 301.582V301.345L356.837 301.995ZM356.837 301.995C356.955 302.113 357.133 302.172 357.31 302.172H359.317C359.671 302.172 359.966 301.877 359.966 301.582V301.345L356.837 301.995ZM356.837 301.995C356.955 302.113 357.133 302.172 357.31 302.172H359.317C359.671 302.172 359.966 301.877 359.966 301.582V301.345L356.837 301.995ZM356.837 301.995C356.955 302.113 357.133 302.172 357.31 302.172H359.317C359.671 302.172 359.966 301.877 359.966 301.582V301.345L356.837 301.995ZM356.837 301.995C356.955 302.113 357.133 302.172 357.31 302.172H359.317C359.671 302.172 359.966 301.877 359.966 301.582V301.345L356.837 301.995ZM356.837 301.995C356.955 302.113 357.133 302.172 357.31 302.172H359.317C359.671 302.172 359.966 301.877 359.966 301.582V301.345L356.837 301.995ZM356.837 301.995C356.955 302.113 357.133 302.172 357.31 302.172H359.317C359.671 302.172 359.966 301.877 359.966 301.582V301.345L356.837 301.995ZM356.837 301.995C356.955 302.113 357.133 302.172 357.31 302.172H359.317C359.671 302.172 359.966 301.877 359.966 301.582V301.345L356.837 301.995ZM356.837 301.995C356.955 302.113 357.133 302.172 357.31 302.172H359.317C359.671 302.172 359.966 301.877 359.966 301.582V301.345L356.837 301.995ZM356.837 301.995C356.955 302.113 357.133 302.172 357.31 302.172H359.317C359.671 302.172 359.966 301.877 359.966 301.582V301.345L356.837 301.995ZM356.837 301.995C356.955 302.113 357.133 302.172 357.31 302.172H359.317C359.671 302.172 359.966 301.877 359.966 301.582V301.345L356.837 301.995ZM356.837 301.995C356.955 302.113 357.133 302.172 357.31 302.172H359.317C359.671 302.172 359.966 301.877 359.966 301.582V301.345L356.837 301.995ZM356.837 301.995C356.955 302.113 357.133 302.172 357.31 302.172H359.317C359.671 302.172 359.966 301.877 359.966 301.582V301.345L356.837 301.995ZM356.837 301.995C356.955 302.113 357.133 302.172 357.31 302.172H359.317C359.671 302.172 359.966 301.877 359.966 301.582V301.345L356.837 301.995ZM356.837 301.995C356.955 302.113 357.133 302.172 357.31 302.172H359.317C359.671 302.172 359.966 301.877 359.966 301.582V301.345L356.837 301.995ZM356.837 301.995C356.955 302.113 357.133 302.172 357.31 302.172H359.317C359.671 302.172 359.966 301.877 359.966 301.582V301.345L356.837 301.995ZM356.837 301.995C356.955 302.113 357.133 302.172 357.31 302.172H359.317C359.671 302.172 359.966 301.877 359.966 301.582V301.345L356.837 301.995ZM356.837 301.995C356.955 302.113 357.133 302.172 357.31 302.172H359.317C359.671 302.172 359.966 301.877 359.966 301.582V301.345L356.837 301.995ZM356.837 301.995C356.955 302.113 357.133 302.172 357.31 302.172H359.317C359.671 302.172 359.966 301.877 359.966 301.582V301.345L356.837 301.995ZM356.837 301.995C356.955 302.113 357.133 302.172 357.31 302.172H359.317C359.671 302.172 359.966 301.877 359.966 301.582V301.345L356.837 301.995ZM356.837 301.995C356.955 302.113 357.133 302.172 357.31 302.172H359.317C359.671 302.172 359.966 301.877 359.966 301.582V301.345L356.837 301.995ZM356.837 301.995C356.955 302.113 357.133 302.172 357.31 302.172H359.317C359.671 302.172 359.966 301.877 359.966 301.582V301.345L356.837 301.995ZM356.837 301.995C356.955 302.113 357.133 302.172 357.31 302.172H359.317C359.671 302.172 359.966 301.877 359.966 301.582V301.345L356.837 301.995ZM356.837 301.995C356.955 302.113 357.133 302.172 357.31 302.172H359.317C359.671 302.172 359.966 301.877 359.966 301.582V301.345L356.837 301.995ZM356.837 301.995C356.955 302.113 357.133 302.172 357.31 302.172H359.317C359.671 302.172 359.966 301.877 359.966 301.582V301.345L356.837 301.995ZM356.837 301.995C356.955 302.113 357.133 302.172 357.31 302.172H359.317C359.671 302.172 359.966 301.877 359.966 301.582V301.345L356.837 301.995ZM356.837 301.995C356.955 302.113 357.133 302.172 357.31 302.172H359.317C359.671 302.172 359.966 301.877 359.966 301.582V301.345L356.837 301.995ZM356.837 301.995C356.955 302.113 357.133 302.172 357.31 302.172H359.317C359.671 302.172 359.966 301.877 359.966 301.582V301.345L356.837 301.995ZM356.837 301.995C356.955 302.113 357.133 302.172 357.31 302.172H359.317C359.671 302.172 359.966 301.877 359.966 301.582V301.345L356.837 301.995ZM356.837 301.995C356.955 302.113 357.133 302.172 357.31 302.172H359.317C359.671 302.172 359.966 301.877 359.966 301.582V301.345L356.837 301.995ZM356.837 301.995C356.955 302.113 357.133 302.172 357.31 302.172H359.317C359.671 302.172 359.966 301.877 359.966 301.582V301.345L356.837 301.995ZM356.837 301.995C356.955 302.113 357.133 302.172 357.31 302.172H359.317C359.671 302.172 359.966 301.877 359.966 301.582V301.345L356.837 301.995ZM356.837 301.995C356.955 302.113 357.133 302.172 357.31 302.172H359.317C359.671 302.172 359.966 301.877 359.966 301.582V301.345L356.837 301.995ZM356.837 301.995C356.955 302.113 357.133 302.172 357.31 302.172H359.317C359.671 302.172 359.966 301.877 359.966 301.582V301.345L356.837 301.995ZM356.837 301.995C356.955 302.113 357.133 302.172 357.31 302.172H359.317C359.671 302.172 359.966 301.877 359.966 301.582V301.345L356.837 301.995ZM356.837 301.995C356.955 302.113 357.133 302.172 357.31 302.172H359.317C359.671 302.172 359.966 301.877 359.966 301.582V301.345L356.837 301.995ZM356.837 301.995C356.955 302.113 357.133 302.172 357.31 302.172H359.317C359.671 302.172 359.966 301.877 359.966 301.582V301.345L356.837 301.995ZM356.837 301.995C356.955 302.113 357.133 302.172 357.31 302.172H359.317C359.671 302.172 359.966 301.877 359.966 301.582V301.345L356.837 301.995ZM356.837 301.995C356.955 302.113 357.133 302.172 357.31 302.172H359.317C359.671 302.172 359.966 301.877 359.966 301.582V301.345L356.837 301.995ZM356.837 301.995C356.955 302.113 357.133 302.172 357.31 302.172H359.317C359.671 302.172 359.966 301.877 359.966 301.582V301.345L356.837 301.995ZM356.837 301.995C356.955 302.113 357.133 302.172 357.31 302.172H359.317C359.671 302.172 359.966 301.877 359.966 301.582V301.345L356.837 301.995ZM356.837 301.995C356.955 302.113 357.133 302.172 357.31 302.172H359.317C359.671 302.172 359.966 301.877 359.966 301.582V301.345L356.837 301.995ZM356.837 301.995C356.955 302.113 357.133 302.172 357.31 302.172H359.317C359.671 302.172 359.966 301.877 359.966 301.582V301.345L356.837 301.995ZM356.837 301.995C356.955 302.113 357.133 302.172 357.31 302.172H359.317C359.671 302.172 359.966 301.877 359.966 301.582V301.345L356.837 301.995ZM356.837 301.995C356.955 302.113 357.133 302.172 357.31 302.172H359.317C359.671 302.172 359.966 301.877 359.966 301.582V301.345L356.837 301.995Z" fill="white"/>
<path d="M37.7235 64.2246L40.7341 67.8254C24.3829 80.6348 18.8931 90.965 17.8306 93.3852C17.8896 93.1491 18.0077 92.7949 18.1257 92.4408C20.4279 84.5308 25.9767 77.9195 31.2303 71.6623C33.3554 69.1241 35.5395 66.6448 37.7235 64.2246Z" fill="white"/>
<path d="M56.9672 56.7868C51.1823 60.2695 46.2238 63.6933 41.9737 66.9399L38.609 63.3391C43.0362 58.4396 47.7586 53.7173 52.599 49.29L56.9672 56.7868Z" fill="white"/>
<path d="M74.6761 47.2238C68.9503 49.9982 63.8147 52.7135 59.1513 55.4289L53.8977 48.0502C58.8562 43.5049 63.9918 39.2548 69.3635 35.2998L74.6761 47.2238Z" fill="white"/>
<path d="M349.99 153.182C349.99 153.182 320.594 153.713 285.648 164.456C285.176 164.575 284.408 160.383 282.578 153.359L344.205 133.997L279.214 141.848C278.919 140.963 278.623 140.018 278.328 139.074L337.063 113.75L274.373 127.976C274.078 127.327 273.842 126.619 273.547 125.91L329.507 93.9161L268.884 115.049C268.47 114.163 267.998 113.219 267.585 112.333L317.937 76.0892L262.331 102.239C261.859 101.472 261.446 100.705 260.974 99.8781L304.124 60.5053L255.366 90.7875C254.953 90.1382 254.539 89.5479 254.126 88.9576C253.359 87.777 252.473 86.6555 251.529 85.4749L289.78 46.3973L244.918 77.9191C243.796 76.7385 242.615 75.6169 241.435 74.4363L272.898 35.4178L234.587 68.1792C233.053 66.8215 231.518 65.5229 229.983 64.2242L254.421 24.7924L223.49 58.8525C221.542 57.3177 219.24 55.724 216.819 54.1892L236.24 16.4693L209.972 50.2932C207.493 48.9946 204.895 47.6959 202.18 46.4563L217.351 10.0941L195.451 43.5639C192.44 42.3242 189.371 41.1436 186.301 40.1401L196.867 3.60081L179.631 37.956C176.502 37.0116 173.374 36.1261 170.304 35.3587L172.488 2.24313L164.873 34.1781C162.099 33.5878 159.443 33.1746 156.904 32.8795C155.193 32.7024 153.186 32.5253 151.119 32.4663L150.942 2.1841L145.984 32.4663C141.793 32.4663 137.129 32.7024 132.348 33.0566L129.397 6.61132L127.862 33.4108C122.903 33.883 117.945 34.4733 113.163 35.1816L108.618 12.8094C128.216 4.60431 149.585 0 172.606 0C262.095 0 339.365 66.5264 349.99 153.182Z" fill="white"/>
<path d="M347.629 215.635C347.688 215.576 347.688 215.517 347.747 215.458C347.747 215.576 347.688 215.635 347.629 215.635Z" fill="white"/>
<path d="M350.226 202.118C350.226 202.177 350.049 202.236 349.872 202.295C349.518 202.118 349.577 202.059 350.226 202.118Z" fill="white"/>
<path d="M319.708 227.027C319.531 227.677 319.354 228.385 319.177 229.034C319.354 227.972 319.472 227.322 319.649 227.145C319.649 227.086 319.708 227.086 319.708 227.027Z" fill="white"/>
<path d="M347.747 215.457C347.747 215.339 347.688 214.926 347.57 214.336C347.806 214.749 347.865 215.103 347.747 215.457Z" fill="white"/>
<path d="M327.795 237.593C327.854 237.652 327.972 237.711 328.09 237.711H329.389C329.625 237.711 329.802 237.534 329.802 237.298V237.121L327.795 237.593Z" fill="white"/>
<path d="M402.172 272.422L401.936 272.776C401.995 272.658 401.995 272.54 402.054 272.422H402.172Z" fill="white"/>
<path d="M294.739 237.477C294.798 237.536 294.857 237.595 294.975 237.595H295.978C296.155 237.595 296.273 237.477 296.273 237.3V237.182L294.739 237.477Z" fill="white"/>
<path d="M294.739 237.477C294.798 237.536 294.857 237.595 294.975 237.595H295.978C296.155 237.595 296.273 237.477 296.273 237.3V237.182L294.739 237.477Z" fill="white"/>
</svg>
