<svg width="460" height="325" viewBox="0 0 460 325" fill="none" xmlns="http://www.w3.org/2000/svg">
<g clip-path="url(#clip0_759_344)">
<path d="M321.984 219.742C322.038 219.797 322.148 219.852 322.257 219.852H323.459C323.677 219.852 323.841 219.688 323.841 219.469V219.306L321.984 219.742Z" fill="#E6E7ED"/>
<path d="M390.828 251.953L390.609 252.281C390.664 252.171 390.664 252.062 390.719 251.953H390.828Z" fill="#BABBC0"/>
<path d="M291.386 219.633C291.441 219.688 291.496 219.742 291.605 219.742H292.534C292.698 219.742 292.807 219.633 292.807 219.47V219.36L291.386 219.633Z" fill="#E6E7ED"/>
<path d="M291.386 219.633C291.441 219.688 291.496 219.742 291.605 219.742H292.534C292.698 219.742 292.807 219.633 292.807 219.47V219.36L291.386 219.633Z" fill="#E6E7ED"/>
<path d="M103.43 36.9057C102.829 37.1241 102.228 37.3424 101.682 37.5608C97.6933 39.1987 93.9233 40.8365 90.3718 42.4743L84.0884 31.6646C89.279 27.843 94.6336 24.349 100.207 21.1279L103.43 36.9057Z" fill="#EA5F23"/>
<path d="M118.948 33.2483C114.303 34.0672 110.151 34.9407 106.654 35.9234L101.409 20.5278C106.818 17.416 112.446 14.6862 118.237 12.2295L118.948 33.2483Z" fill="#EA5F23"/>
<path d="M444.155 198.669C444.21 198.614 444.264 198.505 444.264 198.45C444.264 198.614 444.21 198.669 444.155 198.669Z" fill="#E6E7ED"/>
<path d="M407.001 213.846C406.782 214.719 406.564 215.593 406.291 216.466C406.509 215.101 406.728 214.228 406.892 213.955C406.892 213.9 406.946 213.9 407.001 213.846Z" fill="#E6E7ED"/>
<path d="M444.264 198.396C444.21 198.232 444.155 197.686 444.046 196.922C444.373 197.468 444.428 197.959 444.264 198.396Z" fill="#E6E7ED"/>
<path d="M144.846 42.3653C218.499 38.1615 273.028 110.281 267.345 157.996L144.846 42.3653Z" fill="#EA5F23"/>
<path d="M267.345 157.996C246.036 160.999 177.083 211.662 177.083 211.662C177.083 211.662 110.369 256.593 57.6981 252.881C28.7945 239.56 18.3585 185.621 18.5771 167.987C19.3967 106.95 64.0908 47.1696 146.977 42.4199" fill="#EA5F23"/>
<path d="M314.498 209.97C314.334 210.571 314.171 211.226 314.007 211.827C303.953 247.149 272.044 272.372 232.923 278.759C228.115 279.578 223.471 280.343 218.936 281.107C218.663 281.161 218.39 281.216 218.116 281.216C217.679 281.271 217.351 281.325 217.133 281.38C185.77 286.675 160.965 291.098 140.858 291.371C94.4698 292.026 59.5559 255.83 64.3095 258.068C88.8967 277.34 154.791 255.83 190.579 233.446C206.205 223.674 221.777 214.229 236.748 205.985C236.803 205.931 236.857 205.876 236.912 205.876C267.018 189.225 294.774 177.105 316.465 175.521C318.105 187.751 317.285 199.325 314.498 209.97Z" fill="#202347"/>
<path d="M426.507 288.095H439.565C439.675 288.095 439.729 288.095 439.839 288.095C439.839 287.44 439.839 286.784 439.784 286.129L358.537 287.385C354.33 287.603 350.45 285.747 348.757 279.36H348.92C348.811 279.25 348.757 279.141 348.757 278.977V241.799C348.757 241.471 349.03 241.198 349.358 241.198H351.215C351.543 241.198 351.816 241.471 351.816 241.799V278.759C353.018 283.673 355.204 283.181 361.105 283.946C361.487 284 361.87 284.055 362.143 284.109H439.784C439.402 276.193 438.254 267.622 438.254 259.815C438.254 242.891 437.489 225.584 431.861 212.427C430.496 209.206 437.38 207.077 435.413 204.347C432.08 199.761 426.944 197.741 420.715 195.885C410.115 192.664 398.696 181.308 387.987 176.722C371.978 169.843 354.494 164.493 335.479 164.493C308.871 164.493 270.624 185.403 236.967 205.876C236.912 205.93 236.857 205.985 236.803 205.985C199.813 228.641 188.502 286.184 217.188 281.434C217.461 281.38 217.789 281.325 218.171 281.27C218.444 281.216 218.663 281.161 218.991 281.161C224.4 280.342 237.732 278.65 244.998 279.523C271.607 282.744 279.093 286.293 288.6 295.356C295.921 302.398 305.264 319.978 314.717 322.926C323.568 325.71 327.229 325.055 337.337 324.564C350.123 323.963 343.839 315.665 354.111 315.665C367.115 315.665 374.546 315.992 384.982 315.665C389.735 315.556 392.522 322.325 396.784 322.435C402.466 322.598 406.127 323.035 409.46 321.561C413.558 319.705 414.432 315.665 417.109 314.191C421.48 311.734 425.523 314.573 429.785 312.498C430.987 311.898 432.244 311.024 433.501 309.714H426.725C425.906 309.714 425.196 309.059 425.196 308.185V304.309C425.196 303.49 425.851 302.781 426.725 302.781H433.61C434.429 302.781 435.14 303.436 435.14 304.309V307.749C435.85 306.821 436.506 305.783 437.161 304.582C437.872 303.327 438.418 301.962 438.746 300.488L438.145 301.47L420.223 301.689C420.223 301.743 420.278 301.852 420.278 301.907V303.654C420.278 304.036 420.005 304.255 419.677 304.255H404.542C404.16 304.255 403.941 303.982 403.941 303.654V301.907C403.941 301.907 403.941 301.907 403.941 301.853H401.974C401.974 301.907 401.974 301.962 401.974 302.016V303.545C401.974 303.982 401.646 304.309 401.209 304.309H386.348C385.911 304.309 385.583 303.982 385.583 303.545V302.125L349.248 302.562H347.882C344.823 302.617 339.195 302.562 337.938 302.344C332.857 301.252 331.054 297.867 330.835 295.465V294.81L330.617 286.784L328.377 275.593C328.103 275.21 327.83 274.774 327.557 274.173C326.464 271.716 323.459 269.26 320.017 269.369C317.613 269.423 314.935 269.642 313.788 268.987C313.679 268.932 313.624 268.878 313.515 268.768C313.46 268.714 313.406 268.659 313.351 268.605C309.854 263.636 312.586 221.271 314.116 211.881C314.28 211.281 314.498 210.625 314.608 210.025C314.881 209.697 315.318 209.643 315.755 209.697C320.891 207.732 334.605 200.798 335.643 200.034C336.19 199.597 336.9 198.615 336.791 198.123C335.917 197.141 334.387 193.428 334.277 190.917C334.168 189.334 334.277 188.187 334.277 186.113C334.277 183.82 334.277 181.854 335.807 180.053C337.938 177.487 341.763 176.777 344.987 176.176C349.194 175.412 352.636 175.63 353.401 175.685C360.231 176.122 371.322 176.559 385.911 177.159C387.386 179.015 387.495 181.8 386.184 181.581C376.458 180.216 353.783 176.886 342.036 180.053C339.195 180.817 337.283 187.314 338.867 190.753C339.468 192.063 340.124 196.267 340.452 198.287C340.561 198.833 340.561 199.215 340.615 199.324C340.615 199.379 340.561 199.434 340.506 199.488C340.452 199.597 340.342 199.707 340.233 199.816C338.266 201.454 319.58 210.134 318.159 211.226C317.941 211.39 317.722 211.444 317.558 211.444C316.902 219.415 315.209 254.574 316.247 265.984C316.247 266.093 316.247 266.148 316.247 266.257C316.301 266.257 316.356 266.312 316.411 266.312C318.104 267.185 322.421 266.585 323.787 266.475C329.797 266.093 333.84 271.443 334.168 274.064L335.261 283.891L337.501 293.936V293.991C337.665 294.264 337.829 294.591 337.993 294.974C338.922 297.485 341.544 299.614 344.932 299.669C346.025 299.669 346.954 299.723 347.828 299.778L438.855 299.942C439.074 299.232 439.238 298.413 439.347 297.649H426.616C425.797 297.649 425.086 296.994 425.086 296.12V289.623C425.032 288.804 425.687 288.095 426.507 288.095ZM403.777 306.602C403.777 306.165 404.105 305.838 404.542 305.838H419.404C419.841 305.838 420.169 306.165 420.169 306.602V308.131C420.169 308.568 419.841 308.895 419.404 308.895H404.542C404.105 308.895 403.777 308.568 403.777 308.131V306.602ZM385.474 306.602C385.474 306.165 385.801 305.838 386.238 305.838H401.045C401.483 305.838 401.81 306.165 401.81 306.602V308.131C401.81 308.568 401.483 308.895 401.045 308.895H386.184C385.747 308.895 385.419 308.568 385.419 308.131V306.602H385.474ZM365.312 304.309C365.312 303.49 365.968 302.781 366.842 302.781H373.726C374.546 302.781 375.256 303.436 375.256 304.309V308.185C375.256 309.004 374.601 309.714 373.726 309.714H366.842C366.022 309.714 365.312 309.059 365.312 308.185V304.309ZM323.568 290.988C326.901 290.988 329.579 296.611 329.579 303.49C329.579 310.424 326.901 315.992 323.568 315.992C320.235 315.992 317.558 310.369 317.558 303.49C317.503 296.611 320.235 290.988 323.568 290.988ZM329.196 239.451C329.196 240.052 328.814 240.543 328.322 240.761L324.169 242.29C323.131 242.672 322.038 241.908 322.038 240.816V216.139C322.038 215.593 322.366 215.048 322.913 214.884L327.284 213.028C328.213 212.645 329.196 213.3 329.196 214.283V239.451ZM350.833 236.558L352.144 207.022C352.144 204.838 357.007 207.568 359.193 207.568L396.893 210.025C397.713 210.134 409.35 212.045 407.329 214.283L406.018 236.121C406.018 238.305 405.034 240.434 402.849 240.434L355.368 239.506C354.712 239.56 350.833 237.213 350.833 236.558ZM436.834 278.159C436.834 278.977 436.178 279.687 435.304 279.687H358.428C357.608 279.687 356.898 279.032 356.898 278.159V274.392C356.898 273.573 357.553 272.863 358.428 272.863H435.304C436.123 272.863 436.834 273.518 436.834 274.392V278.159ZM436.834 269.587C436.834 270.406 436.178 271.116 435.304 271.116H358.428C357.608 271.116 356.898 270.461 356.898 269.587V265.82C356.898 265.001 357.553 264.292 358.428 264.292H435.304C436.123 264.292 436.834 264.947 436.834 265.82V269.587ZM435.304 250.916C436.123 250.916 436.834 251.571 436.834 252.445V260.907C436.834 261.726 436.178 262.435 435.304 262.435H358.428C357.608 262.435 356.898 261.78 356.898 260.907V252.445C356.898 251.626 357.553 250.916 358.428 250.916H435.304ZM409.241 236.012V218.596C409.241 218.05 409.678 217.613 410.225 217.613H410.716C411.263 217.613 411.7 218.05 411.7 218.596V236.012C411.7 236.558 411.263 236.994 410.716 236.994H410.225C409.678 236.994 409.241 236.558 409.241 236.012ZM417.601 238.086V216.685C417.601 216.139 418.038 215.703 418.584 215.703H420.879C421.426 215.703 421.863 216.139 421.863 216.685V238.086C421.863 238.632 421.426 239.069 420.879 239.069H418.584C418.038 239.069 417.601 238.632 417.601 238.086ZM346.899 234.756C346.899 235.357 346.516 235.903 345.915 236.066L333.95 239.069C333.13 239.287 332.42 238.632 332.42 237.759V212.154C332.42 211.608 332.693 211.171 333.13 210.898L345.096 204.948C345.915 204.511 346.899 205.221 346.899 206.203V234.756ZM342.364 187.15C342.364 187.15 342.419 187.15 342.364 187.15H342.419C343.73 187.86 350.778 189.934 350.778 189.934C353.292 191.026 358.974 190.371 375.365 191.736C391.101 192.991 397.494 190.862 410.443 193.865C412.301 194.302 421.917 197.304 421.917 197.359C414.268 196.485 365.312 193.374 348.92 193.592C346.243 193.647 341.49 188.296 342.364 187.15ZM375.202 296.12C375.202 296.939 374.546 297.649 373.672 297.649H360.613C359.794 297.649 359.083 296.994 359.083 296.12V289.623C359.083 288.804 359.739 288.095 360.613 288.095H373.726C374.546 288.095 375.256 288.75 375.256 289.623V296.12H375.202ZM420.114 296.12C420.114 296.939 419.459 297.649 418.584 297.649H386.894C386.075 297.649 385.364 296.994 385.364 296.12V294.373C385.364 293.554 386.02 292.844 386.894 292.844H418.584C419.404 292.844 420.114 293.5 420.114 294.373V296.12ZM348.866 279.305C348.975 279.414 349.139 279.469 349.303 279.469H351.161C351.489 279.469 351.762 279.196 351.762 278.923V278.704L348.866 279.305ZM348.866 279.305C348.975 279.414 349.139 279.469 349.303 279.469H351.161C351.489 279.469 351.762 279.196 351.762 278.923V278.704L348.866 279.305ZM348.866 279.305C348.975 279.414 349.139 279.469 349.303 279.469H351.161C351.489 279.469 351.762 279.196 351.762 278.923V278.704L348.866 279.305ZM348.866 279.305C348.975 279.414 349.139 279.469 349.303 279.469H351.161C351.489 279.469 351.762 279.196 351.762 278.923V278.704L348.866 279.305ZM348.866 279.305C348.975 279.414 349.139 279.469 349.303 279.469H351.161C351.489 279.469 351.762 279.196 351.762 278.923V278.704L348.866 279.305ZM348.866 279.305C348.975 279.414 349.139 279.469 349.303 279.469H351.161C351.489 279.469 351.762 279.196 351.762 278.923V278.704L348.866 279.305ZM348.866 279.305C348.975 279.414 349.139 279.469 349.303 279.469H351.161C351.489 279.469 351.762 279.196 351.762 278.923V278.704L348.866 279.305ZM348.866 279.305C348.975 279.414 349.139 279.469 349.303 279.469H351.161C351.489 279.469 351.762 279.196 351.762 278.923V278.704L348.866 279.305ZM348.866 279.305C348.975 279.414 349.139 279.469 349.303 279.469H351.161C351.489 279.469 351.762 279.196 351.762 278.923V278.704L348.866 279.305ZM348.866 279.305C348.975 279.414 349.139 279.469 349.303 279.469H351.161C351.489 279.469 351.762 279.196 351.762 278.923V278.704L348.866 279.305ZM348.866 279.305C348.975 279.414 349.139 279.469 349.303 279.469H351.161C351.489 279.469 351.762 279.196 351.762 278.923V278.704L348.866 279.305ZM348.866 279.305C348.975 279.414 349.139 279.469 349.303 279.469H351.161C351.489 279.469 351.762 279.196 351.762 278.923V278.704L348.866 279.305ZM348.866 279.305C348.975 279.414 349.139 279.469 349.303 279.469H351.161C351.489 279.469 351.762 279.196 351.762 278.923V278.704L348.866 279.305ZM348.866 279.305C348.975 279.414 349.139 279.469 349.303 279.469H351.161C351.489 279.469 351.762 279.196 351.762 278.923V278.704L348.866 279.305ZM348.866 279.305C348.975 279.414 349.139 279.469 349.303 279.469H351.161C351.489 279.469 351.762 279.196 351.762 278.923V278.704L348.866 279.305ZM348.866 279.305C348.975 279.414 349.139 279.469 349.303 279.469H351.161C351.489 279.469 351.762 279.196 351.762 278.923V278.704L348.866 279.305ZM348.866 279.305C348.975 279.414 349.139 279.469 349.303 279.469H351.161C351.489 279.469 351.762 279.196 351.762 278.923V278.704L348.866 279.305ZM348.866 279.305C348.975 279.414 349.139 279.469 349.303 279.469H351.161C351.489 279.469 351.762 279.196 351.762 278.923V278.704L348.866 279.305ZM348.866 279.305C348.975 279.414 349.139 279.469 349.303 279.469H351.161C351.489 279.469 351.762 279.196 351.762 278.923V278.704L348.866 279.305ZM348.866 279.305C348.975 279.414 349.139 279.469 349.303 279.469H351.161C351.489 279.469 351.762 279.196 351.762 278.923V278.704L348.866 279.305ZM348.866 279.305C348.975 279.414 349.139 279.469 349.303 279.469H351.161C351.489 279.469 351.762 279.196 351.762 278.923V278.704L348.866 279.305ZM348.866 279.305C348.975 279.414 349.139 279.469 349.303 279.469H351.161C351.489 279.469 351.762 279.196 351.762 278.923V278.704L348.866 279.305ZM348.866 279.305C348.975 279.414 349.139 279.469 349.303 279.469H351.161C351.489 279.469 351.762 279.196 351.762 278.923V278.704L348.866 279.305ZM348.866 279.305C348.975 279.414 349.139 279.469 349.303 279.469H351.161C351.489 279.469 351.762 279.196 351.762 278.923V278.704L348.866 279.305ZM348.866 279.305C348.975 279.414 349.139 279.469 349.303 279.469H351.161C351.489 279.469 351.762 279.196 351.762 278.923V278.704L348.866 279.305ZM348.866 279.305C348.975 279.414 349.139 279.469 349.303 279.469H351.161C351.489 279.469 351.762 279.196 351.762 278.923V278.704L348.866 279.305ZM348.866 279.305C348.975 279.414 349.139 279.469 349.303 279.469H351.161C351.489 279.469 351.762 279.196 351.762 278.923V278.704L348.866 279.305ZM348.866 279.305C348.975 279.414 349.139 279.469 349.303 279.469H351.161C351.489 279.469 351.762 279.196 351.762 278.923V278.704L348.866 279.305ZM348.866 279.305C348.975 279.414 349.139 279.469 349.303 279.469H351.161C351.489 279.469 351.762 279.196 351.762 278.923V278.704L348.866 279.305ZM348.866 279.305C348.975 279.414 349.139 279.469 349.303 279.469H351.161C351.489 279.469 351.762 279.196 351.762 278.923V278.704L348.866 279.305ZM348.866 279.305C348.975 279.414 349.139 279.469 349.303 279.469H351.161C351.489 279.469 351.762 279.196 351.762 278.923V278.704L348.866 279.305ZM348.866 279.305C348.975 279.414 349.139 279.469 349.303 279.469H351.161C351.489 279.469 351.762 279.196 351.762 278.923V278.704L348.866 279.305ZM348.866 279.305C348.975 279.414 349.139 279.469 349.303 279.469H351.161C351.489 279.469 351.762 279.196 351.762 278.923V278.704L348.866 279.305ZM348.866 279.305C348.975 279.414 349.139 279.469 349.303 279.469H351.161C351.489 279.469 351.762 279.196 351.762 278.923V278.704L348.866 279.305ZM348.866 279.305C348.975 279.414 349.139 279.469 349.303 279.469H351.161C351.489 279.469 351.762 279.196 351.762 278.923V278.704L348.866 279.305ZM348.866 279.305C348.975 279.414 349.139 279.469 349.303 279.469H351.161C351.489 279.469 351.762 279.196 351.762 278.923V278.704L348.866 279.305ZM348.866 279.305C348.975 279.414 349.139 279.469 349.303 279.469H351.161C351.489 279.469 351.762 279.196 351.762 278.923V278.704L348.866 279.305ZM348.866 279.305C348.975 279.414 349.139 279.469 349.303 279.469H351.161C351.489 279.469 351.762 279.196 351.762 278.923V278.704L348.866 279.305ZM348.866 279.305C348.975 279.414 349.139 279.469 349.303 279.469H351.161C351.489 279.469 351.762 279.196 351.762 278.923V278.704L348.866 279.305ZM348.866 279.305C348.975 279.414 349.139 279.469 349.303 279.469H351.161C351.489 279.469 351.762 279.196 351.762 278.923V278.704L348.866 279.305ZM348.866 279.305C348.975 279.414 349.139 279.469 349.303 279.469H351.161C351.489 279.469 351.762 279.196 351.762 278.923V278.704L348.866 279.305ZM348.866 279.305C348.975 279.414 349.139 279.469 349.303 279.469H351.161C351.489 279.469 351.762 279.196 351.762 278.923V278.704L348.866 279.305ZM348.866 279.305C348.975 279.414 349.139 279.469 349.303 279.469H351.161C351.489 279.469 351.762 279.196 351.762 278.923V278.704L348.866 279.305ZM348.866 279.305C348.975 279.414 349.139 279.469 349.303 279.469H351.161C351.489 279.469 351.762 279.196 351.762 278.923V278.704L348.866 279.305ZM348.866 279.305C348.975 279.414 349.139 279.469 349.303 279.469H351.161C351.489 279.469 351.762 279.196 351.762 278.923V278.704L348.866 279.305Z" fill="#202347"/>
<path d="M53.491 59.3984L56.2776 62.7287C41.1427 74.5757 36.0614 84.1297 35.0779 86.368C35.1325 86.1496 35.2418 85.8221 35.3511 85.4945C37.482 78.1789 42.618 72.0643 47.4808 66.2773C49.4478 63.9298 51.4694 61.6368 53.491 59.3984Z" fill="#EA5F23"/>
<path d="M71.3031 52.5194C65.9485 55.7405 61.3589 58.907 57.4249 61.9096L54.3105 58.5794C58.4084 54.0481 62.7795 49.6805 67.2598 45.5859L71.3031 52.5194Z" fill="#EA5F23"/>
<path d="M87.6946 43.6755C82.3947 46.2414 77.6411 48.7528 73.3247 51.2641L68.4619 44.4398C73.0515 40.2361 77.8051 36.3053 82.7771 32.6475L87.6946 43.6755Z" fill="#EA5F23"/>
<path d="M342.528 141.672C342.528 141.672 315.318 142.164 282.972 152.1C282.535 152.209 281.824 148.333 280.131 141.836L337.173 123.929L277.016 131.19C276.743 130.371 276.47 129.498 276.197 128.624L330.562 105.203L272.536 118.36C272.263 117.76 272.044 117.105 271.771 116.45L323.568 86.8596L267.455 106.404C267.072 105.585 266.635 104.712 266.253 103.893L312.859 70.3721L261.39 94.5574C260.953 93.8476 260.57 93.1379 260.133 92.3736L300.074 55.9592L254.942 83.9661C254.56 83.3655 254.177 82.8196 253.795 82.2736C253.085 81.1818 252.265 80.1445 251.391 79.0526L286.797 42.9111L245.271 72.0645C244.233 70.9726 243.141 69.9353 242.048 68.8434L271.17 32.7566L235.71 63.0564C234.289 61.8008 232.869 60.5997 231.448 59.3986L254.068 22.9296L225.438 54.4305C223.635 53.0111 221.504 51.537 219.264 50.1176L237.24 15.2318L212.926 46.5144C210.631 45.3133 208.227 44.1122 205.713 42.9657L219.755 9.33563L199.485 40.2906C196.698 39.1441 193.857 38.0522 191.016 37.1241L200.796 3.33025L184.841 35.1041C181.946 34.2306 179.05 33.4117 176.209 32.702L178.23 2.07458L171.182 31.6101C168.614 31.0642 166.155 30.682 163.806 30.409C162.221 30.2453 160.363 30.0815 158.451 30.0269L158.287 2.01999L153.698 30.0269C149.818 30.0269 145.502 30.2453 141.076 30.5728L138.344 6.11456L136.924 30.9004C132.334 31.3371 127.744 31.8831 123.319 32.5382L119.112 11.847C137.251 4.25836 157.031 0 178.34 0C261.171 0 332.693 61.5278 342.528 141.672Z" fill="#EA5F23"/>
<path d="M340.342 199.434C340.397 199.379 340.397 199.324 340.452 199.27C340.452 199.379 340.397 199.434 340.342 199.434Z" fill="#E6E7ED"/>
<path d="M342.746 186.931C342.746 186.985 342.582 187.04 342.418 187.094C342.091 186.931 342.145 186.876 342.746 186.931Z" fill="#BCBDC0"/>
<path d="M314.498 209.97C314.334 210.57 314.17 211.225 314.006 211.826C314.17 210.843 314.28 210.243 314.443 210.079C314.443 210.024 314.498 210.024 314.498 209.97Z" fill="#E6E7ED"/>
<path d="M340.451 199.27C340.451 199.161 340.397 198.778 340.287 198.232C340.506 198.615 340.561 198.942 340.451 199.27Z" fill="#E6E7ED"/>
</g>
<defs>
<clipPath id="clip0_759_344">
<rect width="460" height="325" fill="white"/>
</clipPath>
</defs>
</svg>
