<svg width="1337" height="347" viewBox="0 0 1337 347" fill="none" xmlns="http://www.w3.org/2000/svg">
<g clip-path="url(#clip0_759_485)">
<path d="M588.063 68.1953H548.045L536.721 161.085H511.701L525.397 49.6787H590.435L588.063 68.1953ZM633.703 104.77C637.273 104.77 640.257 104.26 642.655 103.239C645.103 102.168 647.067 100.688 648.547 98.8014C650.077 96.8627 651.174 94.5672 651.837 91.915C652.5 89.2627 652.831 86.3552 652.831 83.1923C652.831 80.9991 652.525 78.984 651.913 77.1476C651.352 75.3112 650.459 73.7299 649.235 72.4037C648.011 71.0774 646.455 70.0572 644.568 69.3431C642.731 68.5779 640.538 68.1953 637.987 68.1953H626.204L621.69 104.77H633.703ZM640.436 49.6022C647.067 49.6022 652.729 50.4183 657.422 52.0507C662.166 53.6319 666.043 55.8509 669.053 58.7075C672.113 61.513 674.358 64.8542 675.786 68.7309C677.214 72.5567 677.928 76.6885 677.928 81.1264C677.928 87.1968 676.984 92.8332 675.097 98.0362C673.261 103.188 670.43 107.651 666.604 111.426C662.778 115.201 657.932 118.16 652.066 120.302C646.2 122.445 639.262 123.516 631.254 123.516H619.394L614.727 161.085H589.936L603.556 49.6022H640.436ZM718.042 68.8075L714.752 95.7408H746.276L743.828 114.257H712.457L709.014 141.879H750.561L748.113 161.085H681.545L695.317 49.6022H761.732L759.284 68.8075H718.042ZM855.567 49.6787L841.867 161.085H816.851L822.054 118.695C816.287 120.123 810.826 121.144 805.679 121.756C800.575 122.368 795.882 122.495 791.597 122.138C787.313 121.73 783.513 120.787 780.197 119.307C776.881 117.777 774.152 115.609 772.01 112.804C769.918 109.947 768.464 106.376 767.648 102.091C766.832 97.7559 766.807 92.6036 767.572 86.6355L772.086 49.6787H797.183L792.592 86.712C792.133 90.4354 792.133 93.6491 792.592 96.3529C793.102 99.0051 794.454 101.02 796.647 102.398C798.841 103.775 802.131 104.438 806.517 104.387C810.907 104.336 816.77 103.418 824.116 101.632L830.543 49.6787H855.567ZM936.593 93.6748C935.167 95.6642 933.508 97.3218 931.623 98.6483C929.787 99.9749 927.797 101.046 925.655 101.862C928.812 102.78 931.39 104.26 933.379 106.3C935.425 108.34 937.205 111.197 938.735 114.87L955.19 161.085H932.388C930.141 161.085 928.329 160.498 926.952 159.325C925.631 158.151 924.479 156.417 923.513 154.122L911.802 118.772C910.94 116.579 909.869 115.125 908.588 114.41C907.316 113.645 905.584 113.263 903.385 113.263H892.907L887.011 161.085H862.148L875.84 49.6022H900.711L895.122 95.1286H903.772C905.503 95.1286 907.034 94.7718 908.363 94.0574C909.74 93.343 911.061 92.0423 912.341 90.1551L934.144 55.9529C935.521 54.1166 937.076 52.6118 938.816 51.4385C940.596 50.2143 942.641 49.6022 944.937 49.6022H966.361L936.593 93.6748ZM1070.57 98.1892C1070.57 104.208 1069.85 109.973 1068.42 115.482C1067.05 120.991 1065.06 126.117 1062.46 130.861C1059.9 135.605 1056.79 139.916 1053.12 143.792C1049.5 147.669 1045.41 150.985 1040.88 153.739C1036.34 156.443 1031.41 158.56 1026.11 160.09C1020.8 161.569 1015.22 162.309 1009.35 162.309C1002.01 162.309 995.397 161.034 989.533 158.483C983.718 155.882 978.773 152.362 974.689 147.924C970.606 143.435 967.473 138.181 965.282 132.162C963.139 126.091 962.068 119.563 962.068 112.574C962.068 106.555 962.753 100.791 964.13 95.2817C965.556 89.7218 967.545 84.5696 970.098 79.8256C972.7 75.0817 975.841 70.7713 979.514 66.8946C983.186 63.0178 987.286 59.7277 991.828 57.0241C996.371 54.2696 1001.29 52.1527 1006.6 50.6734C1011.9 49.1431 1017.51 48.3779 1023.43 48.3779C1030.72 48.3779 1037.28 49.6787 1043.09 52.2802C1048.96 54.8307 1053.91 58.3504 1057.94 62.8393C1062.02 67.3281 1065.13 72.6077 1067.27 78.6779C1069.46 84.7484 1070.57 91.2521 1070.57 98.1892ZM1045.01 98.8014C1045.01 94.2105 1044.45 90.0529 1043.33 86.3294C1042.26 82.5544 1040.65 79.341 1038.5 76.6885C1036.41 73.9849 1033.84 71.919 1030.78 70.4908C1027.72 69.0115 1024.25 68.2718 1020.37 68.2718C1015.27 68.2718 1010.7 69.3431 1006.67 71.4855C1002.65 73.5769 999.198 76.5355 996.347 80.3612C993.536 84.187 991.369 88.8036 989.839 94.2104C988.357 99.5665 987.624 105.509 987.624 112.038C987.624 116.629 988.156 120.787 989.227 124.51C990.298 128.234 991.853 131.423 993.898 134.075C995.984 136.727 998.562 138.793 1001.62 140.273C1004.68 141.701 1008.18 142.415 1012.11 142.415C1017.21 142.415 1021.77 141.369 1025.8 139.278C1029.88 137.186 1033.32 134.228 1036.13 130.402C1038.99 126.576 1041.18 121.985 1042.72 116.629C1044.25 111.273 1045.01 105.331 1045.01 98.8014Z" fill="white"/>
<path d="M578.152 233.632H555.801L546.861 306.06H527.289L536.109 233.632H513.638L515.571 218.048H580.206L578.152 233.632ZM611.542 261.601C614.361 261.601 616.717 261.198 618.61 260.393C620.543 259.547 622.093 258.379 623.261 256.889C624.469 255.359 625.335 253.547 625.859 251.452C626.382 249.358 626.644 247.063 626.644 244.566C626.644 242.834 626.402 241.244 625.919 239.794C625.476 238.344 624.771 237.096 623.805 236.049C622.838 235.002 621.61 234.196 620.12 233.632C618.67 233.028 616.939 232.726 614.925 232.726H605.622L602.058 261.601H611.542ZM616.858 218.048C622.093 218.048 626.563 218.692 630.268 219.981C634.013 221.229 637.074 222.981 639.45 225.236C641.866 227.451 643.638 230.089 644.766 233.149C645.893 236.17 646.457 239.432 646.457 242.935C646.457 247.727 645.712 252.177 644.222 256.285C642.772 260.352 640.537 263.876 637.517 266.856C634.497 269.836 630.671 272.172 626.04 273.863C621.409 275.555 615.932 276.4 609.609 276.4H600.246L596.561 306.06H576.99L587.742 218.048H616.858ZM688.771 272.534L684.482 247.405C684.16 245.835 683.797 243.982 683.395 241.848C683.032 239.673 682.67 237.337 682.307 234.841C681.341 237.378 680.374 239.734 679.408 241.908C678.482 244.043 677.676 245.915 676.992 247.526L666.662 272.534H688.771ZM714.927 306.06H699.704C698.013 306.06 696.684 305.677 695.718 304.912C694.791 304.107 694.147 303.06 693.785 301.771L691.066 285.945H661.165L654.641 301.771C654.077 302.858 653.171 303.845 651.923 304.731C650.715 305.617 649.325 306.06 647.755 306.06H632.291L674.334 218.048H694.51L714.927 306.06ZM801.79 218.048L790.917 306.06H771.103L775.755 268.608H743.981L739.33 306.06H719.516L730.389 218.048H750.203L745.612 255.198H777.386L781.977 218.048H801.79ZM842.946 290.838C845.161 290.838 847.07 290.676 848.681 290.354C850.332 289.992 851.742 289.549 852.909 289.025C854.077 288.502 855.068 287.938 855.873 287.334C856.679 286.69 857.404 286.106 858.048 285.582C858.692 285.059 859.296 284.636 859.86 284.314C860.424 283.951 861.028 283.77 861.672 283.77C862.317 283.77 862.84 283.891 863.243 284.132C863.686 284.334 864.008 284.575 864.209 284.857L871.096 293.133C867.27 297.684 862.719 301.147 857.444 303.523C852.209 305.859 846.249 307.027 839.564 307.027C834.006 307.027 829.069 306.06 824.76 304.127C820.491 302.154 816.891 299.456 813.951 296.033C811.011 292.609 808.772 288.562 807.242 283.891C805.752 279.179 805.008 274.105 805.008 268.668C805.008 263.634 805.575 258.862 806.702 254.352C807.83 249.842 809.417 245.674 811.47 241.848C813.524 238.022 815.981 234.579 818.84 231.518C821.74 228.458 824.945 225.86 828.449 223.726C831.952 221.591 835.714 219.96 839.741 218.833C843.768 217.665 847.98 217.081 852.37 217.081C855.672 217.081 858.668 217.403 861.366 218.048C864.105 218.652 866.561 219.517 868.736 220.645C870.951 221.732 872.924 223.041 874.656 224.571C876.387 226.102 877.902 227.793 879.19 229.646L872.304 237.619C871.821 238.183 871.257 238.687 870.613 239.129C869.968 239.572 869.122 239.794 868.075 239.794C867.391 239.794 866.763 239.633 866.199 239.311C865.635 238.989 865.055 238.606 864.451 238.163C863.887 237.68 863.243 237.156 862.518 236.592C861.793 236.029 860.923 235.525 859.917 235.082C858.91 234.599 857.702 234.196 856.292 233.874C854.923 233.552 853.296 233.391 851.403 233.391C847.698 233.391 844.235 234.176 841.013 235.747C837.832 237.317 835.053 239.572 832.677 242.512C830.341 245.412 828.505 248.956 827.176 253.144C825.847 257.292 825.187 261.943 825.187 267.098C825.187 270.843 825.63 274.185 826.516 277.125C827.442 280.065 828.69 282.562 830.261 284.616C831.831 286.629 833.7 288.18 835.875 289.267C838.049 290.314 840.409 290.838 842.946 290.838ZM937.454 290.838C939.669 290.838 941.578 290.676 943.189 290.354C944.84 289.992 946.25 289.549 947.418 289.025C948.585 288.502 949.576 287.938 950.382 287.334C951.187 286.69 951.912 286.106 952.556 285.582C953.2 285.059 953.805 284.636 954.368 284.314C954.932 283.951 955.536 283.77 956.181 283.77C956.825 283.77 957.348 283.891 957.751 284.132C958.194 284.334 958.516 284.575 958.718 284.857L965.604 293.133C961.778 297.684 957.228 301.147 951.952 303.523C946.717 305.859 940.757 307.027 934.072 307.027C928.514 307.027 923.577 306.06 919.268 304.127C914.999 302.154 911.399 299.456 908.459 296.033C905.52 292.609 903.28 288.562 901.75 283.891C900.26 279.179 899.519 274.105 899.519 268.668C899.519 263.634 900.083 258.862 901.21 254.352C902.338 249.842 903.925 245.674 905.979 241.848C908.032 238.022 910.489 234.579 913.348 231.518C916.248 228.458 919.453 225.86 922.957 223.726C926.46 221.591 930.222 219.96 934.249 218.833C938.276 217.665 942.488 217.081 946.878 217.081C950.18 217.081 953.176 217.403 955.874 218.048C958.613 218.652 961.069 219.517 963.244 220.645C965.459 221.732 967.432 223.041 969.164 224.571C970.896 226.102 972.41 227.793 973.698 229.646L966.812 237.619C966.329 238.183 965.765 238.687 965.121 239.129C964.476 239.572 963.631 239.794 962.584 239.794C961.899 239.794 961.271 239.633 960.707 239.311C960.143 238.989 959.563 238.606 958.959 238.163C958.395 237.68 957.751 237.156 957.026 236.592C956.301 236.029 955.431 235.525 954.425 235.082C953.418 234.599 952.21 234.196 950.8 233.874C949.431 233.552 947.804 233.391 945.911 233.391C942.206 233.391 938.743 234.176 935.521 235.747C932.34 237.317 929.561 239.572 927.185 242.512C924.85 245.412 923.013 248.956 921.684 253.144C920.355 257.292 919.695 261.943 919.695 267.098C919.695 270.843 920.138 274.185 921.024 277.125C921.95 280.065 923.199 282.562 924.769 284.616C926.34 286.629 928.208 288.18 930.383 289.267C932.557 290.314 934.917 290.838 937.454 290.838ZM999.995 233.21L997.394 254.473H1022.28L1020.35 269.091H995.582L992.867 290.898H1025.66L1023.73 306.06H971.177L982.051 218.048H1034.48L1032.55 233.21H999.995ZM1067.97 261.601C1070.79 261.601 1073.14 261.198 1075.04 260.393C1076.97 259.547 1078.52 258.379 1079.69 256.889C1080.9 255.359 1081.76 253.547 1082.29 251.452C1082.81 249.358 1083.07 247.063 1083.07 244.566C1083.07 242.834 1082.83 241.244 1082.35 239.794C1081.91 238.344 1081.2 237.096 1080.23 236.049C1079.27 235.002 1078.04 234.196 1076.55 233.632C1075.1 233.028 1073.37 232.726 1071.36 232.726H1062.05L1058.49 261.601H1067.97ZM1073.29 218.048C1078.52 218.048 1082.99 218.692 1086.7 219.981C1090.44 221.229 1093.5 222.981 1095.88 225.236C1098.3 227.451 1100.07 230.089 1101.2 233.149C1102.32 236.17 1102.89 239.432 1102.89 242.935C1102.89 247.727 1102.14 252.177 1100.65 256.285C1099.2 260.352 1096.97 263.876 1093.95 266.856C1090.93 269.836 1087.1 272.172 1082.47 273.863C1077.84 275.555 1072.36 276.4 1066.04 276.4H1056.67L1052.99 306.06H1033.42L1044.17 218.048H1073.29ZM1137.75 291.26C1140.17 291.26 1142.21 290.918 1143.86 290.233C1145.51 289.509 1146.84 288.522 1147.85 287.274C1148.89 285.985 1149.63 284.495 1150.08 282.803C1150.56 281.112 1150.8 279.26 1150.8 277.246C1150.8 275.917 1150.63 274.709 1150.26 273.622C1149.94 272.534 1149.35 271.628 1148.51 270.903C1147.7 270.138 1146.61 269.554 1145.25 269.152C1143.92 268.709 1142.27 268.487 1140.29 268.487H1127.61L1124.83 291.26H1137.75ZM1131.96 232.726L1129.18 255.439H1138.6C1140.82 255.439 1142.81 255.218 1144.58 254.775C1146.36 254.332 1147.86 253.587 1149.11 252.54C1150.4 251.452 1151.39 250.023 1152.08 248.251C1152.76 246.479 1153.1 244.284 1153.1 241.667C1153.1 238.405 1152.24 236.109 1150.5 234.78C1148.81 233.411 1146.17 232.726 1142.59 232.726H1131.96ZM1144.4 218.048C1149.51 218.048 1153.89 218.531 1157.51 219.497C1161.18 220.464 1164.16 221.853 1166.45 223.665C1168.79 225.437 1170.48 227.592 1171.53 230.129C1172.61 232.626 1173.15 235.404 1173.15 238.465C1173.15 240.881 1172.83 243.217 1172.19 245.472C1171.58 247.687 1170.6 249.741 1169.23 251.634C1167.9 253.526 1166.17 255.238 1164.04 256.768C1161.94 258.299 1159.38 259.607 1156.36 260.695C1161.11 261.983 1164.62 263.997 1166.87 266.735C1169.13 269.433 1170.25 272.857 1170.25 277.004C1170.25 281.072 1169.47 284.877 1167.9 288.421C1166.37 291.925 1164.13 294.985 1161.19 297.603C1158.25 300.221 1154.67 302.295 1150.44 303.825C1146.25 305.315 1141.5 306.06 1136.18 306.06H1103.32L1114.2 218.048H1144.4ZM1258.51 218.048L1247.69 306.06H1227.95L1233.74 257.312C1234.07 255.097 1234.45 252.761 1234.89 250.305C1235.33 247.808 1235.92 245.17 1236.64 242.391C1235.44 244.848 1234.16 247.143 1232.83 249.278C1231.55 251.372 1230.32 253.224 1229.15 254.835L1200.58 300.14C1200.05 300.825 1199.45 301.53 1198.77 302.254C1198.08 302.939 1197.34 303.563 1196.53 304.127C1195.73 304.691 1194.86 305.154 1193.93 305.516C1193.05 305.879 1192.14 306.06 1191.22 306.06H1176.36L1187.17 218.048H1206.92L1201.13 266.735C1200.8 268.99 1200.42 271.387 1199.97 273.924C1199.53 276.42 1198.95 279.058 1198.23 281.837C1199.39 279.34 1200.64 277.025 1201.97 274.89C1203.3 272.716 1204.55 270.843 1205.72 269.272L1234.28 223.907C1234.81 223.222 1235.41 222.538 1236.1 221.853C1236.78 221.128 1237.53 220.484 1238.34 219.92C1239.14 219.356 1239.99 218.913 1240.87 218.591C1241.8 218.229 1242.73 218.048 1243.65 218.048H1258.51ZM1299.73 290.838C1301.94 290.838 1303.86 290.676 1305.47 290.354C1307.12 289.992 1308.53 289.549 1309.7 289.025C1310.86 288.502 1311.85 287.938 1312.65 287.334C1313.46 286.69 1314.18 286.106 1314.83 285.582C1315.47 285.059 1316.08 284.636 1316.64 284.314C1317.2 283.951 1317.81 283.77 1318.45 283.77C1319.1 283.77 1319.62 283.891 1320.02 284.132C1320.46 284.334 1320.79 284.575 1320.99 284.857L1327.87 293.133C1324.05 297.684 1319.5 301.147 1314.22 303.523C1308.99 305.859 1303.03 307.027 1296.34 307.027C1290.78 307.027 1285.86 306.06 1281.55 304.127C1277.28 302.154 1273.67 299.456 1270.73 296.033C1267.79 292.609 1265.56 288.562 1264.03 283.891C1262.54 279.179 1261.79 274.105 1261.79 268.668C1261.79 263.634 1262.35 258.862 1263.48 254.352C1264.61 249.842 1266.2 245.674 1268.26 241.848C1270.31 238.022 1272.77 234.579 1275.63 231.518C1278.53 228.458 1281.72 225.86 1285.23 223.726C1288.73 221.591 1292.5 219.96 1296.53 218.833C1300.55 217.665 1304.76 217.081 1309.15 217.081C1312.45 217.081 1315.46 217.403 1318.15 218.048C1320.89 218.652 1323.35 219.517 1325.52 220.645C1327.74 221.732 1329.71 223.041 1331.44 224.571C1333.17 226.102 1334.68 227.793 1335.97 229.646L1329.08 237.619C1328.6 238.183 1328.04 238.687 1327.39 239.129C1326.75 239.572 1325.9 239.794 1324.85 239.794C1324.17 239.794 1323.55 239.633 1322.99 239.311C1322.42 238.989 1321.83 238.606 1321.23 238.163C1320.67 237.68 1320.02 237.156 1319.3 236.592C1318.57 236.029 1317.71 235.525 1316.7 235.082C1315.7 234.599 1314.49 234.196 1313.08 233.874C1311.71 233.552 1310.07 233.391 1308.18 233.391C1304.48 233.391 1301.01 234.176 1297.79 235.747C1294.61 237.317 1291.83 239.572 1289.46 242.512C1287.12 245.412 1285.29 248.956 1283.96 253.144C1282.63 257.292 1281.97 261.943 1281.97 267.098C1281.97 270.843 1282.41 274.185 1283.29 277.125C1284.22 280.065 1285.47 282.562 1287.04 284.616C1288.61 286.629 1290.49 288.18 1292.66 289.267C1294.84 290.314 1297.19 290.838 1299.73 290.838Z" fill="white"/>
<path d="M86.9992 53.9741C86.3831 54.1982 85.7669 54.4223 85.2064 54.6463C81.1172 56.3269 77.252 58.0074 73.611 59.6879L67.1689 48.5964C72.4906 44.6752 77.9803 41.0901 83.6938 37.7852L86.9992 53.9741Z" fill="white"/>
<path d="M102.906 50.2277C98.1455 51.068 93.888 51.9643 90.3031 52.9726L84.9253 37.1758C90.4706 33.9828 96.2407 31.1819 102.178 28.6611L102.906 50.2277Z" fill="white"/>
<path d="M436.322 219.953C436.378 219.897 436.434 219.785 436.434 219.729C436.434 219.897 436.378 219.953 436.322 219.953Z" fill="white"/>
<path d="M398.23 235.523C398.006 236.42 397.782 237.315 397.502 238.212C397.726 236.812 397.95 235.916 398.118 235.635C398.118 235.579 398.174 235.579 398.23 235.523Z" fill="white"/>
<path d="M436.434 219.668C436.378 219.5 436.322 218.94 436.21 218.155C436.546 218.716 436.602 219.22 436.434 219.668Z" fill="white"/>
<path d="M129.459 59.5642C204.97 55.2509 260.875 129.25 255.05 178.209L129.459 59.5642Z" fill="white"/>
<path d="M255.05 178.224C233.203 181.305 162.509 233.289 162.509 233.289C162.509 233.289 94.1127 279.391 40.1118 275.582C10.4786 261.914 -0.22063 206.569 0.00343862 188.475C0.843695 125.848 46.6657 64.5092 131.644 59.6357" fill="white"/>
<path d="M303.394 231.558C303.227 232.174 303.058 232.846 302.89 233.463C292.583 269.706 259.869 295.586 219.761 302.14C214.832 302.98 210.07 303.765 205.42 304.548C205.14 304.605 204.861 304.66 204.58 304.66C204.133 304.717 203.796 304.772 203.572 304.828C171.418 310.262 145.986 314.8 125.372 315.08C77.8134 315.752 42.0184 278.613 46.892 280.909C72.0996 300.683 139.656 278.613 176.348 255.645C192.369 245.619 208.334 235.927 223.682 227.469C223.738 227.413 223.795 227.357 223.85 227.357C254.715 210.271 283.173 197.835 305.411 196.211C307.092 208.759 306.251 220.635 303.394 231.558Z" fill="white"/>
<path d="M418.231 311.708H431.619C431.731 311.708 431.787 311.708 431.899 311.708C431.899 311.037 431.899 310.364 431.843 309.691L348.545 310.98C344.232 311.204 340.255 309.3 338.519 302.746H338.687C338.574 302.634 338.519 302.522 338.519 302.353V264.206C338.519 263.869 338.799 263.59 339.135 263.59H341.04C341.376 263.59 341.656 263.869 341.656 264.206V302.129C342.888 307.171 345.129 306.667 351.178 307.451C351.571 307.507 351.963 307.564 352.243 307.619H431.843C431.452 299.496 430.275 290.702 430.275 282.691C430.275 265.326 429.49 247.569 423.721 234.069C422.32 230.763 429.378 228.579 427.362 225.778C423.945 221.073 418.679 219 412.293 217.095C401.426 213.791 389.719 202.139 378.739 197.433C362.326 190.376 344.401 184.886 324.906 184.886C297.626 184.886 258.414 206.34 223.907 227.347C223.852 227.402 223.795 227.459 223.74 227.459C185.816 250.706 174.22 309.748 203.629 304.874C203.909 304.819 204.245 304.762 204.638 304.707C204.918 304.65 205.142 304.594 205.478 304.594C211.024 303.754 224.692 302.017 232.142 302.914C259.422 306.218 267.096 309.86 276.844 319.158C284.35 326.385 293.929 344.423 303.62 347.447C312.695 350.304 316.448 349.632 326.811 349.128C339.919 348.512 333.477 339.997 344.009 339.997C357.341 339.997 364.959 340.333 375.658 339.997C380.532 339.885 383.389 346.831 387.758 346.943C393.584 347.111 397.337 347.559 400.754 346.047C404.955 344.143 405.851 339.997 408.596 338.484C413.077 335.964 417.223 338.877 421.592 336.748C422.825 336.132 424.113 335.235 425.401 333.891H418.455C417.615 333.891 416.887 333.219 416.887 332.323V328.346C416.887 327.505 417.559 326.777 418.455 326.777H425.513C426.354 326.777 427.082 327.449 427.082 328.346V331.874C427.81 330.922 428.482 329.858 429.154 328.625C429.883 327.337 430.443 325.937 430.779 324.424L430.163 325.433L411.789 325.657C411.789 325.713 411.845 325.825 411.845 325.88V327.673C411.845 328.066 411.565 328.289 411.229 328.289H395.713C395.32 328.289 395.096 328.009 395.096 327.673V325.88C395.096 325.88 395.096 325.881 395.096 325.825H393.08C393.08 325.881 393.08 325.937 393.08 325.993V327.561C393.08 328.009 392.743 328.346 392.295 328.346H377.058C376.61 328.346 376.275 328.009 376.275 327.561V326.105L339.023 326.553H337.622C334.485 326.609 328.716 326.553 327.427 326.329C322.218 325.209 320.369 321.736 320.145 319.271V318.599L319.921 310.364L317.625 298.88C317.344 298.488 317.064 298.04 316.784 297.424C315.663 294.903 312.583 292.383 309.054 292.495C306.589 292.551 303.844 292.774 302.668 292.103C302.556 292.046 302.499 291.991 302.388 291.879C302.332 291.822 302.276 291.766 302.219 291.71C298.634 286.613 301.436 243.144 303.004 233.508C303.172 232.892 303.396 232.22 303.508 231.604C303.788 231.268 304.236 231.212 304.685 231.268C309.95 229.252 324.01 222.137 325.075 221.353C325.634 220.905 326.363 219.897 326.251 219.392C325.355 218.384 323.786 214.574 323.674 211.998C323.562 210.373 323.674 209.197 323.674 207.069C323.674 204.716 323.674 202.699 325.243 200.851C327.427 198.218 331.349 197.49 334.654 196.874C338.967 196.089 342.496 196.313 343.28 196.369C350.282 196.817 361.654 197.265 376.61 197.881C378.123 199.786 378.235 202.643 376.891 202.419C366.92 201.018 343.673 197.602 331.628 200.851C328.716 201.634 326.755 208.301 328.379 211.83C328.995 213.175 329.668 217.488 330.004 219.56C330.116 220.121 330.116 220.513 330.172 220.625C330.172 220.68 330.116 220.737 330.06 220.792C330.004 220.905 329.892 221.017 329.78 221.129C327.763 222.809 308.605 231.716 307.149 232.837C306.925 233.004 306.701 233.06 306.533 233.06C305.861 241.239 304.124 277.314 305.189 289.022C305.189 289.134 305.189 289.189 305.189 289.301C305.244 289.301 305.301 289.358 305.356 289.358C307.093 290.254 311.519 289.638 312.918 289.525C319.081 289.134 323.226 294.624 323.562 297.312L324.682 307.395L326.98 317.702V317.759C327.147 318.038 327.315 318.375 327.484 318.767C328.436 321.344 331.124 323.528 334.597 323.584C335.717 323.584 336.67 323.64 337.567 323.696L430.891 323.864C431.115 323.136 431.283 322.296 431.395 321.512H418.343C417.503 321.512 416.774 320.839 416.774 319.943V313.277C416.719 312.436 417.391 311.708 418.231 311.708ZM394.928 330.698C394.928 330.25 395.264 329.914 395.713 329.914H410.949C411.397 329.914 411.733 330.25 411.733 330.698V332.267C411.733 332.715 411.397 333.051 410.949 333.051H395.713C395.264 333.051 394.928 332.715 394.928 332.267V330.698ZM376.163 330.698C376.163 330.25 376.498 329.914 376.946 329.914H392.127C392.575 329.914 392.911 330.25 392.911 330.698V332.267C392.911 332.715 392.575 333.051 392.127 333.051H376.891C376.442 333.051 376.106 332.715 376.106 332.267V330.698H376.163ZM355.492 328.346C355.492 327.505 356.164 326.777 357.06 326.777H364.118C364.959 326.777 365.687 327.449 365.687 328.346V332.323C365.687 333.163 365.015 333.891 364.118 333.891H357.06C356.22 333.891 355.492 333.219 355.492 332.323V328.346ZM312.695 314.677C316.112 314.677 318.857 320.447 318.857 327.505C318.857 334.619 316.112 340.333 312.695 340.333C309.278 340.333 306.533 334.564 306.533 327.505C306.477 320.447 309.278 314.677 312.695 314.677ZM318.465 261.797C318.465 262.413 318.072 262.917 317.568 263.141L313.311 264.71C312.247 265.103 311.126 264.318 311.126 263.198V237.878C311.126 237.318 311.462 236.757 312.023 236.59L316.504 234.685C317.456 234.293 318.465 234.965 318.465 235.974V261.797ZM340.647 258.828L341.992 228.523C341.992 226.282 346.977 229.083 349.218 229.083L387.87 231.604C388.71 231.716 400.642 233.677 398.569 235.974L397.224 258.38C397.224 260.621 396.217 262.805 393.976 262.805L345.297 261.853C344.625 261.909 340.647 259.501 340.647 258.828ZM428.819 301.513C428.819 302.353 428.146 303.082 427.25 303.082H348.434C347.593 303.082 346.865 302.41 346.865 301.513V297.648C346.865 296.808 347.537 296.08 348.434 296.08H427.25C428.09 296.08 428.819 296.752 428.819 297.648V301.513ZM428.819 292.719C428.819 293.559 428.146 294.287 427.25 294.287H348.434C347.593 294.287 346.865 293.615 346.865 292.719V288.854C346.865 288.014 347.537 287.285 348.434 287.285H427.25C428.09 287.285 428.819 287.957 428.819 288.854V292.719ZM427.25 273.561C428.09 273.561 428.819 274.233 428.819 275.129V283.812C428.819 284.653 428.146 285.381 427.25 285.381H348.434C347.593 285.381 346.865 284.708 346.865 283.812V275.129C346.865 274.289 347.537 273.561 348.434 273.561H427.25ZM400.53 258.268V240.399C400.53 239.838 400.978 239.39 401.538 239.39H402.042C402.602 239.39 403.051 239.838 403.051 240.399V258.268C403.051 258.828 402.602 259.276 402.042 259.276H401.538C400.978 259.276 400.53 258.828 400.53 258.268ZM409.1 260.396V238.438C409.1 237.878 409.548 237.43 410.109 237.43H412.461C413.022 237.43 413.47 237.878 413.47 238.438V260.396C413.47 260.957 413.022 261.405 412.461 261.405H410.109C409.548 261.405 409.1 260.957 409.1 260.396ZM336.614 256.98C336.614 257.596 336.222 258.156 335.606 258.324L323.338 261.405C322.498 261.629 321.769 260.957 321.769 260.061V233.789C321.769 233.229 322.05 232.78 322.498 232.5L334.765 226.394C335.606 225.946 336.614 226.674 336.614 227.683V256.98ZM331.965 208.133C331.965 208.133 332.021 208.133 331.965 208.133H332.021C333.365 208.861 340.591 210.989 340.591 210.989C343.168 212.11 348.994 211.438 365.799 212.838C381.932 214.127 388.486 211.942 401.762 215.023C403.667 215.471 413.526 218.552 413.526 218.608C405.684 217.712 355.492 214.519 338.687 214.743C335.942 214.799 331.069 209.309 331.965 208.133ZM365.631 319.943C365.631 320.783 364.959 321.512 364.063 321.512H350.674C349.834 321.512 349.106 320.839 349.106 319.943V313.277C349.106 312.436 349.778 311.708 350.674 311.708H364.118C364.959 311.708 365.687 312.381 365.687 313.277V319.943H365.631ZM411.677 319.943C411.677 320.783 411.005 321.512 410.109 321.512H377.619C376.779 321.512 376.051 320.839 376.051 319.943V318.151C376.051 317.31 376.722 316.582 377.619 316.582H410.109C410.949 316.582 411.677 317.254 411.677 318.151V319.943ZM338.631 302.69C338.743 302.802 338.911 302.857 339.079 302.857H340.983C341.319 302.857 341.599 302.578 341.599 302.298V302.074L338.631 302.69ZM338.631 302.69C338.743 302.802 338.911 302.857 339.079 302.857H340.983C341.319 302.857 341.599 302.578 341.599 302.298V302.074L338.631 302.69ZM338.631 302.69C338.743 302.802 338.911 302.857 339.079 302.857H340.983C341.319 302.857 341.599 302.578 341.599 302.298V302.074L338.631 302.69ZM338.631 302.69C338.743 302.802 338.911 302.857 339.079 302.857H340.983C341.319 302.857 341.599 302.578 341.599 302.298V302.074L338.631 302.69ZM338.631 302.69C338.743 302.802 338.911 302.857 339.079 302.857H340.983C341.319 302.857 341.599 302.578 341.599 302.298V302.074L338.631 302.69ZM338.631 302.69C338.743 302.802 338.911 302.857 339.079 302.857H340.983C341.319 302.857 341.599 302.578 341.599 302.298V302.074L338.631 302.69ZM338.631 302.69C338.743 302.802 338.911 302.857 339.079 302.857H340.983C341.319 302.857 341.599 302.578 341.599 302.298V302.074L338.631 302.69ZM338.631 302.69C338.743 302.802 338.911 302.857 339.079 302.857H340.983C341.319 302.857 341.599 302.578 341.599 302.298V302.074L338.631 302.69ZM338.631 302.69C338.743 302.802 338.911 302.857 339.079 302.857H340.983C341.319 302.857 341.599 302.578 341.599 302.298V302.074L338.631 302.69ZM338.631 302.69C338.743 302.802 338.911 302.857 339.079 302.857H340.983C341.319 302.857 341.599 302.578 341.599 302.298V302.074L338.631 302.69ZM338.631 302.69C338.743 302.802 338.911 302.857 339.079 302.857H340.983C341.319 302.857 341.599 302.578 341.599 302.298V302.074L338.631 302.69ZM338.631 302.69C338.743 302.802 338.911 302.857 339.079 302.857H340.983C341.319 302.857 341.599 302.578 341.599 302.298V302.074L338.631 302.69ZM338.631 302.69C338.743 302.802 338.911 302.857 339.079 302.857H340.983C341.319 302.857 341.599 302.578 341.599 302.298V302.074L338.631 302.69ZM338.631 302.69C338.743 302.802 338.911 302.857 339.079 302.857H340.983C341.319 302.857 341.599 302.578 341.599 302.298V302.074L338.631 302.69ZM338.631 302.69C338.743 302.802 338.911 302.857 339.079 302.857H340.983C341.319 302.857 341.599 302.578 341.599 302.298V302.074L338.631 302.69ZM338.631 302.69C338.743 302.802 338.911 302.857 339.079 302.857H340.983C341.319 302.857 341.599 302.578 341.599 302.298V302.074L338.631 302.69ZM338.631 302.69C338.743 302.802 338.911 302.857 339.079 302.857H340.983C341.319 302.857 341.599 302.578 341.599 302.298V302.074L338.631 302.69ZM338.631 302.69C338.743 302.802 338.911 302.857 339.079 302.857H340.983C341.319 302.857 341.599 302.578 341.599 302.298V302.074L338.631 302.69ZM338.631 302.69C338.743 302.802 338.911 302.857 339.079 302.857H340.983C341.319 302.857 341.599 302.578 341.599 302.298V302.074L338.631 302.69ZM338.631 302.69C338.743 302.802 338.911 302.857 339.079 302.857H340.983C341.319 302.857 341.599 302.578 341.599 302.298V302.074L338.631 302.69ZM338.631 302.69C338.743 302.802 338.911 302.857 339.079 302.857H340.983C341.319 302.857 341.599 302.578 341.599 302.298V302.074L338.631 302.69ZM338.631 302.69C338.743 302.802 338.911 302.857 339.079 302.857H340.983C341.319 302.857 341.599 302.578 341.599 302.298V302.074L338.631 302.69ZM338.631 302.69C338.743 302.802 338.911 302.857 339.079 302.857H340.983C341.319 302.857 341.599 302.578 341.599 302.298V302.074L338.631 302.69ZM338.631 302.69C338.743 302.802 338.911 302.857 339.079 302.857H340.983C341.319 302.857 341.599 302.578 341.599 302.298V302.074L338.631 302.69ZM338.631 302.69C338.743 302.802 338.911 302.857 339.079 302.857H340.983C341.319 302.857 341.599 302.578 341.599 302.298V302.074L338.631 302.69ZM338.631 302.69C338.743 302.802 338.911 302.857 339.079 302.857H340.983C341.319 302.857 341.599 302.578 341.599 302.298V302.074L338.631 302.69ZM338.631 302.69C338.743 302.802 338.911 302.857 339.079 302.857H340.983C341.319 302.857 341.599 302.578 341.599 302.298V302.074L338.631 302.69ZM338.631 302.69C338.743 302.802 338.911 302.857 339.079 302.857H340.983C341.319 302.857 341.599 302.578 341.599 302.298V302.074L338.631 302.69ZM338.631 302.69C338.743 302.802 338.911 302.857 339.079 302.857H340.983C341.319 302.857 341.599 302.578 341.599 302.298V302.074L338.631 302.69ZM338.631 302.69C338.743 302.802 338.911 302.857 339.079 302.857H340.983C341.319 302.857 341.599 302.578 341.599 302.298V302.074L338.631 302.69ZM338.631 302.69C338.743 302.802 338.911 302.857 339.079 302.857H340.983C341.319 302.857 341.599 302.578 341.599 302.298V302.074L338.631 302.69ZM338.631 302.69C338.743 302.802 338.911 302.857 339.079 302.857H340.983C341.319 302.857 341.599 302.578 341.599 302.298V302.074L338.631 302.69ZM338.631 302.69C338.743 302.802 338.911 302.857 339.079 302.857H340.983C341.319 302.857 341.599 302.578 341.599 302.298V302.074L338.631 302.69ZM338.631 302.69C338.743 302.802 338.911 302.857 339.079 302.857H340.983C341.319 302.857 341.599 302.578 341.599 302.298V302.074L338.631 302.69ZM338.631 302.69C338.743 302.802 338.911 302.857 339.079 302.857H340.983C341.319 302.857 341.599 302.578 341.599 302.298V302.074L338.631 302.69ZM338.631 302.69C338.743 302.802 338.911 302.857 339.079 302.857H340.983C341.319 302.857 341.599 302.578 341.599 302.298V302.074L338.631 302.69ZM338.631 302.69C338.743 302.802 338.911 302.857 339.079 302.857H340.983C341.319 302.857 341.599 302.578 341.599 302.298V302.074L338.631 302.69ZM338.631 302.69C338.743 302.802 338.911 302.857 339.079 302.857H340.983C341.319 302.857 341.599 302.578 341.599 302.298V302.074L338.631 302.69ZM338.631 302.69C338.743 302.802 338.911 302.857 339.079 302.857H340.983C341.319 302.857 341.599 302.578 341.599 302.298V302.074L338.631 302.69ZM338.631 302.69C338.743 302.802 338.911 302.857 339.079 302.857H340.983C341.319 302.857 341.599 302.578 341.599 302.298V302.074L338.631 302.69ZM338.631 302.69C338.743 302.802 338.911 302.857 339.079 302.857H340.983C341.319 302.857 341.599 302.578 341.599 302.298V302.074L338.631 302.69ZM338.631 302.69C338.743 302.802 338.911 302.857 339.079 302.857H340.983C341.319 302.857 341.599 302.578 341.599 302.298V302.074L338.631 302.69ZM338.631 302.69C338.743 302.802 338.911 302.857 339.079 302.857H340.983C341.319 302.857 341.599 302.578 341.599 302.298V302.074L338.631 302.69ZM338.631 302.69C338.743 302.802 338.911 302.857 339.079 302.857H340.983C341.319 302.857 341.599 302.578 341.599 302.298V302.074L338.631 302.69ZM338.631 302.69C338.743 302.802 338.911 302.857 339.079 302.857H340.983C341.319 302.857 341.599 302.578 341.599 302.298V302.074L338.631 302.69Z" fill="white"/>
<path d="M35.8002 77.0498L38.6571 80.4668C23.1403 92.6226 17.9307 102.425 16.9224 104.722C16.9784 104.498 17.0905 104.162 17.2025 103.826C19.3871 96.3194 24.6528 90.046 29.6383 84.1076C31.6549 81.6994 33.7276 79.3465 35.8002 77.0498Z" fill="white"/>
<path d="M54.0605 70.0058C48.5708 73.3109 43.8654 76.5598 39.8322 79.6407L36.6392 76.2237C40.8405 71.5743 45.3218 67.0929 49.9152 62.8916L54.0605 70.0058Z" fill="white"/>
<path d="M70.8651 60.9151C65.4314 63.5479 60.5578 66.1247 56.1325 68.7015L51.147 61.6994C55.8524 57.386 60.7259 53.3528 65.8235 49.5996L70.8651 60.9151Z" fill="white"/>
<path d="M332.131 161.473C332.131 161.473 304.234 161.978 271.072 172.173C270.624 172.285 269.896 168.307 268.16 161.641L326.641 143.268L264.966 150.718C264.687 149.878 264.406 148.981 264.126 148.085L319.864 124.053L260.373 137.554C260.093 136.938 259.869 136.265 259.589 135.593L312.693 105.232L255.163 125.286C254.771 124.446 254.323 123.549 253.931 122.709L301.713 88.3145L248.945 113.13C248.498 112.402 248.105 111.674 247.657 110.89L288.606 73.526L242.335 102.263C241.943 101.647 241.551 101.087 241.159 100.526C240.431 99.4059 239.59 98.342 238.694 97.2216L274.994 60.1379L232.421 90.0509C231.356 88.9306 230.236 87.8666 229.115 86.7463L258.973 49.7187L222.618 80.8079C221.161 79.5199 219.705 78.2875 218.248 77.0551L241.439 39.6357L212.086 71.9575C210.238 70.5011 208.053 68.9886 205.756 67.5322L224.186 31.7372L199.258 63.835C196.906 62.6027 194.441 61.3703 191.864 60.194L206.261 25.6874L185.478 57.4491C182.621 56.2728 179.708 55.1523 176.796 54.2001L186.822 19.5255L170.465 52.1274C167.496 51.2312 164.528 50.3909 161.614 49.6627L163.688 18.237L156.461 48.5423C153.828 47.9822 151.307 47.5901 148.899 47.31C147.275 47.1419 145.37 46.9739 143.409 46.9179L143.241 18.1811L138.536 46.9179C134.559 46.9179 130.133 47.1419 125.596 47.478L122.795 22.3823L121.338 47.8141C116.633 48.2623 111.927 48.8225 107.39 49.4947L103.077 28.2641C121.674 20.4777 141.952 16.1084 163.799 16.1084C248.722 16.1084 322.048 79.2398 332.131 161.473Z" fill="white"/>
<path d="M329.889 220.746C329.945 220.69 329.944 220.635 330.001 220.578C330.001 220.69 329.945 220.746 329.889 220.746Z" fill="white"/>
<path d="M332.354 207.905C332.354 207.961 332.187 208.017 332.018 208.072C331.682 207.905 331.738 207.849 332.354 207.905Z" fill="white"/>
<path d="M303.393 231.559C303.224 232.175 303.057 232.847 302.888 233.463C303.057 232.455 303.169 231.839 303.336 231.671C303.336 231.615 303.393 231.615 303.393 231.559Z" fill="white"/>
<path d="M330.001 220.574C330.001 220.461 329.946 220.069 329.834 219.509C330.058 219.901 330.113 220.237 330.001 220.574Z" fill="white"/>
<path d="M311.068 241.587C311.125 241.643 311.237 241.699 311.349 241.699H312.581C312.805 241.699 312.973 241.531 312.973 241.307V241.14L311.068 241.587Z" fill="white"/>
<path d="M381.649 274.63L381.425 274.966C381.481 274.854 381.481 274.742 381.537 274.63H381.649Z" fill="white"/>
<path d="M279.697 241.466C279.754 241.521 279.809 241.578 279.921 241.578H280.874C281.042 241.578 281.153 241.466 281.153 241.298V241.186L279.697 241.466Z" fill="white"/>
<path d="M279.697 241.466C279.754 241.521 279.809 241.578 279.921 241.578H280.874C281.042 241.578 281.153 241.466 281.153 241.298V241.186L279.697 241.466Z" fill="white"/>
</g>
<defs>
<clipPath id="clip0_759_485">
<rect width="1337" height="346.331" fill="white"/>
</clipPath>
</defs>
</svg>
