<svg width="460" height="356" viewBox="0 0 460 356" fill="none" xmlns="http://www.w3.org/2000/svg">
<path d="M92.3791 40.1865C91.7053 40.4316 91.0314 40.6153 90.4801 40.9216C86.1307 42.6982 82.0263 44.4747 78.167 46.2512L71.3059 34.4894C76.9418 30.3238 82.8227 26.4644 88.8873 22.9727L92.3791 40.1865Z" fill="#EA5F23"/>
<path d="M109.286 36.1429C104.263 37.0005 99.6688 37.9807 95.8707 39.0221L90.1736 22.1758C96.1157 18.8065 102.242 15.8048 108.551 13.1094L109.286 36.1429Z" fill="#EA5F23"/>
<path d="M445.482 314.873H459.755C459.816 314.873 459.939 314.873 460 314.873C460 314.138 460 313.464 459.939 312.729L371.235 314.076C366.641 314.321 362.414 312.3 360.515 305.316C360.515 305.316 360.515 305.071 360.515 304.887V264.15C360.515 263.782 360.76 263.537 361.128 263.537H363.149C363.517 263.537 363.762 263.844 363.762 264.15V304.581C365.048 309.972 367.437 309.421 373.869 310.278C374.298 310.339 374.666 310.401 375.033 310.462H459.816C459.387 301.763 458.162 292.452 458.162 283.937C458.162 265.498 457.305 246.569 451.179 232.173C449.647 228.681 457.243 226.292 455.099 223.351C451.424 218.328 445.849 216.184 439.049 214.101C427.471 210.609 415.036 198.174 403.274 193.15C385.815 185.616 366.702 179.796 345.935 179.796C316.837 179.796 275.119 202.646 238.364 225.005C238.303 225.067 238.241 225.067 238.18 225.128C221.824 234.194 204.855 244.424 187.764 255.145C148.68 279.587 76.7006 303.111 49.869 282.038C44.662 279.587 82.7652 319.161 133.427 318.426C155.358 318.119 182.434 313.341 216.678 307.522C216.923 307.46 217.291 307.399 217.781 307.338C218.026 307.277 218.332 307.277 218.638 307.215C224.581 306.358 239.099 304.459 247.001 305.439C276.1 308.931 284.247 312.851 294.6 322.714C302.625 330.433 312.794 349.607 323.086 352.853C332.765 355.916 336.746 355.181 347.773 354.63C361.74 353.956 354.879 344.89 366.09 344.89C380.24 344.89 388.388 345.257 399.782 344.89C404.989 344.767 408.052 352.18 412.647 352.241C418.834 352.425 422.816 352.915 426.491 351.261C430.963 349.239 431.943 344.828 434.822 343.174C439.601 340.479 444.011 343.542 448.667 341.337C450.015 340.724 451.363 339.744 452.71 338.274H445.298C444.379 338.274 443.644 337.539 443.644 336.62V332.393C443.644 331.474 444.379 330.739 445.298 330.739H453.017C453.935 330.739 454.671 331.474 454.671 332.393V336.13C455.467 335.15 456.202 333.986 456.876 332.638C457.611 331.29 458.224 329.759 458.652 328.166L458.04 329.207L438.498 329.452C438.498 329.514 438.559 329.636 438.559 329.697V331.596C438.559 331.964 438.253 332.27 437.885 332.27H421.407C421.039 332.27 420.733 331.964 420.733 331.596V329.697C420.733 329.697 420.733 329.697 420.733 329.636H418.589C418.589 329.697 418.589 329.759 418.589 329.82V331.474C418.589 331.903 418.221 332.27 417.792 332.27H401.559C401.13 332.27 400.762 331.903 400.762 331.474V329.881L361.066 330.371H359.596C356.227 330.433 350.101 330.371 348.753 330.126C343.24 328.962 341.218 325.226 341.035 322.591V321.856L340.789 313.096L338.339 300.906C338.033 300.477 337.727 299.987 337.42 299.374C336.256 296.679 332.948 293.983 329.211 294.106C326.639 294.167 323.637 294.412 322.412 293.738C322.289 293.677 322.228 293.616 322.105 293.493C322.044 293.432 321.983 293.371 321.922 293.309C318.124 287.857 321.125 241.545 322.718 231.315C322.902 230.641 323.086 229.967 323.269 229.293C323.514 228.926 324.004 228.865 324.556 228.926C330.13 226.782 345.139 219.186 346.242 218.328C346.854 217.899 347.651 216.797 347.467 216.245C346.487 215.204 344.894 211.161 344.71 208.343C344.588 206.566 344.71 205.341 344.71 203.136C344.71 200.624 344.71 198.48 346.364 196.52C348.692 193.702 352.858 192.905 356.349 192.293C360.944 191.435 364.681 191.68 365.538 191.741C373.012 192.232 385.08 192.722 401.007 193.334C402.6 195.356 402.784 198.357 401.252 198.174C390.655 196.642 365.845 193.028 353.041 196.458C349.978 197.255 347.834 204.422 349.611 208.159C350.285 209.629 351.02 214.224 351.326 216.368C351.387 216.98 351.449 217.348 351.51 217.47C351.51 217.532 351.449 217.593 351.449 217.654C351.387 217.777 351.265 217.899 351.142 218.022C348.998 219.798 328.599 229.293 327.006 230.519C326.761 230.702 326.577 230.764 326.332 230.764C325.597 239.462 323.759 277.872 324.862 290.369C324.862 290.43 324.862 290.553 324.862 290.614C324.923 290.614 324.985 290.675 325.046 290.675C326.884 291.594 331.601 290.982 333.132 290.859C339.687 290.43 344.097 296.311 344.465 299.19L345.69 309.972L348.141 320.937V320.999C348.324 321.305 348.508 321.672 348.692 322.04C349.733 324.797 352.551 327.063 356.288 327.186C357.452 327.186 358.493 327.247 359.474 327.247L458.836 327.431C459.081 326.634 459.204 325.777 459.387 324.919H445.482C444.563 324.919 443.828 324.184 443.828 323.265V316.159C443.828 315.547 444.563 314.873 445.482 314.873ZM420.61 335.027C420.61 334.598 420.978 334.231 421.407 334.231H437.64C438.069 334.231 438.437 334.598 438.437 335.027V336.681C438.437 337.11 438.069 337.477 437.64 337.477H421.407C420.978 337.477 420.61 337.11 420.61 336.681V335.027ZM400.64 335.027C400.64 334.598 401.007 334.231 401.436 334.231H417.67C418.099 334.231 418.466 334.598 418.466 335.027V336.681C418.466 337.11 418.099 337.477 417.67 337.477H401.436C401.007 337.477 400.64 337.11 400.64 336.681V335.027ZM378.648 332.515C378.648 331.596 379.383 330.861 380.302 330.861H387.837C388.755 330.861 389.491 331.596 389.491 332.515V336.742C389.491 337.661 388.755 338.396 387.837 338.396H380.302C379.383 338.396 378.648 337.661 378.648 336.742V332.515ZM333.01 317.997C336.624 317.997 339.564 324.123 339.564 331.658C339.564 339.193 336.624 345.319 333.01 345.319C329.395 345.319 326.455 339.193 326.455 331.658C326.455 324.123 329.395 317.997 333.01 317.997ZM339.197 261.7C339.197 262.312 338.829 262.864 338.217 263.109L333.683 264.763C332.581 265.191 331.356 264.334 331.356 263.17V236.216C331.356 235.603 331.723 235.052 332.274 234.807L337.053 232.785C338.033 232.356 339.135 233.092 339.135 234.194V261.7H339.197ZM362.843 258.453L364.252 226.169C364.252 223.78 369.52 226.782 371.909 226.782L413.075 229.477C413.994 229.538 426.675 231.683 424.47 234.133L423.061 258.024C423.061 260.413 421.958 262.741 419.63 262.741L367.805 261.7C367.008 261.761 362.843 259.188 362.843 258.453ZM456.692 303.907C456.692 304.826 455.957 305.561 455.038 305.561H371.113C370.194 305.561 369.459 304.826 369.459 303.907V299.803C369.459 298.884 370.194 298.149 371.113 298.149H455.099C456.018 298.149 456.753 298.884 456.753 299.803V303.907H456.692ZM456.692 294.596C456.692 295.515 455.957 296.25 455.038 296.25H371.113C370.194 296.25 369.459 295.515 369.459 294.596V290.491C369.459 289.573 370.194 288.837 371.113 288.837H455.099C456.018 288.837 456.753 289.573 456.753 290.491V294.596H456.692ZM455.038 274.197C455.957 274.197 456.692 274.932 456.692 275.851V285.101C456.692 286.02 455.957 286.755 455.038 286.755H371.113C370.194 286.755 369.459 286.02 369.459 285.101V275.851C369.459 274.932 370.194 274.197 371.113 274.197H455.038ZM426.552 257.902V238.911C426.552 238.299 427.043 237.808 427.655 237.808H428.206C428.819 237.808 429.309 238.299 429.309 238.911V257.902C429.309 258.514 428.819 259.004 428.206 259.004H427.655C427.043 258.943 426.552 258.453 426.552 257.902ZM435.741 260.168V236.767C435.741 236.154 436.231 235.664 436.844 235.664H439.356C439.968 235.664 440.458 236.154 440.458 236.767V260.168C440.458 260.781 439.968 261.271 439.356 261.271H436.844C436.231 261.271 435.741 260.781 435.741 260.168ZM358.493 256.554C358.493 257.228 358.065 257.84 357.391 257.963L344.342 261.21C343.485 261.455 342.627 260.719 342.627 259.801V231.805C342.627 231.254 342.934 230.702 343.424 230.457L356.472 223.964C357.391 223.535 358.432 224.209 358.432 225.312V256.554H358.493ZM353.593 204.483H353.654C355.063 205.219 362.782 207.546 362.782 207.546C365.477 208.71 371.725 208.036 389.613 209.507C406.766 210.916 413.749 208.527 427.9 211.835C429.922 212.325 440.397 215.571 440.397 215.633C432.005 214.652 378.586 211.283 360.637 211.528C357.82 211.589 352.613 205.77 353.593 204.483ZM389.429 323.633C389.429 324.552 388.694 325.287 387.775 325.287H373.502C372.583 325.287 371.848 324.552 371.848 323.633V316.527C371.848 315.608 372.583 314.873 373.502 314.873H387.775C388.694 314.873 389.429 315.608 389.429 316.527V323.633ZM438.498 323.633C438.498 324.552 437.763 325.287 436.844 325.287H402.233C401.314 325.287 400.579 324.552 400.579 323.633V321.734C400.579 320.815 401.314 320.08 402.233 320.08H436.844C437.763 320.08 438.498 320.815 438.498 321.734V323.633Z" fill="#202347"/>
<path d="M137.899 46.3114L138.082 46.4339C48.95 52.5599 0.922729 117.372 0.00383924 183.532C-0.241198 202.829 11.2143 261.822 42.7016 276.34C100.224 280.383 173.123 231.253 173.123 231.253C173.123 231.253 248.41 175.936 271.689 172.628C277.876 120.496 218.332 41.6557 137.899 46.3114Z" fill="#EA5F23"/>
<path d="M41.2314 68.5496L38.1685 64.874C35.9019 67.3244 33.7578 69.836 31.6137 72.4089C26.2842 78.7799 20.7096 85.3959 18.3205 93.4209C18.1979 93.8497 18.0754 94.156 18.0142 94.401C19.1781 91.8894 24.6914 81.4753 41.2314 68.5496Z" fill="#EA5F23"/>
<path d="M57.5877 57.3383L53.177 49.7422C48.2763 54.2141 43.5593 58.9923 39.0261 63.9543L42.3954 67.5686C46.6835 64.3219 51.7068 60.8301 57.5877 57.3383Z" fill="#EA5F23"/>
<path d="M75.4753 47.7217L70.0845 35.7148C64.6937 39.6967 59.4866 44.0461 54.4634 48.5793L59.7929 56.0529C64.4487 53.2963 69.7169 50.5396 75.4753 47.7217Z" fill="#EA5F23"/>
<path d="M174.47 0C151.253 0 129.629 4.65571 109.781 12.9257L114.436 35.5304C119.214 34.7953 124.299 34.1827 129.261 33.7539L130.854 6.67727L133.855 33.3863C138.695 33.0188 143.412 32.7737 147.639 32.7737L152.662 2.20533L152.846 32.835C154.99 32.8963 156.95 33.0188 158.727 33.2638C161.238 33.5701 163.934 33.9989 166.752 34.5503L174.409 2.26659L172.204 35.7142C175.267 36.4493 178.452 37.3069 181.638 38.2871L199.097 3.6143L188.376 40.5537C191.5 41.5951 194.563 42.8203 197.626 44.0454L219.741 10.2303L204.426 46.9859C207.183 48.2111 209.817 49.4975 212.329 50.8452L238.854 16.6625L219.19 54.7658C221.701 56.2973 223.968 57.89 225.928 59.4828L257.232 25.0551L232.605 64.8736C234.137 66.16 235.668 67.5078 237.261 68.8555L275.977 35.7142L244.122 75.1652C245.286 76.3291 246.45 77.493 247.614 78.657L292.946 46.8021L254.291 86.3144C255.21 87.4783 256.068 88.6422 256.864 89.8061C257.293 90.4187 257.722 91.0313 258.151 91.7052L307.464 61.1368L263.725 100.955C264.154 101.752 264.644 102.548 265.073 103.344L321.248 76.8804L270.341 113.514C270.77 114.432 271.26 115.351 271.689 116.27L333.009 94.8907L276.467 127.236C276.712 127.909 277.018 128.645 277.263 129.318L340.606 114.984L281.245 140.59C281.552 141.57 281.858 142.489 282.164 143.408L347.834 135.506L285.472 155.047C287.31 162.153 288.168 166.38 288.596 166.258C323.943 155.415 353.654 154.864 353.654 154.864C342.995 67.2015 264.95 0 174.47 0Z" fill="#EA5F23"/>
<path d="M351.387 217.961C351.448 217.9 351.448 217.839 351.448 217.777C351.51 217.9 351.448 217.961 351.387 217.961Z" fill="#202347"/>
<path d="M354.021 204.238C354.021 204.299 353.838 204.299 353.654 204.422C353.286 204.299 353.348 204.177 354.021 204.238Z" fill="#202347"/>
<path d="M323.147 229.478C322.963 230.151 322.779 230.825 322.595 231.499C322.779 230.458 322.902 229.784 323.024 229.6C323.085 229.539 323.147 229.478 323.147 229.478Z" fill="#202347"/>
<path d="M351.448 217.715C351.448 217.592 351.387 217.164 351.265 216.612C351.51 216.98 351.632 217.409 351.448 217.715Z" fill="#202347"/>
</svg>
