<svg width="1337" height="346" viewBox="0 0 1337 346" fill="none" xmlns="http://www.w3.org/2000/svg">
<path d="M588.062 68.1295H548.045L536.721 160.93H511.7L525.397 49.6306H590.434L588.062 68.1295ZM633.703 104.669C637.273 104.669 640.257 104.159 642.655 103.14C645.103 102.07 647.067 100.592 648.546 98.7062C650.077 96.7695 651.174 94.4762 651.837 91.8265C652.499 89.1768 652.831 86.272 652.831 83.1121C652.831 80.921 652.525 78.9078 651.913 77.0732C651.352 75.2386 650.459 73.6588 649.235 72.3338C648.011 71.0088 646.455 69.9896 644.568 69.2761C642.731 68.5117 640.538 68.1295 637.987 68.1295H626.204L621.69 104.669H633.703ZM640.436 49.5541C647.067 49.5541 652.729 50.3695 657.422 52.0003C662.166 53.58 666.043 55.7969 669.052 58.6507C672.113 61.4536 674.358 64.7916 675.786 68.6646C677.214 72.4867 677.928 76.6145 677.928 81.0482C677.928 87.1128 676.984 92.7438 675.097 97.9418C673.261 103.089 670.43 107.548 666.604 111.319C662.778 115.091 657.932 118.046 652.066 120.186C646.2 122.327 639.262 123.397 631.254 123.397H619.394L614.727 160.93H589.936L603.556 49.5541H640.436ZM718.042 68.741L714.752 95.6486H746.276L743.828 114.148H712.457L709.013 141.743H750.561L748.113 160.93H681.545L695.317 49.5541H761.732L759.284 68.741H718.042ZM855.567 49.6306L841.867 160.93H816.851L822.054 118.581C816.287 120.008 810.826 121.027 805.679 121.639C800.575 122.25 795.882 122.377 791.597 122.021C787.313 121.613 783.513 120.671 780.197 119.193C776.881 117.664 774.152 115.498 772.01 112.695C769.918 109.841 768.464 106.274 767.648 101.993C766.832 97.6618 766.807 92.5145 767.572 86.552L772.086 49.6306H797.183L792.592 86.6284C792.133 90.3483 792.133 93.5589 792.592 96.2601C793.102 98.9098 794.454 100.923 796.647 102.299C798.841 103.675 802.131 104.337 806.517 104.287C810.907 104.236 816.77 103.319 824.116 101.535L830.543 49.6306H855.567ZM936.593 93.5846C935.167 95.5721 933.508 97.2281 931.623 98.5534C929.787 99.8786 927.797 100.949 925.655 101.764C928.812 102.681 931.39 104.159 933.379 106.198C935.425 108.236 937.205 111.09 938.735 114.759L955.19 160.93H932.388C930.141 160.93 928.329 160.344 926.952 159.172C925.631 157.999 924.479 156.267 923.513 153.974L911.802 118.658C910.94 116.467 909.869 115.014 908.588 114.3C907.316 113.536 905.584 113.154 903.385 113.154H892.907L887.011 160.93H862.148L875.84 49.5541H900.711L895.121 95.037H903.772C905.503 95.037 907.034 94.6806 908.363 93.9669C909.74 93.2531 911.061 91.9536 912.341 90.0683L934.144 55.8988C935.521 54.0642 937.076 52.5609 938.816 51.3887C940.596 50.1657 942.641 49.5541 944.937 49.5541H966.361L936.593 93.5846ZM1070.57 98.0947C1070.57 104.108 1069.85 109.867 1068.42 115.371C1067.05 120.874 1065.06 125.996 1062.46 130.735C1059.9 135.475 1056.79 139.781 1053.12 143.654C1049.5 147.527 1045.41 150.84 1040.88 153.591C1036.34 156.293 1031.41 158.407 1026.11 159.936C1020.8 161.414 1015.22 162.153 1009.35 162.153C1002.01 162.153 995.397 160.879 989.533 158.331C983.718 155.732 978.773 152.216 974.689 147.782C970.606 143.298 967.473 138.048 965.282 132.035C963.139 125.97 962.068 119.448 962.068 112.466C962.068 106.453 962.753 100.694 964.13 95.1899C965.556 89.6354 967.545 84.4881 970.098 79.7487C972.7 75.0093 975.841 70.703 979.514 66.83C983.186 62.957 987.286 59.67 991.828 56.969C996.371 54.2171 1001.29 52.1022 1006.6 50.6243C1011.9 49.0955 1017.51 48.3311 1023.43 48.3311C1030.72 48.3311 1037.28 49.6306 1043.09 52.2296C1048.96 54.7777 1053.91 58.294 1057.94 62.7786C1062.02 67.2631 1065.13 72.5376 1067.27 78.602C1069.46 84.6667 1070.57 91.1643 1070.57 98.0947ZM1045.01 98.7062C1045.01 94.1197 1044.45 89.9661 1043.33 86.2462C1042.26 82.4748 1040.65 79.2645 1038.5 76.6145C1036.41 73.9136 1033.84 71.8496 1030.78 70.4228C1027.72 68.9449 1024.25 68.2059 1020.37 68.2059C1015.27 68.2059 1010.7 69.2761 1006.67 71.4165C1002.65 73.5059 999.198 76.4617 996.347 80.2838C993.536 84.1059 991.369 88.7181 989.839 94.1197C988.357 99.4707 987.624 105.407 987.624 111.931C987.624 116.517 988.156 120.671 989.227 124.391C990.298 128.111 991.853 131.296 993.898 133.946C995.984 136.596 998.562 138.66 1001.62 140.138C1004.68 141.564 1008.18 142.278 1012.11 142.278C1017.21 142.278 1021.77 141.234 1025.8 139.144C1029.88 137.054 1033.32 134.099 1036.13 130.277C1038.99 126.455 1041.18 121.868 1042.72 116.517C1044.25 111.166 1045.01 105.23 1045.01 98.7062Z" fill="#EEEEEE"/>
<path d="M578.152 233.409H555.801L546.861 305.767H527.289L536.109 233.409H513.637L515.57 217.839H580.206L578.152 233.409ZM611.542 261.35C614.361 261.35 616.717 260.948 618.61 260.143C620.543 259.298 622.093 258.132 623.261 256.643C624.469 255.114 625.335 253.304 625.859 251.212C626.382 249.119 626.644 246.826 626.644 244.332C626.644 242.602 626.402 241.013 625.919 239.564C625.476 238.116 624.771 236.869 623.805 235.823C622.838 234.777 621.61 233.972 620.12 233.409C618.67 232.805 616.938 232.503 614.925 232.503H605.622L602.058 261.35H611.542ZM616.858 217.839C622.093 217.839 626.563 218.482 630.268 219.77C634.013 221.017 637.074 222.767 639.45 225.02C641.866 227.233 643.638 229.868 644.766 232.926C645.893 235.943 646.457 239.202 646.457 242.702C646.457 247.49 645.712 251.936 644.222 256.039C642.772 260.103 640.537 263.623 637.517 266.601C634.497 269.578 630.671 271.911 626.04 273.601C621.409 275.291 615.932 276.136 609.609 276.136H600.246L596.561 305.767H576.99L587.742 217.839H616.858ZM688.771 272.273L684.482 247.168C684.16 245.599 683.797 243.748 683.395 241.616C683.032 239.444 682.67 237.11 682.307 234.616C681.341 237.15 680.374 239.504 679.408 241.676C678.482 243.809 677.676 245.68 676.991 247.289L666.662 272.273H688.771ZM714.927 305.767H699.704C698.013 305.767 696.684 305.385 695.718 304.62C694.791 303.816 694.147 302.77 693.785 301.482L691.066 285.671H661.165L654.641 301.482C654.077 302.568 653.171 303.554 651.923 304.439C650.715 305.324 649.325 305.767 647.755 305.767H632.291L674.334 217.839H694.509L714.927 305.767ZM801.79 217.839L790.917 305.767H771.103L775.755 268.351H743.981L739.329 305.767H719.516L730.389 217.839H750.203L745.612 254.953H777.386L781.977 217.839H801.79ZM842.946 290.559C845.161 290.559 847.07 290.398 848.681 290.076C850.332 289.714 851.741 289.272 852.909 288.749C854.077 288.225 855.068 287.662 855.873 287.059C856.679 286.415 857.404 285.832 858.048 285.309C858.692 284.786 859.296 284.363 859.86 284.041C860.424 283.679 861.028 283.498 861.672 283.498C862.317 283.498 862.84 283.619 863.243 283.86C863.686 284.061 864.008 284.303 864.209 284.584L871.096 292.852C867.27 297.399 862.719 300.859 857.444 303.232C852.209 305.566 846.248 306.732 839.563 306.732C834.006 306.732 829.069 305.767 824.76 303.836C820.491 301.864 816.891 299.169 813.951 295.749C811.011 292.329 808.772 288.286 807.242 283.619C805.752 278.912 805.008 273.842 805.008 268.411C805.008 263.382 805.575 258.614 806.702 254.108C807.83 249.602 809.417 245.438 811.47 241.616C813.524 237.794 815.981 234.354 818.84 231.296C821.739 228.239 824.945 225.644 828.449 223.511C831.952 221.379 835.714 219.75 839.741 218.623C843.768 217.456 847.98 216.873 852.37 216.873C855.672 216.873 858.668 217.195 861.366 217.839C864.105 218.442 866.561 219.307 868.736 220.434C870.951 221.52 872.924 222.827 874.656 224.356C876.387 225.885 877.901 227.575 879.19 229.426L872.304 237.392C871.821 237.955 871.257 238.458 870.612 238.9C869.968 239.343 869.122 239.564 868.075 239.564C867.391 239.564 866.763 239.403 866.199 239.081C865.635 238.76 865.055 238.377 864.451 237.935C863.887 237.452 863.243 236.929 862.518 236.366C861.793 235.802 860.923 235.3 859.916 234.857C858.91 234.374 857.702 233.972 856.292 233.65C854.923 233.328 853.296 233.167 851.403 233.167C847.698 233.167 844.235 233.952 841.013 235.521C837.832 237.09 835.053 239.343 832.677 242.28C830.341 245.177 828.505 248.717 827.176 252.901C825.847 257.045 825.187 261.692 825.187 266.842C825.187 270.584 825.63 273.923 826.516 276.86C827.442 279.797 828.69 282.291 830.261 284.343C831.831 286.355 833.7 287.904 835.875 288.99C838.049 290.036 840.409 290.559 842.946 290.559ZM937.454 290.559C939.669 290.559 941.578 290.398 943.189 290.076C944.84 289.714 946.25 289.272 947.417 288.749C948.585 288.225 949.576 287.662 950.381 287.059C951.187 286.415 951.912 285.832 952.556 285.309C953.2 284.786 953.804 284.363 954.368 284.041C954.932 283.679 955.536 283.498 956.18 283.498C956.825 283.498 957.348 283.619 957.751 283.86C958.194 284.061 958.516 284.303 958.717 284.584L965.604 292.852C961.778 297.399 957.228 300.859 951.952 303.232C946.717 305.566 940.757 306.732 934.072 306.732C928.514 306.732 923.577 305.767 919.268 303.836C914.999 301.864 911.399 299.169 908.459 295.749C905.519 292.329 903.28 288.286 901.75 283.619C900.26 278.912 899.519 273.842 899.519 268.411C899.519 263.382 900.083 258.614 901.21 254.108C902.338 249.602 903.925 245.438 905.979 241.616C908.032 237.794 910.489 234.354 913.348 231.296C916.248 228.239 919.453 225.644 922.957 223.511C926.46 221.379 930.222 219.75 934.249 218.623C938.276 217.456 942.488 216.873 946.878 216.873C950.18 216.873 953.176 217.195 955.874 217.839C958.613 218.442 961.069 219.307 963.244 220.434C965.459 221.52 967.432 222.827 969.164 224.356C970.896 225.885 972.41 227.575 973.698 229.426L966.812 237.392C966.329 237.955 965.765 238.458 965.121 238.9C964.476 239.343 963.631 239.564 962.584 239.564C961.899 239.564 961.271 239.403 960.707 239.081C960.143 238.76 959.563 238.377 958.959 237.935C958.395 237.452 957.751 236.929 957.026 236.366C956.301 235.802 955.431 235.3 954.425 234.857C953.418 234.374 952.21 233.972 950.8 233.65C949.431 233.328 947.804 233.167 945.911 233.167C942.206 233.167 938.743 233.952 935.521 235.521C932.34 237.09 929.561 239.343 927.185 242.28C924.85 245.177 923.013 248.717 921.684 252.901C920.355 257.045 919.695 261.692 919.695 266.842C919.695 270.584 920.138 273.923 921.024 276.86C921.95 279.797 923.198 282.291 924.769 284.343C926.34 286.355 928.208 287.904 930.383 288.99C932.557 290.036 934.917 290.559 937.454 290.559ZM999.995 232.986L997.394 254.229H1022.28L1020.35 268.833H995.582L992.867 290.619H1025.66L1023.73 305.767H971.177L982.051 217.839H1034.48L1032.55 232.986H999.995ZM1067.97 261.35C1070.79 261.35 1073.14 260.948 1075.04 260.143C1076.97 259.298 1078.52 258.132 1079.69 256.643C1080.9 255.114 1081.76 253.304 1082.29 251.212C1082.81 249.119 1083.07 246.826 1083.07 244.332C1083.07 242.602 1082.83 241.013 1082.35 239.564C1081.91 238.116 1081.2 236.869 1080.23 235.823C1079.26 234.777 1078.04 233.972 1076.55 233.409C1075.1 232.805 1073.37 232.503 1071.36 232.503H1062.05L1058.49 261.35H1067.97ZM1073.29 217.839C1078.52 217.839 1082.99 218.482 1086.7 219.77C1090.44 221.017 1093.5 222.767 1095.88 225.02C1098.3 227.233 1100.07 229.868 1101.2 232.926C1102.32 235.943 1102.89 239.202 1102.89 242.702C1102.89 247.49 1102.14 251.936 1100.65 256.039C1099.2 260.103 1096.97 263.623 1093.95 266.601C1090.93 269.578 1087.1 271.911 1082.47 273.601C1077.84 275.291 1072.36 276.136 1066.04 276.136H1056.67L1052.99 305.767H1033.42L1044.17 217.839H1073.29ZM1137.75 290.981C1140.17 290.981 1142.21 290.639 1143.86 289.956C1145.51 289.231 1146.84 288.246 1147.85 286.998C1148.89 285.711 1149.63 284.222 1150.08 282.533C1150.56 280.843 1150.8 278.992 1150.8 276.981C1150.8 275.653 1150.63 274.446 1150.26 273.36C1149.94 272.273 1149.35 271.368 1148.51 270.644C1147.7 269.879 1146.61 269.296 1145.25 268.894C1143.92 268.451 1142.27 268.23 1140.29 268.23H1127.61L1124.83 290.981H1137.75ZM1131.96 232.503L1129.18 255.195H1138.6C1140.82 255.195 1142.81 254.973 1144.58 254.531C1146.36 254.088 1147.86 253.344 1149.11 252.298C1150.4 251.212 1151.39 249.783 1152.08 248.013C1152.76 246.243 1153.1 244.05 1153.1 241.435C1153.1 238.176 1152.24 235.883 1150.5 234.555C1148.81 233.187 1146.17 232.503 1142.59 232.503H1131.96ZM1144.4 217.839C1149.51 217.839 1153.89 218.321 1157.51 219.287C1161.18 220.253 1164.16 221.641 1166.45 223.451C1168.79 225.221 1170.48 227.374 1171.53 229.908C1172.61 232.403 1173.15 235.179 1173.15 238.237C1173.15 240.65 1172.83 242.984 1172.19 245.237C1171.58 247.45 1170.6 249.502 1169.23 251.393C1167.9 253.284 1166.17 254.993 1164.04 256.522C1161.94 258.051 1159.38 259.359 1156.36 260.445C1161.11 261.732 1164.62 263.744 1166.87 266.48C1169.13 269.175 1170.25 272.595 1170.25 276.739C1170.25 280.803 1169.47 284.605 1167.9 288.145C1166.37 291.645 1164.13 294.703 1161.19 297.318C1158.25 299.933 1154.67 302.005 1150.44 303.534C1146.25 305.023 1141.5 305.767 1136.18 305.767H1103.32L1114.2 217.839H1144.4ZM1258.51 217.839L1247.69 305.767H1227.95L1233.74 257.065C1234.07 254.853 1234.45 252.519 1234.89 250.065C1235.33 247.57 1235.92 244.935 1236.64 242.159C1235.44 244.613 1234.16 246.907 1232.83 249.039C1231.55 251.131 1230.32 252.982 1229.15 254.591L1200.58 299.853C1200.05 300.537 1199.45 301.241 1198.77 301.965C1198.08 302.649 1197.34 303.272 1196.53 303.836C1195.73 304.399 1194.86 304.862 1193.93 305.224C1193.05 305.586 1192.14 305.767 1191.22 305.767H1176.36L1187.17 217.839H1206.92L1201.13 266.48C1200.8 268.733 1200.42 271.127 1199.97 273.661C1199.53 276.156 1198.95 278.791 1198.23 281.567C1199.39 279.073 1200.64 276.759 1201.97 274.627C1203.3 272.454 1204.55 270.584 1205.72 269.014L1234.28 223.692C1234.81 223.009 1235.41 222.325 1236.1 221.641C1236.78 220.916 1237.53 220.273 1238.34 219.709C1239.14 219.146 1239.99 218.704 1240.87 218.382C1241.8 218.02 1242.73 217.839 1243.65 217.839H1258.51ZM1299.72 290.559C1301.94 290.559 1303.86 290.398 1305.47 290.076C1307.12 289.714 1308.53 289.272 1309.7 288.749C1310.86 288.225 1311.85 287.662 1312.65 287.059C1313.46 286.415 1314.18 285.832 1314.83 285.309C1315.47 284.786 1316.08 284.363 1316.64 284.041C1317.2 283.679 1317.81 283.498 1318.45 283.498C1319.1 283.498 1319.62 283.619 1320.02 283.86C1320.46 284.061 1320.79 284.303 1320.99 284.584L1327.87 292.852C1324.05 297.399 1319.5 300.859 1314.22 303.232C1308.99 305.566 1303.03 306.732 1296.34 306.732C1290.78 306.732 1285.86 305.767 1281.55 303.836C1277.28 301.864 1273.67 299.169 1270.73 295.749C1267.79 292.329 1265.56 288.286 1264.03 283.619C1262.54 278.912 1261.79 273.842 1261.79 268.411C1261.79 263.382 1262.35 258.614 1263.48 254.108C1264.61 249.602 1266.2 245.438 1268.26 241.616C1270.31 237.794 1272.77 234.354 1275.63 231.296C1278.53 228.239 1281.72 225.644 1285.23 223.511C1288.73 221.379 1292.5 219.75 1296.53 218.623C1300.55 217.456 1304.76 216.873 1309.15 216.873C1312.45 216.873 1315.45 217.195 1318.15 217.839C1320.89 218.442 1323.35 219.307 1325.52 220.434C1327.74 221.52 1329.71 222.827 1331.44 224.356C1333.17 225.885 1334.68 227.575 1335.97 229.426L1329.08 237.392C1328.6 237.955 1328.04 238.458 1327.39 238.9C1326.75 239.343 1325.9 239.564 1324.85 239.564C1324.17 239.564 1323.55 239.403 1322.99 239.081C1322.42 238.76 1321.83 238.377 1321.23 237.935C1320.67 237.452 1320.02 236.929 1319.3 236.366C1318.57 235.802 1317.71 235.3 1316.7 234.857C1315.7 234.374 1314.49 233.972 1313.08 233.65C1311.71 233.328 1310.07 233.167 1308.18 233.167C1304.48 233.167 1301.01 233.952 1297.79 235.521C1294.61 237.09 1291.83 239.343 1289.46 242.28C1287.12 245.177 1285.29 248.717 1283.96 252.901C1282.63 257.045 1281.97 261.692 1281.97 266.842C1281.97 270.584 1282.41 273.923 1283.29 276.86C1284.22 279.797 1285.47 282.291 1287.04 284.343C1288.61 286.355 1290.49 287.904 1292.66 288.99C1294.84 290.036 1297.19 290.559 1299.72 290.559Z" fill="#EEEEEE"/>
<path d="M434.944 217.781C435.004 217.72 435.065 217.599 435.065 217.539C435.065 217.72 435.004 217.781 434.944 217.781Z" fill="#EEEEEE"/>
<path d="M397.215 233.168C396.992 234.055 396.771 234.941 396.493 235.828C396.715 234.443 396.937 233.556 397.103 233.279C397.103 233.223 397.159 233.223 397.215 233.168Z" fill="#EEEEEE"/>
<path d="M435.055 217.486C434.999 217.32 434.945 216.766 434.833 215.99C435.166 216.544 435.222 217.043 435.055 217.486Z" fill="#EEEEEE"/>
<path d="M329.519 218.553C329.58 218.492 329.58 218.431 329.641 218.371C329.641 218.492 329.58 218.553 329.519 218.553Z" fill="#EEEEEE"/>
<path d="M331.962 205.843C331.962 205.899 331.795 205.954 331.629 206.009C331.296 205.843 331.351 205.788 331.962 205.843Z" fill="#EEEEEE"/>
<path d="M303.272 229.231C303.105 229.841 302.939 230.506 302.772 231.116C302.939 230.118 303.05 229.508 303.216 229.342C303.216 229.287 303.272 229.287 303.272 229.231Z" fill="#EEEEEE"/>
<path d="M329.63 218.372C329.63 218.261 329.574 217.873 329.464 217.318C329.686 217.706 329.741 218.039 329.63 218.372Z" fill="#EEEEEE"/>
<path d="M326.986 239.15C327.041 239.206 327.153 239.261 327.264 239.261H328.484C328.706 239.261 328.873 239.095 328.873 238.874V238.707L326.986 239.15Z" fill="#EEEEEE"/>
<path d="M396.9 271.853L396.678 272.185C396.734 272.074 396.734 271.963 396.789 271.853H396.9Z" fill="#EEEEEE"/>
<path d="M295.909 239.039C295.965 239.095 296.021 239.151 296.132 239.151H297.075C297.242 239.151 297.353 239.039 297.353 238.873V238.763L295.909 239.039Z" fill="#EEEEEE"/>
<path d="M295.909 239.039C295.965 239.095 296.021 239.151 296.132 239.151H297.075C297.242 239.151 297.353 239.039 297.353 238.873V238.763L295.909 239.039Z" fill="#EEEEEE"/>
<path d="M95.9161 39.1533C95.2596 39.392 94.6031 39.5711 94.0659 39.8695C89.8283 41.6004 85.8294 43.3312 82.0692 45.0621L75.3845 33.6026C80.8755 29.544 86.6053 25.7839 92.5141 22.3818L95.9161 39.1533Z" fill="#EEEEEE"/>
<path d="M112.389 35.214C107.495 36.0496 103.018 37.0045 99.3178 38.0192L93.7671 21.6058C99.5565 18.3232 105.525 15.3986 111.673 12.7725L112.389 35.214Z" fill="#EEEEEE"/>
<path d="M439.944 306.78H453.85C453.91 306.78 454.029 306.78 454.089 306.78C454.089 306.064 454.089 305.407 454.029 304.691L367.606 306.004C363.129 306.243 359.011 304.273 357.161 297.469C357.161 297.469 357.161 297.23 357.161 297.051V257.361C357.161 257.003 357.399 256.764 357.758 256.764H359.727C360.085 256.764 360.324 257.062 360.324 257.361V296.753C361.577 302.005 363.905 301.468 370.172 302.304C370.59 302.363 370.948 302.423 371.306 302.483H453.91C453.492 294.007 452.298 284.935 452.298 276.639C452.298 258.674 451.463 240.231 445.494 226.205C444.002 222.803 451.403 220.476 449.314 217.611C445.733 212.717 440.302 210.628 433.677 208.598C422.396 205.196 410.28 193.08 398.821 188.186C381.811 180.845 363.189 175.175 342.956 175.175C314.605 175.175 273.96 197.437 238.149 219.222C238.089 219.282 238.03 219.282 237.97 219.342C222.034 228.175 205.501 238.142 188.849 248.587C150.77 272.402 80.6406 295.321 54.4986 274.789C49.4254 272.402 86.5494 310.958 135.909 310.242C157.276 309.943 183.657 305.288 217.021 299.618C217.259 299.558 217.617 299.498 218.095 299.439C218.334 299.379 218.632 299.379 218.93 299.319C224.72 298.484 238.865 296.634 246.565 297.589C274.915 300.991 282.853 304.81 292.94 314.42C300.758 321.94 310.666 340.621 320.693 343.785C330.123 346.769 334.003 346.053 344.746 345.516C358.354 344.859 351.67 336.026 362.592 336.026C376.379 336.026 384.317 336.384 395.419 336.026C400.492 335.906 403.476 343.128 407.952 343.188C413.981 343.367 417.86 343.844 421.441 342.233C425.798 340.263 426.753 335.966 429.558 334.354C434.214 331.728 438.511 334.713 443.047 332.564C444.36 331.967 445.673 331.012 446.986 329.58H439.765C438.869 329.58 438.153 328.863 438.153 327.968V323.85C438.153 322.955 438.869 322.238 439.765 322.238H447.285C448.18 322.238 448.896 322.955 448.896 323.85V327.491C449.672 326.536 450.388 325.402 451.045 324.089C451.761 322.776 452.358 321.283 452.776 319.732L452.179 320.746L433.14 320.985C433.14 321.045 433.199 321.164 433.199 321.224V323.074C433.199 323.432 432.901 323.731 432.543 323.731H416.487C416.129 323.731 415.831 323.432 415.831 323.074V321.224C415.831 321.224 415.831 321.224 415.831 321.164H413.742C413.742 321.224 413.742 321.283 413.742 321.343V322.955C413.742 323.372 413.384 323.731 412.966 323.731H397.15C396.732 323.731 396.374 323.372 396.374 322.955V321.403L357.698 321.88H356.265C352.983 321.94 347.014 321.88 345.701 321.642C340.33 320.508 338.36 316.867 338.181 314.3V313.584L337.942 305.049L335.555 293.172C335.256 292.754 334.958 292.277 334.659 291.68C333.525 289.054 330.302 286.427 326.662 286.547C324.155 286.607 321.23 286.845 320.037 286.189C319.917 286.129 319.858 286.069 319.738 285.95C319.679 285.89 319.619 285.831 319.559 285.771C315.859 280.459 318.783 235.337 320.335 225.37C320.514 224.713 320.693 224.057 320.872 223.4C321.111 223.042 321.588 222.982 322.126 223.042C327.557 220.953 342.18 213.552 343.254 212.717C343.851 212.299 344.627 211.224 344.448 210.687C343.493 209.673 341.941 205.733 341.762 202.988C341.643 201.257 341.762 200.063 341.762 197.915C341.762 195.468 341.762 193.379 343.373 191.469C345.642 188.723 349.7 187.947 353.102 187.351C357.578 186.515 361.219 186.754 362.055 186.813C369.336 187.291 381.094 187.768 396.612 188.365C398.164 190.335 398.343 193.259 396.851 193.08C386.526 191.588 362.353 188.067 349.879 191.409C346.895 192.185 344.806 199.168 346.537 202.809C347.193 204.241 347.91 208.718 348.208 210.807C348.268 211.404 348.327 211.762 348.387 211.881C348.387 211.941 348.327 212 348.327 212.06C348.268 212.179 348.148 212.299 348.029 212.418C345.94 214.149 326.065 223.4 324.513 224.594C324.274 224.773 324.095 224.833 323.857 224.833C323.14 233.308 321.35 270.73 322.424 282.906C322.424 282.966 322.424 283.085 322.424 283.145C322.484 283.145 322.543 283.204 322.603 283.204C324.394 284.1 328.989 283.503 330.482 283.384C336.868 282.966 341.165 288.695 341.523 291.501L342.717 302.005L345.104 312.689V312.748C345.283 313.047 345.462 313.405 345.642 313.763C346.656 316.449 349.402 318.657 353.042 318.777C354.176 318.777 355.191 318.836 356.146 318.836L452.955 319.015C453.194 318.24 453.313 317.404 453.492 316.568H439.944C439.048 316.568 438.332 315.852 438.332 314.957V308.033C438.332 307.437 439.048 306.78 439.944 306.78ZM415.712 326.416C415.712 325.999 416.07 325.64 416.487 325.64H432.304C432.722 325.64 433.08 325.999 433.08 326.416V328.028C433.08 328.446 432.722 328.804 432.304 328.804H416.487C416.07 328.804 415.712 328.446 415.712 328.028V326.416ZM396.254 326.416C396.254 325.999 396.612 325.64 397.03 325.64H412.847C413.264 325.64 413.623 325.999 413.623 326.416V328.028C413.623 328.446 413.264 328.804 412.847 328.804H397.03C396.612 328.804 396.254 328.446 396.254 328.028V326.416ZM374.827 323.969C374.827 323.074 375.544 322.358 376.439 322.358H383.78C384.675 322.358 385.392 323.074 385.392 323.969V328.088C385.392 328.983 384.675 329.699 383.78 329.699H376.439C375.544 329.699 374.827 328.983 374.827 328.088V323.969ZM330.362 309.824C333.884 309.824 336.748 315.792 336.748 323.134C336.748 330.475 333.884 336.443 330.362 336.443C326.841 336.443 323.976 330.475 323.976 323.134C323.976 315.792 326.841 309.824 330.362 309.824ZM336.39 254.974C336.39 255.57 336.032 256.108 335.435 256.346L331.019 257.958C329.944 258.376 328.751 257.54 328.751 256.406V230.145C328.751 229.548 329.109 229.011 329.646 228.772L334.301 226.802C335.256 226.384 336.331 227.101 336.331 228.175V254.974H336.39ZM359.429 251.81L360.801 220.356C360.801 218.029 365.934 220.953 368.262 220.953L408.37 223.579C409.266 223.639 421.62 225.728 419.472 228.115L418.099 251.392C418.099 253.72 417.025 255.988 414.757 255.988L364.263 254.974C363.487 255.033 359.429 252.526 359.429 251.81ZM450.866 296.096C450.866 296.992 450.15 297.708 449.254 297.708H367.486C366.591 297.708 365.875 296.992 365.875 296.096V292.098C365.875 291.202 366.591 290.486 367.486 290.486H449.314C450.209 290.486 450.926 291.202 450.926 292.098V296.096H450.866ZM450.866 287.024C450.866 287.92 450.15 288.636 449.254 288.636H367.486C366.591 288.636 365.875 287.92 365.875 287.024V283.025C365.875 282.13 366.591 281.414 367.486 281.414H449.314C450.209 281.414 450.926 282.13 450.926 283.025V287.024H450.866ZM449.254 267.149C450.15 267.149 450.866 267.865 450.866 268.761V277.773C450.866 278.668 450.15 279.385 449.254 279.385H367.486C366.591 279.385 365.875 278.668 365.875 277.773V268.761C365.875 267.865 366.591 267.149 367.486 267.149H449.254ZM421.501 251.273V232.771C421.501 232.174 421.978 231.696 422.575 231.696H423.112C423.709 231.696 424.187 232.174 424.187 232.771V251.273C424.187 251.87 423.709 252.347 423.112 252.347H422.575C421.978 252.288 421.501 251.81 421.501 251.273ZM430.454 253.481V230.682C430.454 230.085 430.931 229.607 431.528 229.607H433.975C434.572 229.607 435.049 230.085 435.049 230.682V253.481C435.049 254.078 434.572 254.556 433.975 254.556H431.528C430.931 254.556 430.454 254.078 430.454 253.481ZM355.191 249.96C355.191 250.617 354.773 251.213 354.117 251.333L341.404 254.496C340.568 254.735 339.733 254.019 339.733 253.123V225.847C339.733 225.31 340.031 224.773 340.509 224.534L353.221 218.208C354.117 217.79 355.131 218.446 355.131 219.521V249.96H355.191ZM350.416 199.228H350.476C351.849 199.944 359.369 202.212 359.369 202.212C361.995 203.346 368.083 202.69 385.511 204.122C402.223 205.495 409.027 203.167 422.814 206.39C424.784 206.867 434.99 210.031 434.99 210.09C426.813 209.136 374.768 205.853 357.28 206.092C354.535 206.151 349.461 200.481 350.416 199.228ZM385.332 315.315C385.332 316.21 384.616 316.926 383.72 316.926H369.814C368.919 316.926 368.202 316.21 368.202 315.315V308.391C368.202 307.496 368.919 306.78 369.814 306.78H383.72C384.616 306.78 385.332 307.496 385.332 308.391V315.315ZM433.14 315.315C433.14 316.21 432.423 316.926 431.528 316.926H397.806C396.911 316.926 396.195 316.21 396.195 315.315V313.465C396.195 312.569 396.911 311.853 397.806 311.853H431.528C432.423 311.853 433.14 312.569 433.14 313.465V315.315Z" fill="#EEEEEE"/>
<path d="M140.266 45.1208L140.445 45.2402C53.6031 51.2087 6.81015 114.355 5.91487 178.815C5.67613 197.616 16.8372 255.092 47.5152 269.238C103.559 273.177 174.584 225.309 174.584 225.309C174.584 225.309 247.937 171.414 270.617 168.191C276.646 117.399 218.632 40.5847 140.266 45.1208Z" fill="#EEEEEE"/>
<path d="M46.083 66.7881L43.0987 63.207C40.8904 65.5944 38.8014 68.0415 36.7124 70.5483C31.5199 76.7555 26.0885 83.2015 23.7608 91.0202C23.6415 91.438 23.5221 91.7364 23.4624 91.9751C24.5964 89.5281 29.9681 79.3816 46.083 66.7881Z" fill="#EEEEEE"/>
<path d="M62.0189 55.8648L57.7215 48.4639C52.9467 52.8209 48.351 57.4763 43.9343 62.3108L47.217 65.8322C51.3949 62.6689 56.2891 59.2668 62.0189 55.8648Z" fill="#EEEEEE"/>
<path d="M79.4468 46.4951L74.1945 34.7969C68.9422 38.6764 63.869 42.914 58.9749 47.3307L64.1674 54.6123C68.7035 51.9264 73.8364 49.2406 79.4468 46.4951Z" fill="#EEEEEE"/>
<path d="M175.898 0C153.277 0 132.208 4.53605 112.87 12.5935L117.406 34.6172C122.062 33.901 127.016 33.3042 131.85 32.8864L133.402 6.50565L136.327 32.5283C141.042 32.1702 145.637 31.9314 149.756 31.9314L154.65 2.14866L154.829 31.9911C156.918 32.0508 158.828 32.1702 160.559 32.4089C163.006 32.7073 165.632 33.1251 168.377 33.6623L175.838 2.20834L173.689 34.7963C176.674 35.5125 179.777 36.3481 182.881 37.3031L199.891 3.52141L189.446 39.5114C192.49 40.526 195.474 41.7197 198.458 42.9134L220.005 9.96738L205.084 45.7783C207.769 46.972 210.336 48.2254 212.783 49.5385L238.626 16.2343L219.468 53.3583C221.915 54.8504 224.123 56.4022 226.033 57.954L256.532 24.4111L232.539 63.2063C234.031 64.4597 235.523 65.7727 237.075 67.0858L274.795 34.7963L243.759 73.2334C244.893 74.3674 246.027 75.5014 247.161 76.6354L291.328 45.5993L253.667 84.096C254.562 85.23 255.398 86.364 256.174 87.498C256.592 88.0949 257.009 88.6917 257.427 89.3483L305.474 59.5655L262.858 98.3607C263.276 99.1366 263.754 99.9125 264.172 100.688L318.903 74.9045L269.304 110.596C269.722 111.491 270.2 112.387 270.618 113.282L330.362 92.4519L275.273 123.966C275.512 124.622 275.81 125.338 276.049 125.995L337.763 112.029L279.928 136.977C280.227 137.932 280.525 138.827 280.824 139.722L344.806 132.023L284.047 151.062C285.837 157.986 286.673 162.104 287.091 161.985C321.529 151.421 350.476 150.883 350.476 150.883C340.091 65.4743 264.052 0 175.898 0Z" fill="#EEEEEE"/>
<path d="M348.267 212.36C348.327 212.3 348.327 212.24 348.327 212.181C348.387 212.3 348.327 212.36 348.267 212.36Z" fill="#EEEEEE"/>
<path d="M350.834 198.989C350.834 199.048 350.655 199.048 350.476 199.168C350.118 199.048 350.177 198.929 350.834 198.989Z" fill="#EEEEEE"/>
<path d="M320.753 223.58C320.574 224.237 320.395 224.893 320.216 225.55C320.395 224.535 320.514 223.879 320.633 223.699C320.693 223.64 320.753 223.58 320.753 223.58Z" fill="#EEEEEE"/>
<path d="M348.327 212.119C348.327 212 348.267 211.582 348.148 211.045C348.387 211.403 348.506 211.821 348.327 212.119Z" fill="#EEEEEE"/>
</svg>
