<svg width="99" height="27" viewBox="0 0 99 27" fill="none" xmlns="http://www.w3.org/2000/svg">
<path d="M90.3536 14.3535C90.5488 14.1583 90.5488 13.8417 90.3536 13.6464L87.1716 10.4645C86.9763 10.2692 86.6597 10.2692 86.4645 10.4645C86.2692 10.6597 86.2692 10.9763 86.4645 11.1716L89.2929 14L86.4645 16.8284C86.2692 17.0237 86.2692 17.3403 86.4645 17.5355C86.6597 17.7308 86.9763 17.7308 87.1716 17.5355L90.3536 14.3535ZM4.37114e-08 14.5L90 14.5L90 13.5L-4.37114e-08 13.5L4.37114e-08 14.5Z" fill="#333333"/>
<path d="M73.834 9C75.6405 4.31994 80.1823 1 85.4995 1C92.4031 1 97.9995 6.59644 97.9995 13.5C97.9995 20.4036 92.4031 26 85.4995 26C80.1823 26 75.6405 22.6801 73.834 18" stroke="#F66D46"/>
</svg>
