<svg width="25" height="25" viewBox="0 0 25 25" fill="none" xmlns="http://www.w3.org/2000/svg">
<g clip-path="url(#clip0_0:103)">
<path d="M22.8027 2.97852H2.19728C1.85905 2.97852 1.54239 3.06167 1.25592 3.19873L12.4512 14.394L14.9604 11.9825C14.9604 11.9825 14.9606 11.9823 14.9607 11.9822C14.9607 11.9821 14.9609 11.982 14.9609 11.982L23.7444 3.19893C23.4579 3.06177 23.1411 2.97852 22.8027 2.97852Z" fill="#F66D46"/>
<path d="M24.7802 4.23486L16.5145 12.5002L24.7799 20.7657C24.917 20.4792 25.0002 20.1625 25.0002 19.8243V5.17588C25.0002 4.83784 24.9172 4.52124 24.7802 4.23486Z" fill="#F66D46"/>
<path d="M0.220215 4.23438C0.0831543 4.52085 0 4.8375 0 5.17573V19.8242C0 20.1622 0.0830566 20.4789 0.22002 20.7653L8.48579 12.5L0.220215 4.23438Z" fill="#F66D46"/>
<path d="M15.4786 13.5357L12.969 15.9475C12.826 16.0906 12.6386 16.1621 12.4512 16.1621C12.2639 16.1621 12.0764 16.0906 11.9334 15.9475L9.52147 13.5356L1.25555 21.801C1.54208 21.9382 1.85892 22.0214 2.19725 22.0214H22.8027C23.141 22.0214 23.4576 21.9383 23.7441 21.8012L15.4786 13.5357Z" fill="#F66D46"/>
</g>
<defs>
<clipPath id="clip0_0:103">
<rect width="25" height="25" fill="white"/>
</clipPath>
</defs>
</svg>
