<svg width="25" height="25" viewBox="0 0 25 25" fill="none" xmlns="http://www.w3.org/2000/svg">
<path d="M12.5 2.14575C9.54078 2.14575 7.13297 4.55303 7.13297 7.51279V10.1202C7.13297 13.0794 9.54078 15.4872 12.5 15.4872C14.5517 15.4872 16.3389 14.3297 17.2411 12.6331C16.5775 12.8927 15.8631 13.0311 15.1326 13.0311H13.5728C13.1281 13.0311 12.7682 12.6707 12.7682 12.2265C12.7682 11.7818 13.1281 11.4219 13.5728 11.4219H15.1326C16.1415 11.4219 17.1075 11.0561 17.859 10.413C17.8644 10.3159 17.8671 10.2183 17.8671 10.1201V7.51274C17.8671 4.55303 15.4592 2.14575 12.5 2.14575Z" fill="#F66D46"/>
<path d="M20.0591 6.66626H19.9648C19.5428 2.92075 16.3564 0 12.5001 0C8.64377 0 5.4573 2.92075 5.03538 6.66621H4.94104C3.76702 6.66621 2.81189 7.62139 2.81189 8.79536C2.81189 9.96934 3.76702 10.9245 4.94104 10.9245H5.79202C6.23635 10.9245 6.59661 10.5643 6.59661 10.1199V7.51255C6.59661 4.25737 9.24495 1.60908 12.5001 1.60908C15.7553 1.60908 18.4036 4.25737 18.4036 7.5126V9.85107C18.239 10.0564 18.0563 10.2444 17.8591 10.4129C17.8162 11.2116 17.5973 11.9641 17.2412 12.633C18.1532 12.2767 18.9704 11.692 19.6046 10.9245H20.0592C21.2332 10.9245 22.1883 9.96934 22.1883 8.79536C22.1883 7.62139 21.2331 6.66626 20.0591 6.66626Z" fill="#F66D46"/>
<path d="M24.798 23.9486L22.3858 16.4683C22.3229 16.2733 22.188 16.1096 22.0086 16.0107L18.3131 13.9724C17.2027 15.6426 15.3925 16.8088 13.3044 17.0498V25.0001H24.0322C24.579 25.0001 24.9648 24.4662 24.798 23.9486Z" fill="#F66D46"/>
<path d="M6.68686 13.9724L2.99135 16.0107C2.81201 16.1097 2.67709 16.2733 2.61415 16.4683L0.202093 23.9486C0.0346127 24.4681 0.422894 25.0001 0.967816 25.0001H11.6953V17.0497C9.60727 16.8087 7.79726 15.6425 6.68686 13.9724Z" fill="#F66D46"/>
</svg>
