<svg width="27" height="39" viewBox="0 0 27 39" fill="none" xmlns="http://www.w3.org/2000/svg">
<path d="M27.1774 0H0V28.9502H27.1774V0Z" fill="#D90F23"/>
<path fill-rule="evenodd" clip-rule="evenodd" d="M1.74389 31.7014V33.1655C1.74389 33.5426 1.76654 33.587 2.08361 33.587H2.17421V33.9198H0V33.587H0.0905923C0.407664 33.587 0.430312 33.5426 0.430312 33.1655V30.4147C0.430312 30.0376 0.407664 29.9932 0.0905923 29.9932H0V29.6826H2.67246C3.05748 29.6826 3.26131 29.7048 3.3972 29.7714C3.66897 29.9045 3.80486 30.1928 3.80486 30.7031C3.80486 31.3908 3.55573 31.7679 3.10277 31.7679C3.05748 31.7679 3.05748 31.7679 3.01218 31.7679L3.80486 33.3208C3.94075 33.587 3.98604 33.6092 4.16723 33.6092H4.21252V33.9641H2.74041L1.74389 31.7014ZM1.74389 31.4795C1.78919 31.4795 1.87978 31.4795 1.87978 31.4795C2.31009 31.4795 2.44598 31.2799 2.44598 30.7475C2.44598 30.1263 2.33274 29.9488 1.94773 29.9488C1.90243 29.9488 1.81184 29.971 1.74389 29.971V31.4795Z" fill="#333333"/>
<path fill-rule="evenodd" clip-rule="evenodd" d="M7.26887 32.344H6.68002V32.2109C6.68002 31.9447 6.58943 31.9003 6.36295 31.9003H6.27236C6.13647 31.9003 6.06853 31.9447 6.06853 32.0334V33.2536C6.06853 33.5863 6.09118 33.6085 6.52149 33.6085H6.68002C7.01974 33.6085 7.11033 33.5863 7.20092 33.431C7.29151 33.3201 7.29151 33.2536 7.29151 32.943V32.6546H7.97095V33.9413H4.302V33.6085H4.41524C4.73231 33.6085 4.75496 33.5641 4.75496 33.187V30.4362C4.75496 30.059 4.73231 30.0147 4.41524 30.0147H4.302V29.7041H7.88036V30.8133H7.20092V30.6136C7.17827 30.1256 7.11033 30.059 6.58943 30.059H6.45354C6.09118 30.059 6.06853 30.0812 6.06853 30.4362V31.3014C6.06853 31.5232 6.09118 31.5454 6.31766 31.5454H6.40825C6.61208 31.5454 6.68002 31.501 6.68002 31.2348V31.1017H7.26887V32.344Z" fill="#333333"/>
<path fill-rule="evenodd" clip-rule="evenodd" d="M10.5763 33.942L9.08152 31.1689V33.1655C9.08152 33.5426 9.10417 33.587 9.44389 33.587H9.57978V33.9198H8.15295V33.587H8.24354C8.56062 33.587 8.58327 33.5426 8.58327 33.1655V30.4147C8.58327 30.0376 8.56062 29.9932 8.24354 29.9932H8.15295V29.6826H9.76096L11.369 32.5665V30.4369C11.369 30.0597 11.3463 30.0154 11.0066 30.0154H10.916V29.7048H12.3202V30.0154H12.2296C11.9125 30.0154 11.8672 30.0597 11.8672 30.4369V33.942H10.5763Z" fill="#333333"/>
<path fill-rule="evenodd" clip-rule="evenodd" d="M16.1707 33.2983C16.2386 33.5202 16.3066 33.5867 16.5104 33.5867H16.6237V33.9195H14.4268V33.5867H14.5627C14.6986 33.5867 14.7892 33.5202 14.7892 33.4314C14.7892 33.4093 14.7665 33.3649 14.7439 33.2762L14.5401 32.5663C14.4721 32.3666 14.4948 32.3666 14.2909 32.3666H13.453C13.3624 32.3888 13.3397 32.3888 13.3171 32.4997L13.068 33.2983C13.0453 33.3871 13.0453 33.3871 13.0453 33.4314C13.0453 33.5202 13.0906 33.5646 13.2265 33.5646H13.4077V33.8973H12.0941V33.5646H12.2074C12.4338 33.5424 12.4791 33.4758 12.5924 33.1652L13.4303 30.3479C13.453 30.2591 13.4756 30.2148 13.4756 30.1926C13.4756 30.0373 13.4077 29.9929 13.1586 29.9929H13.068V29.6602H15.0157L16.1707 33.2983ZM13.5209 31.8564C13.5209 31.9007 13.4983 31.9229 13.4983 31.9451C13.4983 31.9895 13.5436 32.0117 13.6115 32.0117H14.223C14.3136 32.0117 14.3589 31.9895 14.3589 31.9451C14.3589 31.9229 14.3589 31.9229 14.3362 31.8786L13.9286 30.37L13.5209 31.8564Z" fill="#333333"/>
<path fill-rule="evenodd" clip-rule="evenodd" d="M19.9081 32.8764C19.9081 33.675 19.4325 34.03 18.3681 34.03C17.2131 34.03 16.6469 33.6529 16.6469 32.8542V30.4362C16.6469 30.059 16.6016 30.0147 16.2846 30.0147H16.194V29.7041H18.3681V30.0147H18.2775C17.9605 30.0147 17.9378 30.059 17.9378 30.4362V32.8764C17.9378 33.187 17.9605 33.2757 18.0737 33.3867C18.2096 33.5198 18.3908 33.5863 18.6399 33.5863C19.1381 33.5863 19.3646 33.3423 19.3646 32.8764V30.4362C19.3646 30.059 19.342 30.0147 19.0249 30.0147H18.9343V29.7041H20.3158V30.0147H20.2026C19.8855 30.0147 19.8628 30.059 19.8628 30.4362V32.8764H19.9081Z" fill="#333333"/>
<path fill-rule="evenodd" clip-rule="evenodd" d="M23.9619 33.9413H20.4288V33.6085H20.5194C20.8365 33.6085 20.8818 33.5641 20.8818 33.187V30.4362C20.8818 30.059 20.8591 30.0147 20.5194 30.0147H20.4288V29.7041H22.6483V30.0147H22.5351C22.218 30.0147 22.1954 30.059 22.1954 30.4362V33.1426C22.1954 33.5863 22.218 33.6307 22.5804 33.6307H22.7616C23.1466 33.6085 23.2598 33.4754 23.2598 33.0095V32.6546H23.9619V33.9413Z" fill="#333333"/>
<path fill-rule="evenodd" clip-rule="evenodd" d="M27.2004 29.6599V30.9244H26.521V30.7469C26.521 30.3698 26.4984 30.2589 26.4078 30.1257C26.3398 30.037 26.2492 29.9926 26.136 29.9926C26.0228 29.9926 26.0001 30.037 26.0001 30.2145V33.165C26.0001 33.5421 26.0228 33.5865 26.3398 33.5865H26.4304V33.9192H24.2109V33.5865H24.3242C24.6412 33.5865 24.6639 33.5421 24.6639 33.165V30.2145C24.6639 30.0148 24.6412 29.9705 24.5054 29.9705C24.2336 29.9705 24.1203 30.1923 24.1203 30.7025V30.9022H23.4409V29.6377H27.2004V29.6599Z" fill="#333333"/>
<path fill-rule="evenodd" clip-rule="evenodd" d="M5.1864 34.6064V35.8931H4.50698V35.7156C4.50698 35.3385 4.48433 35.2276 4.39374 35.0945C4.30315 35.0058 4.21256 34.9392 4.12197 34.9392C4.00874 34.9392 3.98609 34.9836 3.98609 35.161V38.1115C3.98609 38.4887 4.00874 38.533 4.3258 38.533H4.41639V38.8658H2.2196V38.533H2.31018C2.62725 38.533 2.6499 38.4887 2.6499 38.1115V35.1832C2.6499 34.9836 2.62725 34.9392 2.51401 34.9392C2.24224 34.9392 2.12901 35.161 2.12901 35.6713V35.8931H1.44958V34.6064H5.1864Z" fill="#333333"/>
<path fill-rule="evenodd" clip-rule="evenodd" d="M6.99896 36.6708V38.1128C6.99896 38.4899 7.0216 38.5343 7.33868 38.5343H7.45192V38.867H5.27771V38.5343H5.3683C5.68537 38.5343 5.70802 38.4899 5.70802 38.1128V35.3841C5.70802 34.9848 5.68537 34.9626 5.3683 34.9626H5.27771V34.6299H7.95017C8.33519 34.6299 8.51637 34.6521 8.67491 34.7186C8.94668 34.8517 9.05992 35.1623 9.05992 35.6504C9.05992 36.3602 8.83344 36.7152 8.35784 36.7152C8.33519 36.7152 8.31254 36.7152 8.26724 36.7152L9.08257 38.2459C9.21846 38.5121 9.24111 38.5565 9.42229 38.5565H9.49023V38.8892H7.99547L6.99896 36.6708ZM6.99896 36.4046C7.0669 36.4046 7.13485 36.4046 7.15749 36.4046C7.56516 36.4046 7.72369 36.205 7.72369 35.6947C7.72369 35.0736 7.61045 34.8961 7.20279 34.8961C7.18014 34.8961 7.0669 34.8961 6.99896 34.8961V36.4046Z" fill="#333333"/>
<path fill-rule="evenodd" clip-rule="evenodd" d="M13.2718 37.8009C13.2718 38.5996 12.7962 38.9545 11.7318 38.9545C10.5768 38.9545 10.0106 38.5774 10.0106 37.7788V35.3607C10.0106 34.9614 9.96528 34.917 9.64821 34.917H9.55762V34.6064H11.7318V34.917H11.6412C11.3241 34.917 11.3015 34.9614 11.3015 35.3607V37.7788C11.3015 38.0893 11.3241 38.2003 11.4374 38.289C11.5733 38.4221 11.7545 38.4887 12.0036 38.4887C12.5018 38.4887 12.7283 38.2446 12.7283 37.7788V35.3607C12.7283 34.9614 12.7057 34.917 12.3886 34.917H12.298V34.6064H13.6569V34.917H13.5663C13.2718 34.917 13.2492 34.9614 13.2492 35.3607V37.8009H13.2718Z" fill="#333333"/>
<path fill-rule="evenodd" clip-rule="evenodd" d="M17.3702 35.7823H16.6682V35.5605C16.6682 35.0503 16.4417 34.7841 15.9887 34.7841C15.6263 34.7841 15.3772 34.9837 15.3093 35.3165C15.264 35.5605 15.2187 36.0042 15.2187 36.7141C15.2187 37.1356 15.2413 37.6014 15.264 37.8677C15.3093 38.4001 15.5358 38.6663 15.9887 38.6663C16.487 38.6663 16.6908 38.4001 16.6908 37.7567V37.5349H17.3702V38.7328C16.9399 38.9103 16.4643 38.999 15.8755 38.999C15.0828 38.999 14.5619 38.8216 14.2448 38.4444C13.973 38.1339 13.8824 37.6236 13.8824 36.7141C13.8824 35.0725 14.3807 34.54 15.8981 34.54C16.3964 34.54 16.6229 34.5622 17.2344 34.7175C17.257 34.7175 17.3249 34.7397 17.3702 34.7397V35.7823Z" fill="#333333"/>
<path fill-rule="evenodd" clip-rule="evenodd" d="M21.4922 38.3119C21.5828 38.5115 21.6281 38.5337 21.7867 38.5337H21.8546V38.8665H20.2693L19.5445 37.0918L19.318 37.4023V38.1122C19.318 38.4894 19.3633 38.5337 19.6804 38.5337H19.771V38.8665H17.5968V38.5337H17.6874C18.0045 38.5337 18.0271 38.4894 18.0271 38.1122V35.3836C18.0271 34.9843 18.0045 34.9399 17.6874 34.9399H17.5968V34.6293H19.771V34.9399H19.6804C19.3633 34.9399 19.318 34.9843 19.318 35.3836V36.6703L20.4278 35.2505L20.4957 35.1617C20.541 35.1174 20.5637 35.073 20.5637 35.0286C20.5637 34.9621 20.5184 34.9399 20.4504 34.9399H20.2466V34.585H21.5828V34.9399H21.4922C21.2205 34.9621 21.1978 34.9621 20.9487 35.2727L20.4051 35.9826L21.4922 38.3119Z" fill="#333333"/>
<path fill-rule="evenodd" clip-rule="evenodd" d="M25.1165 35.7609H24.437V35.6278C24.437 35.0732 24.2332 34.8069 23.7802 34.8069C23.3952 34.8069 23.214 35.0066 23.214 35.3837C23.214 35.7165 23.3499 35.8718 23.8255 36.0271L24.0747 36.1158C25.0938 36.4708 25.3656 36.7813 25.3656 37.5134C25.3656 37.9793 25.2524 38.312 25.0032 38.5339C24.6862 38.8445 24.2105 38.9997 23.6443 38.9997C23.214 38.9997 22.9422 38.9332 22.2628 38.6892L22.1269 38.6448V37.5356H22.8063V37.7352C22.8063 38.3786 23.0102 38.667 23.4858 38.667C23.9161 38.667 24.1426 38.423 24.1426 38.0015C24.1426 37.5356 24.0294 37.4247 23.2367 37.1585C22.3307 36.8479 22.1042 36.6039 22.1042 35.8496C22.1042 34.8957 22.5799 34.5186 23.7123 34.5186C24.1426 34.5186 24.6635 34.6073 25.1618 34.7182V35.7609H25.1165Z" fill="#333333"/>
<path fill-rule="evenodd" clip-rule="evenodd" d="M21.7417 14.3754V14.3976V14.4198V14.442V14.4642L21.7191 14.4864V14.5085V14.5307L21.6964 14.5529V14.5751L21.6738 14.5973V14.6195L21.6511 14.6416L21.6285 14.6638V14.686L21.6059 14.7082L16.0118 24.5579H15.9892V24.5801H16.0118V24.6023H15.9892H15.9665L15.9439 24.6245H15.9213H15.8986H15.876H15.8533H15.8307H11.1426H11.1199H11.0973H11.0746H11.052L11.0293 24.6023L11.0067 24.5801H10.984V24.5579L10.9614 24.5357L5.43532 14.7082V14.686L5.41267 14.6638L5.39002 14.6416V14.6195L5.36737 14.5973V14.5751V14.5529V14.5307V14.5085V14.4864V14.4642H5.34473V14.442V14.4198V14.3976V14.3754V14.3532V14.3311V14.3089V14.2867L5.36737 14.2645V14.2423V14.2201L5.39002 14.198V14.1758V14.1536L5.41267 14.1314L5.43532 14.1092V14.087L5.45797 14.0649L5.48061 14.0427V14.0205L11.0067 4.17077L11.0293 4.14858V4.1264H11.052V4.10421H11.0293H11.052V4.08203H11.0746H11.0973H11.1199H11.1426H11.1652H15.8986H15.9213H15.9439H15.9665H15.9892H16.0118H16.0345V4.10421H16.0571H16.0798V4.1264H16.1024V4.14858H16.1251L21.7191 14.0205L21.7417 14.0427V14.0649L21.7644 14.087L21.787 14.1092V14.1314L21.8097 14.1536V14.1758L21.8323 14.198V14.2423V14.2645L21.855 14.2867V14.3089V14.3311V14.3532V14.3754H21.7417ZM16.6686 14.3754L13.5659 8.25263L10.4178 14.3754L13.5659 20.4539L16.6686 14.3754Z" fill="#9D9D9C"/>
<path fill-rule="evenodd" clip-rule="evenodd" d="M21.9225 14.3764C21.9225 14.5095 21.8998 14.6426 21.7866 14.7979L16.1926 24.6476C16.1246 24.7586 16.0114 24.7807 15.8755 24.7807H11.1421C10.9836 24.7807 10.8703 24.7586 10.825 24.6255L5.29897 14.7757C5.20838 14.6426 5.16309 14.5095 5.16309 14.3542C5.16309 14.2211 5.20838 14.088 5.29897 13.9327L10.825 4.08302C10.893 3.94992 10.9836 3.92773 11.1421 3.92773H15.8755C16.0114 3.92773 16.1246 3.94992 16.1926 4.06084L21.7866 13.9106C21.8772 14.1102 21.9225 14.2433 21.9225 14.3764ZM16.1699 14.3764L13.5428 8.9857L10.9156 14.3764L13.5654 19.7228L16.1699 14.3764Z" fill="url(#paint0_linear_587_159)"/>
<path fill-rule="evenodd" clip-rule="evenodd" d="M16.6682 14.3748H16.1699L13.5427 8.98403V9.00621V8.27414L13.5654 8.25195L16.6682 14.3748Z" fill="url(#paint1_linear_587_159)"/>
<path fill-rule="evenodd" clip-rule="evenodd" d="M16.193 4.10408C15.423 5.39076 14.6303 6.7218 13.5432 9.00676L12.7053 10.7149L10.9161 14.3753H10.4178L13.5432 8.29687C14.3359 6.87709 15.1738 5.39076 16.0118 3.99316C16.1024 3.99316 16.1477 4.03753 16.193 4.10408Z" fill="url(#paint2_linear_587_159)"/>
<path fill-rule="evenodd" clip-rule="evenodd" d="M5.34473 14.3757V14.3535V14.3314V14.3092L5.36737 14.287V14.2426V14.2204L5.39002 14.1983V14.1761V14.1539L5.41267 14.1317L5.43532 14.1095V14.0873L5.45797 14.0652L5.48061 14.043V14.0208L11.0973 4.03795C11.1199 3.9714 11.1879 3.9714 11.2784 3.94922H16.0118C16.0345 3.9714 16.0345 3.9714 16.0571 3.9714C15.2418 5.32463 14.3359 6.87752 13.5885 8.23074L13.5659 8.25293L10.4178 14.3757H5.34473Z" fill="url(#paint3_linear_587_159)"/>
<path fill-rule="evenodd" clip-rule="evenodd" d="M16.6682 14.3757H21.7413C21.7413 14.2648 21.696 14.1539 21.6507 14.0651L16.102 4.25977C15.3999 5.41334 14.6752 6.65564 13.7466 8.60784L16.6682 14.3757Z" fill="url(#paint4_linear_587_159)"/>
<path fill-rule="evenodd" clip-rule="evenodd" d="M10.4178 14.375H10.9161L13.5432 19.7214V20.4534V20.4756L10.4178 14.375Z" fill="url(#paint5_linear_587_159)"/>
<path fill-rule="evenodd" clip-rule="evenodd" d="M10.8933 24.6247C11.6633 23.3381 12.456 21.9848 13.5431 19.7221L14.3811 18.0139L16.1703 14.3535H16.6686L13.5431 20.4541C12.7505 21.8739 11.8898 23.3381 11.0518 24.7578C10.9839 24.7578 10.9386 24.6913 10.8933 24.6247Z" fill="url(#paint6_linear_587_159)"/>
<path fill-rule="evenodd" clip-rule="evenodd" d="M21.7419 14.375V14.3972V14.4194V14.4416V14.4637V14.4859L21.7193 14.5081V14.5303V14.5525L21.6966 14.5747V14.5968L21.674 14.619V14.6412L21.6514 14.6634L21.6287 14.6856L21.6061 14.7078L16.012 24.6684C15.9894 24.735 15.9214 24.735 15.8308 24.735H11.1201C11.0974 24.735 11.0748 24.735 11.0521 24.735C11.8674 23.3817 12.7734 21.8288 13.5434 20.4756V20.4534L16.6688 14.375H21.7419Z" fill="url(#paint7_linear_587_159)"/>
<path fill-rule="evenodd" clip-rule="evenodd" d="M10.4179 14.3757L5.34473 14.3535C5.34473 14.4866 5.39002 14.5975 5.43532 14.6863L10.9841 24.4473C11.6862 23.2937 12.4109 22.0514 13.3395 20.0992L10.4179 14.3757Z" fill="url(#paint8_linear_587_159)"/>
<defs>
<linearGradient id="paint0_linear_587_159" x1="5.83453" y1="18.705" x2="20.9254" y2="9.81018" gradientUnits="userSpaceOnUse">
<stop/>
<stop offset="1" stop-color="white"/>
</linearGradient>
<linearGradient id="paint1_linear_587_159" x1="13.3364" y1="12.3178" x2="16.8383" y2="10.2537" gradientUnits="userSpaceOnUse">
<stop/>
<stop offset="1" stop-color="#B2B2B2"/>
</linearGradient>
<linearGradient id="paint2_linear_587_159" x1="10.1043" y1="7.39755" x2="16.2983" y2="11.0484" gradientUnits="userSpaceOnUse">
<stop/>
<stop offset="1" stop-color="white"/>
</linearGradient>
<linearGradient id="paint3_linear_587_159" x1="6.27926" y1="6.68988" x2="15.0141" y2="11.8384" gradientUnits="userSpaceOnUse">
<stop stop-color="#878787"/>
<stop offset="1" stop-color="white"/>
</linearGradient>
<linearGradient id="paint4_linear_587_159" x1="14.3055" y1="11.9229" x2="21.562" y2="7.6457" gradientUnits="userSpaceOnUse">
<stop stop-color="#DADADA"/>
<stop offset="1" stop-color="white"/>
</linearGradient>
<linearGradient id="paint5_linear_587_159" x1="13.4446" y1="19.481" x2="11.0787" y2="15.2975" gradientUnits="userSpaceOnUse">
<stop stop-color="#9D9D9C"/>
<stop offset="1" stop-color="white"/>
</linearGradient>
<linearGradient id="paint6_linear_587_159" x1="12.6772" y1="23.5169" x2="14.7179" y2="15.7413" gradientUnits="userSpaceOnUse">
<stop/>
<stop offset="1" stop-color="#B2B2B2"/>
</linearGradient>
<linearGradient id="paint7_linear_587_159" x1="12.5871" y1="17.3948" x2="20.0742" y2="21.8079" gradientUnits="userSpaceOnUse">
<stop stop-color="#3C3C3B"/>
<stop offset="1" stop-color="white"/>
</linearGradient>
<linearGradient id="paint8_linear_587_159" x1="5.28616" y1="21.0413" x2="12.5427" y2="16.7642" gradientUnits="userSpaceOnUse">
<stop/>
<stop offset="1" stop-color="#DADADA"/>
</linearGradient>
</defs>
</svg>
